<svg xmlns:dc="http://purl.org/dc/elements/1.1/" xmlns:cc="http://creativecommons.org/ns#" xmlns:rdf="http://www.w3.org/1999/02/22-rdf-syntax-ns#" xmlns:svg="http://www.w3.org/2000/svg" xmlns="http://www.w3.org/2000/svg" xmlns:sodipodi="http://sodipodi.sourceforge.net/DTD/sodipodi-0.dtd" xmlns:inkscape="http://www.inkscape.org/namespaces/inkscape" version="1.1" id="svg2" xml:space="preserve" sodipodi:docname="4805.eps" viewBox="0 0 6666.67 2666.67"><metadata id="metadata8"><rdf:RDF><cc:Work rdf:about=""><dc:format>image/svg+xml</dc:format><dc:type rdf:resource="http://purl.org/dc/dcmitype/StillImage"/></cc:Work></rdf:RDF></metadata><defs id="defs6"/><sodipodi:namedview pagecolor="#ffffff" bordercolor="#666666" borderopacity="1" objecttolerance="10" gridtolerance="10" guidetolerance="10" inkscape:pageopacity="0" inkscape:pageshadow="2" inkscape:window-width="640" inkscape:window-height="480" id="namedview4"/><g id="g10" inkscape:groupmode="layer" inkscape:label="ink_ext_XXXXXX" transform="matrix(1.3333333,0,0,-1.3333333,0,2666.6667)"><g id="g12" transform="scale(0.1)"><path d="M 50000,0 H 0 V 20000 H 50000 V 0" style="fill:#ffffff;fill-opacity:1;fill-rule:nonzero;stroke:none" id="path14"/><path d="m 3742.98,3023 c 0,0 -2710.33,7124.2 1736.66,8094.9 4447,970.7 7076.76,883.5 8405.56,3384.6 857,1613.2 5879.9,3122.3 8504.4,-158.1 2624.4,-3280.5 4880.6,-3264 6691.4,-2657.1 2076.7,695.9 3154.7,3055.3 6405.4,2612.4 3757.1,-512 3518.3,-3531.3 5856.8,-3340 4252.2,348 7848.7,-4533.2 3058,-7977.7 l -40658.22,41" style="fill:#eaf1f8;fill-opacity:1;fill-rule:nonzero;stroke:none" id="path16"/><path d="m 28047.8,13708.2 h -3429.5 v 1066.9 h 3429.5 z M 24618.3,4953.7 v 2707.6 h 3429.5 V 4953.7 Z m 3429.5,5836.3 h -3429.5 v 2707.6 h 3429.5 z m -3429.5,-210.5 h 3429.5 V 7871.9 h -3429.5 z m 4370,4518.9 H 23556 c -89,0 -161.7,-72.7 -161.7,-161.7 0,-88.9 72.7,-161.6 161.7,-161.6 h 785.8 V 3161.2 c 0,-76.1 62.2,-138.3 138.3,-138.3 76,0 138.2,62.2 138.2,138.3 v 1582 h 3429.5 v -1582 c 0,-76.1 62.2,-138.3 138.2,-138.3 76.1,0 138.3,62.2 138.3,138.3 v 11613.9 h 664 c 88.9,0 161.7,72.7 161.7,161.6 0,89 -72.8,161.7 -161.7,161.7" style="fill:#c5dbff;fill-opacity:1;fill-rule:nonzero;stroke:none" id="path18"/><path d="M 18298.6,10110.1 V 3985.2 h 42.1 v 6124.9 h -42.1" style="fill:#adcbff;fill-opacity:1;fill-rule:nonzero;stroke:none" id="path20"/><path d="m 33587.7,7655.7 h 1271.4 l 1423.4,-3860.6 h -1271.4 z m 855.2,1128.8 345,-935.7 h -1271.4 l -304.5,825.9 z m 2354.1,-815.1 -621.8,-120.6 h -873.1 l -44.4,120.6 z m 7776.3,-4174.3 h -7776.6 l -1423.4,3860.6 h 811.1 c 6.2,0 12.3,0.6 18.4,1.8 l 1616.8,313.7 c 48.8,9.6 82.4,54.5 77.6,104 -4.7,49.5 -46.4,87.3 -96,87.3 h -2614.7 l -698,1893 c -45.9,125.2 -185.1,188.9 -309.7,142.9 -76.6,-28.1 -130.1,-91 -149.7,-164.2 l -1300.9,-47.1 -25.2,68.4 c -46.1,125.2 -185.3,188.9 -309.8,142.9 -125,-46 -189,-184.7 -142.9,-309.7 l 2246.5,-6093.6 h -1087.2 c -212.3,0 -386.1,-173.7 -386.1,-386.1 v 0 c 0,-212.3 173.8,-386 386.1,-386 h 11163.7 c 212.3,0 386.1,173.7 386.1,386 v 0 c 0,212.4 -173.8,386.1 -386.1,386.1" style="fill:#c5dbff;fill-opacity:1;fill-rule:nonzero;stroke:none" id="path22"/><path d="m 18474.3,9956.2 c -901,0 -1748.1,-350.9 -2385.3,-988 -637.1,-637.1 -988,-1484.2 -988,-2385.3 0,-901 350.9,-1748.2 988,-2385.3 637.2,-637.1 1484.3,-988 2385.3,-988 901.1,0 1748.2,350.9 2385.3,988 637.2,637.1 988,1484.3 988,2385.3 0,901.1 -350.8,1748.2 -988,2385.3 -637.1,637.1 -1484.2,988 -2385.3,988 z m 0,-6931.6 c -480.3,0 -946.3,94.1 -1385,279.7 -423.8,179.2 -804.3,435.8 -1131.1,762.5 -326.7,326.8 -583.3,707.3 -762.5,1131 -185.6,438.8 -279.7,904.8 -279.7,1385.1 0,480.3 94.1,946.3 279.7,1385.1 179.2,423.7 435.8,804.2 762.5,1131 326.8,326.8 707.3,583.3 1131.1,762.5 438.7,185.6 904.7,279.7 1385,279.7 480.3,0 946.4,-94.1 1385.1,-279.7 423.7,-179.2 804.3,-435.7 1131,-762.5 326.8,-326.8 583.3,-707.3 762.5,-1131 185.6,-438.8 279.7,-904.8 279.7,-1385.1 0,-480.3 -94.1,-946.3 -279.7,-1385.1 -179.2,-423.7 -435.7,-804.2 -762.5,-1131 -326.7,-326.7 -707.3,-583.3 -1131,-762.5 -438.7,-185.6 -904.8,-279.7 -1385.1,-279.7" style="fill:#c5dbff;fill-opacity:1;fill-rule:nonzero;stroke:none" id="path24"/><path d="m 5944.26,12465.7 c 7.18,122.2 -10.46,237.9 -10.46,237.9 -92.26,-235.1 -219.17,-354.5 -309.28,-413.1 -29.63,-7.2 -53,-10.1 -64.9,-7.2 -49.92,12 -97.49,27.9 -142.9,46.8 133.37,102.8 262.74,265.6 270.64,275.7 -119.84,-110.4 -265.51,-186 -366.18,-229.9 -247.99,134.7 -417.96,355 -510.12,500.1 636.42,200.9 823.71,599.9 823.71,599.9 -565.68,-451.6 -816.12,-473.4 -903.88,-457.8 -1.12,2.2 -1.64,3.3 -1.64,3.3 850.88,225.6 1086.66,1220 1373.7,1568.5 287.05,348.6 635.59,82 635.59,82 0,0 -36.9,-1233.2 -794.28,-2206.2" style="fill:#a9453d;fill-opacity:1;fill-rule:nonzero;stroke:none" id="path26"/><path d="m 7427.34,12756.8 c 0,0 556.21,-295.5 510.07,-560 -73.59,-422 -383.43,-1341.9 -383.43,-1341.9 l 904.61,450.6 161.77,-195.2 c 0,0 -1098.62,-1096.8 -1485.6,-844.8 -387,251.9 292.58,2491.3 292.58,2491.3" style="fill:#c0783d;fill-opacity:1;fill-rule:nonzero;stroke:none" id="path28"/><path d="m 7562.87,14369.5 c 0,0 -609.96,733 -932.88,264 0,0 -240.91,-100 -328.05,-510 -88.91,-418.4 189.31,-736.4 333.17,-657.8 92.26,50.4 162.1,-111.1 162.1,-111.1 l 765.66,1014.9" style="fill:#a9453d;fill-opacity:1;fill-rule:nonzero;stroke:none" id="path30"/><path d="m 7371.16,12761.7 c 2.33,-1 -224.24,-118.7 -394.65,-72 -160.3,43.7 -363.47,97.4 -361.26,97.9 67.88,13.5 185.89,260.8 184.45,661.7 l 30.69,-6 516.02,-102.2 c 0,0 -11.75,-162.4 -12.09,-315.4 -0.36,-128.4 7.43,-250.3 36.84,-264" style="fill:#ce8e55;fill-opacity:1;fill-rule:nonzero;stroke:none" id="path32"/><path d="m 7346.41,13341.1 c 0,0 -11.75,-162.4 -12.09,-315.4 -288.76,8.2 -441.39,271.6 -503.93,417.6 l 516.02,-102.2" style="fill:#c0783d;fill-opacity:1;fill-rule:nonzero;stroke:none" id="path34"/><path d="m 6777.1,13499.4 c 0,0 -151.32,239.1 -187.64,443.6 -25.93,145.9 48.41,687 592.1,609.1 0,0 157.91,-15.6 306.33,-115.8 118.05,-79.8 288.41,-251.9 97.93,-724 l -49.48,-159.5 -759.24,-53.4" style="fill:#a9453d;fill-opacity:1;fill-rule:nonzero;stroke:none" id="path36"/><path d="m 7442.83,13196.2 c 0,0 -683.18,-11.2 -683.65,414.3 -0.47,425.6 -88.97,710.7 347.21,735.9 436.18,25.2 521.11,-137.1 555.81,-279.1 34.71,-142 -41.66,-857.2 -219.37,-871.1" style="fill:#ce8e55;fill-opacity:1;fill-rule:nonzero;stroke:none" id="path38"/><path d="m 5975.63,9573.5 c 239.58,537.3 354.19,689.3 358.19,858.3 1.13,46 -2.26,115.2 -12.4,200.6 -12.41,105.9 -35.38,236.8 -73,379.4 0,0 0,0 -0.1,0 -0.31,1.2 -0.72,2.7 -1.13,4.4 -3.07,12.4 -9.43,39.9 -17.42,79.3 -65.41,323.9 -239.89,1456.5 386.68,1693.6 6.36,0.8 12.61,1.3 18.66,1.7 273.3,18.5 794.49,-34.2 794.49,-34.2 0,0 96.37,-133.7 201.75,-333.7 117.18,-222.4 245.63,-526.8 264.69,-819.6 19.48,-298.9 -81.7,-506.8 -125.17,-808 -37.52,-258.8 -41.41,-579.5 119.13,-1092.8 354.7,-1134.2 -2046.71,-425.8 -1914.37,-129" style="fill:#ce8e55;fill-opacity:1;fill-rule:nonzero;stroke:none" id="path40"/><path d="m 7641.89,14303.9 c -105.43,127.8 -185.15,100 -229.91,61.7 -15.2,22.7 -33.79,39.7 -54.9,51.9 -394.58,158.8 -559.36,-150.4 -559.36,-150.4 -45.69,-305.3 -265.88,-480.2 -265.88,-480.2 0,0 124.52,-77 411.59,-3.1 87.6,22.5 165.86,84.7 232.36,160.1 -116.16,-194.5 -274.14,-334.7 -274.14,-334.7 342.9,158.5 480.6,635.4 494.31,685.8 41.71,-37.4 123.92,-118.8 148.98,-198.5 34.06,-108.4 49.38,-331.5 114.4,-323.9 0,0 140.92,339.4 -17.45,531.3" style="fill:#a9453d;fill-opacity:1;fill-rule:nonzero;stroke:none" id="path42"/><path d="m 7770.87,10795.3 c 0,0 -909.41,-260.5 -1449.45,-162.9 -12.41,105.9 -35.38,236.8 -73,379.4 0,0 0,0 -0.1,0 -0.31,1.2 -0.72,2.7 -1.13,4.4 -3.07,12.4 -9.43,39.9 -17.42,79.3 172.32,100.9 375.51,172.9 375.51,172.9 l 1165.59,-473.1" style="fill:#c0783d;fill-opacity:1;fill-rule:nonzero;stroke:none" id="path44"/><path d="m 6779.55,12707.1 c 0,0 546.75,-252.9 813.29,-259.8 266.54,-6.8 -598.01,-222.1 -813.29,259.8" style="fill:#c0783d;fill-opacity:1;fill-rule:nonzero;stroke:none" id="path46"/><path d="m 7890.51,11390.7 c -22.56,-197.5 -87.24,-370.5 -119.64,-595.4 -625.24,-82 -1307.68,138.7 -1522.45,216.5 0,0 0,0 -0.1,0 -0.31,1.2 -0.72,2.7 -1.13,4.4 -28.6,114.9 -333.38,1507 369.26,1772.9 90.52,-29.4 188.22,-83.4 281,-177.7 199.28,-202.8 534.61,-207.4 733.9,-188.5 81.3,-154.2 167.92,-348 219.79,-549.8 22.97,-89.2 39.06,-180.1 44.9,-269.8 4.93,-75.7 2.16,-145.5 -5.53,-212.6" style="fill:#acd29a;fill-opacity:1;fill-rule:nonzero;stroke:none" id="path48"/><path d="m 7371.16,12761.7 c 0,0 160.17,6.9 211.43,-27.3 51.26,-34.2 310.96,-338.3 324.63,-379.3 0,0 -321.21,27.3 -351.97,6.8 0,0 117.06,68.4 -184.09,399.8" style="fill:#88b374;fill-opacity:1;fill-rule:nonzero;stroke:none" id="path50"/><path d="m 8796.49,3292.7 -241.72,73.5 c 0,0 -1159,1335.2 -898.61,2736.9 2.77,15 2.87,30.2 -4,43.8 -0.1,0.2 -0.1,0.3 -0.2,0.4 -50.13,99.1 -265.83,531.4 -489.72,1067.8 -107.13,256.8 -216.2,537.6 -309.8,817.1 -55.36,165.2 -105.28,329.9 -146.29,489 -0.41,1.6 -0.72,2.7 -0.92,3.6 -0.31,1.1 -0.41,1.8 -0.41,1.8 -100.67,392.8 -146.39,750.7 -83.24,995.5 L 7861.72,9821 c 0,0 135.92,-505.3 267.96,-1158.5 184.93,-915.2 384.63,-2120.7 277.71,-2634.4 -94.93,-455.7 389.1,-2735.4 389.1,-2735.4" style="fill:#ce8e55;fill-opacity:1;fill-rule:nonzero;stroke:none" id="path52"/><path d="m 8335.86,11245.4 c 0,0 107.64,-119.2 140.96,-274.3 0,0 140.95,137.1 149.28,140.3 8.33,3.3 131.99,72.5 185.81,151.9 53.82,79.4 89.7,145.2 17.94,264.8 -71.76,119.6 -276.79,153.8 -300.71,129.9 -23.92,-23.9 -88.84,-321.2 -88.84,-321.2 0,0 -7.37,-22.6 -104.44,-91.4" style="fill:#b2cbfd;fill-opacity:1;fill-rule:nonzero;stroke:none" id="path54"/><path d="m 7162.24,7215.1 c -107.13,256.8 -216.2,537.6 -309.8,817.1 -55.36,165.2 -105.28,329.9 -146.29,489 -0.41,1.6 -0.72,2.7 -0.92,3.6 -0.31,1.1 -0.41,1.8 -0.41,1.8 l 94.73,10.4 960.66,106.2 c 0,0 6.15,-72.5 14.46,-192.8 20.19,-291.7 -288.58,-793.3 -612.43,-1235.3" style="fill:#c0783d;fill-opacity:1;fill-rule:nonzero;stroke:none" id="path56"/><path d="M 7707.31,9484.7 7144.3,8234 c -2.87,1.4 -5.74,2.9 -8.61,4.3 C 6816.46,7360.9 6358.63,6228.1 5999.52,5845.4 5681.01,5506 4912.04,3301.3 4912.04,3301.3 l -206.78,73.5 c 0,0 -260.59,1865.7 692.39,2926.3 10.15,11.2 18.15,24.3 19.38,39.3 v 0.5 c 8.2,102.4 43.98,521.1 119.33,1037.4 18.24,125.3 38.85,256.2 61.92,389.9 33.52,193.7 72.27,393.1 116.76,588.4 0.72,3.3 1.43,6.4 2.15,9.5 1.85,47.4 9.76,127.3 20.94,230.4 15.27,140.6 39.44,324.8 89.47,534.6 1.54,6.1 2.97,12.4 4.51,18.6 112.56,463.6 273.31,697.1 273.31,697.1 0,0 856.1,-236.6 1153.39,-257.1 297.29,-20.5 448.5,-105 448.5,-105" style="fill:#ce8e55;fill-opacity:1;fill-rule:nonzero;stroke:none" id="path58"/><path d="m 8129.68,8662.5 c -43.16,-67.9 -182.99,-144.5 -355.01,-212.1 l -2.16,-0.9 c -199.49,-78.2 -441.73,-144.4 -626.47,-171.4 -156.43,-22.8 -271.66,-17.4 -284.48,32.7 -100.66,392.9 -303.13,966.4 -239.98,1211.3 l 1277.34,173.5 c 0,0 98.72,-379.9 230.76,-1033.1" style="fill:#739cf3;fill-opacity:1;fill-rule:nonzero;stroke:none" id="path60"/><path d="m 6974.33,8264.7 c -37.31,-9.3 -713.4,-773.1 -1437.97,-886.4 18.24,125.3 38.85,256.2 61.92,389.9 33.52,193.7 72.27,393.1 116.76,588.4 0.72,3.3 1.43,6.4 2.15,9.5 1.85,47.4 9.76,127.3 20.94,230.4 300.05,293.6 610.86,549.9 610.86,549.9 l 625.34,-881.7" style="fill:#c0783d;fill-opacity:1;fill-rule:nonzero;stroke:none" id="path62"/><path d="m 4692.16,3021.1 h 143.83 c 48.18,7.6 83.76,21.5 133.17,28 75.04,9.8 109.59,-20.9 116.46,-28 0.92,-0.9 1.33,-1.4 1.33,-1.4 h 610.98 c 15.39,21.9 0.62,72.7 -13.83,110.2 -9.74,25.4 -30.97,44.7 -57.21,52.2 -64.79,18.8 -192.52,35.5 -309.49,141.4 -65.81,59.5 -317.8,218.7 -317.8,218.7 l -1.33,0.3 c -5.54,-0.1 -31.88,-8.2 -146.49,-105 -59.26,-49.9 -160.23,70.5 -160.23,70.5 0,0 -18.97,-15.6 -33.11,-44.9 -11.38,-23 -19.69,-54.7 -13.13,-93.8 9.13,-55 -20.3,-157.3 -43.77,-226.5 -14.25,-42 -26.25,-71.7 -26.25,-71.7 0,0 -6.86,-34.5 116.87,-50" style="fill:#485ca6;fill-opacity:1;fill-rule:nonzero;stroke:none" id="path64"/><path d="m 4658.44,3463.1 c 34.34,-24.2 106.81,-71.8 154.89,-78.1 64.9,-8.5 186.27,157.2 186.27,157.2 l -1.33,0.3 c -5.54,-0.1 -31.88,-8.2 -146.49,-105 -59.26,-49.9 -160.23,70.5 -160.23,70.5 0,0 -18.97,-15.6 -33.11,-44.9" style="fill:#a9453d;fill-opacity:1;fill-rule:nonzero;stroke:none" id="path66"/><path d="m 4692.16,3021.1 h 143.83 c 48.18,7.6 83.76,21.5 133.17,28 75.04,9.8 109.59,-20.9 116.46,-28 0.92,-0.9 1.33,-1.4 1.33,-1.4 h 610.98 c 15.39,21.9 0.62,72.7 -13.83,110.2 -18.56,16.5 -23.79,-71.7 -34.04,-85.7 -10.25,-14.1 -498.42,-5.2 -526.62,15.3 -28.19,20.5 -112.77,56.4 -230.66,28.2 -102.61,-24.5 -253.82,38.4 -291.24,55.1 -14.25,-42 -26.25,-71.7 -26.25,-71.7 0,0 -6.86,-34.5 116.87,-50" style="fill:#a9453d;fill-opacity:1;fill-rule:nonzero;stroke:none" id="path68"/><path d="m 8444.02,3021.1 h 143.83 c 48.19,7.6 83.76,21.5 133.17,28 75.04,9.8 109.59,-20.9 116.46,-28 0.92,-0.9 1.33,-1.4 1.33,-1.4 h 610.99 c 15.38,21.9 0.62,72.7 -13.84,110.2 -9.74,25.4 -30.96,44.7 -57.21,52.2 -64.79,18.8 -192.52,35.5 -309.49,141.4 -65.81,59.5 -317.8,218.7 -317.8,218.7 l -1.32,0.3 c -5.54,-0.1 -31.89,-8.2 -146.5,-105 -59.26,-49.9 -160.23,70.5 -160.23,70.5 0,0 -18.97,-15.6 -33.11,-44.9 -11.38,-23 -19.68,-54.7 -13.12,-93.8 9.12,-55 -20.3,-157.3 -43.78,-226.5 -14.25,-42 -26.24,-71.7 -26.24,-71.7 0,0 -6.87,-34.5 116.86,-50" style="fill:#485ca6;fill-opacity:1;fill-rule:nonzero;stroke:none" id="path70"/><path d="m 8410.3,3463.1 c 34.34,-24.2 106.82,-71.8 154.9,-78.1 64.89,-8.5 186.26,157.2 186.26,157.2 l -1.32,0.3 c -5.54,-0.1 -31.89,-8.2 -146.5,-105 -59.26,-49.9 -160.23,70.5 -160.23,70.5 0,0 -18.97,-15.6 -33.11,-44.9" style="fill:#a9453d;fill-opacity:1;fill-rule:nonzero;stroke:none" id="path72"/><path d="m 8444.02,3021.1 h 143.83 c 48.19,7.6 83.76,21.5 133.17,28 75.04,9.8 109.59,-20.9 116.46,-28 0.92,-0.9 1.33,-1.4 1.33,-1.4 h 610.99 c 15.38,21.9 0.62,72.7 -13.84,110.2 -18.56,16.5 -23.78,-71.7 -34.04,-85.7 -10.25,-14.1 -498.42,-5.2 -526.62,15.3 -28.19,20.5 -112.76,56.4 -230.65,28.2 -102.62,-24.5 -253.83,38.4 -291.25,55.1 -14.25,-42 -26.24,-71.7 -26.24,-71.7 0,0 -6.87,-34.5 116.86,-50" style="fill:#a9453d;fill-opacity:1;fill-rule:nonzero;stroke:none" id="path74"/><path d="m 7890.51,11390.7 c -1077.64,52 -1533.83,482.6 -1533.83,482.6 l 1494.46,-0.2 c 22.97,-89.2 39.06,-180.1 44.9,-269.8 4.93,-75.7 2.16,-145.5 -5.53,-212.6" style="fill:#88b374;fill-opacity:1;fill-rule:nonzero;stroke:none" id="path76"/><path d="m 9913.1,12033.9 c 0,0 -866.36,-285.4 -1496.72,-300.7 -530.32,-13 -1447.07,-78.3 -1934.94,83.3 -92.16,30.5 -156.85,70.3 -183.71,121.7 -169.15,322.9 109.39,656.8 109.39,656.8 0,0 157.36,-16.1 394.27,-38.8 597.77,-57.4 1367.76,-232.6 1731.17,-221.6 507.35,15.4 970.47,-20.5 1401.04,-34.2 l -20.5,-266.5" style="fill:#ce8e55;fill-opacity:1;fill-rule:nonzero;stroke:none" id="path78"/><path d="m 6479.86,11801.4 c -95.72,31.8 -162.9,73.1 -190.8,126.4 -175.68,335.4 14.25,595.6 125.94,682.2 81.28,63.1 200.23,16.7 397.17,-40.2 -57.29,-59.4 -360.31,-392.4 -332.31,-768.4" style="fill:#acd29a;fill-opacity:1;fill-rule:nonzero;stroke:none" id="path80"/><path d="m 9796.91,12305.5 c 0,0 22.86,-190.2 -42.5,-320.9 0,0 147.37,45.6 160.18,45 12.81,-0.6 309.51,-24.3 414.51,-12.8 105.1,11.5 159.8,3.4 170,193.1 10.3,189.6 5.2,266.5 -30.7,268.2 -35.9,1.7 -208.5,-29 -526.26,-165.7 0,0 -18.8,-9.4 -145.23,-6.9" style="fill:#b2cbfd;fill-opacity:1;fill-rule:nonzero;stroke:none" id="path82"/><path d="m 7774.67,8450.4 -2.16,-0.9 c -199.49,-78.2 -441.73,-144.4 -626.47,-171.4 -130.19,209.1 -481.82,827.4 -64.07,793.3 502.33,-41 692.7,-621 692.7,-621" style="fill:#6488d3;fill-opacity:1;fill-rule:nonzero;stroke:none" id="path84"/><path d="m 6105.45,9846.9 c 0,0 -319.57,-385 -388.27,-1480.8 0,0 430.2,-87.7 522.46,-60.4 92.26,27.4 252.87,420.4 252.87,420.4 0,0 -88.84,-386.2 -3.42,-457.9 85.43,-71.8 625.34,-136.7 625.34,-136.7 l 642.44,1428.3 c 0,0 -893.73,102.6 -1651.42,287.1" style="fill:#739cf3;fill-opacity:1;fill-rule:nonzero;stroke:none" id="path86"/><path d="m 6095.15,9833.2 c 0,0 756.16,-410 1294.37,-292.2 538.2,117.9 509.4,154.6 509.4,154.6 l -92.62,320.2 c 0,0 -278.38,-162.1 -652.57,-146.7 -374.18,15.4 -912.47,267.8 -912.47,267.8 l -146.11,-303.7" style="fill:#6488d3;fill-opacity:1;fill-rule:nonzero;stroke:none" id="path88"/><path d="m 20635,12768.2 c 0,0 -628.7,-36.7 -697.1,-296.4 -109,-414.3 -210.8,-1379.6 -210.8,-1379.6 l -634.5,786.7 -228.4,-110 c 0,0 541.4,-1454.9 998.2,-1387.3 456.8,67.7 772.6,2386.6 772.6,2386.6" style="fill:#c0783d;fill-opacity:1;fill-rule:nonzero;stroke:none" id="path90"/><path d="m 22001.8,9576.6 c -239.5,537.3 -354.1,689.2 -358.1,858.2 -3.2,133.7 62.7,278 190.7,631.6 30.2,83.4 51,169.1 63.8,255.7 101.3,681.8 -293,1418.9 -538.1,1469.1 -68.2,18.1 -183.7,264.3 -182.3,661.2 l -30.7,-6.1 -516,-102.2 c 0,0 11.7,-162.4 12.1,-315.3 0.3,-127.3 -7.3,-248 -36.1,-263.6 -37.2,-3.3 -59.2,-5.6 -59.2,-5.6 0,0 -430.3,-597.5 -466.5,-1153.2 -36.2,-555.7 344.6,-797.2 -2.8,-1907.7 -354.7,-1134.2 2055.6,-419 1923.2,-122.1" style="fill:#ce8e55;fill-opacity:1;fill-rule:nonzero;stroke:none" id="path92"/><path d="m 21848.1,14890.3 c -114.5,70 -297.3,-13.7 -297.3,-13.7 63.2,88.8 293.9,59.8 293.9,59.8 -459.5,97.7 -555.4,-196 -563.3,-223.5 -333.2,300.7 -866.8,-340.3 -866.8,-340.3 l 765.7,-1014.9 c 0,0 69.8,161.4 162.1,111 143.8,-78.6 422,239.4 333.1,657.8 -9.6,45.2 -21.1,86.5 -34,124.4 29.9,-13 63.8,-23.6 95.6,-23.6 83.7,0 210.1,213.6 227.2,285.4 17.1,71.7 -1.7,307.5 -116.2,377.6" style="fill:#2c3a64;fill-opacity:1;fill-rule:nonzero;stroke:none" id="path94"/><path d="m 20631.1,13344.1 c 0,0 11.7,-162.4 12.1,-315.3 288.7,8.1 441.4,271.5 503.9,417.5 l -516,-102.2" style="fill:#c0783d;fill-opacity:1;fill-rule:nonzero;stroke:none" id="path96"/><path d="m 21200.4,13502.5 c 0,0 151.3,239.1 187.6,443.5 26,146 -48.4,687 -592.1,609.1 0,0 -157.9,-15.5 -306.3,-115.8 -118.1,-79.7 -288.4,-251.8 -97.9,-724 l 49.4,-159.4 759.3,-53.4" style="fill:#2c3a64;fill-opacity:1;fill-rule:nonzero;stroke:none" id="path98"/><path d="m 20534.6,13199.3 c 0,0 683.2,-11.3 683.7,414.3 0.5,425.5 89,710.7 -347.2,735.9 -436.2,25.2 -521.1,-137.1 -555.8,-279.1 -34.7,-142 41.6,-857.2 219.3,-871.1" style="fill:#ce8e55;fill-opacity:1;fill-rule:nonzero;stroke:none" id="path100"/><path d="m 20977.9,7200.4 c -96.6,-547.5 -167.6,-958 -167.6,-958 286,-1173.1 -1029.5,-2987.6 -1029.5,-2987.6 l -204.4,82 c 0,0 595.3,1432.1 392.3,2860.2 -287.1,2019.5 92.2,3372.7 92.2,3372.7 l 1214.6,-391.8 56.6,-18.2 c -107.9,-572.2 -246.8,-1350.5 -354.2,-1959.3" style="fill:#ce8e55;fill-opacity:1;fill-rule:nonzero;stroke:none" id="path102"/><path d="m 21834.4,11066.4 c -128,-353.6 -193.9,-497.9 -190.7,-631.6 -408.2,632 -1145.3,727.3 -1145.3,727.3 l 1399.8,160 c -12.8,-86.6 -33.6,-172.3 -63.8,-255.7" style="fill:#c0783d;fill-opacity:1;fill-rule:nonzero;stroke:none" id="path104"/><path d="m 21325.7,12804.1 c 0,0 583.9,-59.8 652.3,-210.2 220.5,-485.3 440.8,-2122 502.3,-2265.6 61.5,-143.5 249.4,-932.9 410,-1322.4 l -205,-61.5 c 0,0 -676.6,1122.5 -738.1,1414.7 -61.5,292.1 -398.8,1480.4 -398.8,1480.4 l -222.7,964.6" style="fill:#ce8e55;fill-opacity:1;fill-rule:nonzero;stroke:none" id="path106"/><path d="m 21786.1,11462.7 8,-507.1 c 0,0 -445.2,129.4 -920.6,168.9 -115.8,9.6 -233.5,13.8 -346.9,9.6 -140.5,-5.1 -274.4,-23.5 -390.5,-60.8 0,0 -75.1,328.1 -150.4,717.6 -2.6,14.1 -4.8,28 -6.4,41.8 -43.5,370.6 285.8,673.5 147.4,821.7 0,0 127.7,71.2 421.2,105.3 0,0 -230.6,-406.7 -210.1,-509.2 20.5,-102.5 912.3,-10.3 973.9,46.1 61.5,56.4 158.8,488.2 158.8,488.2 0,0 334.9,-34 470.3,-146.9 0,0 -104.4,-130.4 -169.9,-286.7 -19.3,-46 -35.1,-94 -44.1,-141.7 -23.9,-127.6 -87.1,-370.8 56.4,-562.1 l 2.9,-184.7" style="fill:#a6d9f1;fill-opacity:1;fill-rule:nonzero;stroke:none" id="path108"/><path d="m 21209.1,8513.8 c -107.9,-572.1 -123.8,-704.6 -231.2,-1313.4 -666.4,1163.3 -568.4,1467.2 -568.4,1467.2 l 799.6,-153.8" style="fill:#c0783d;fill-opacity:1;fill-rule:nonzero;stroke:none" id="path110"/><path d="m 23272.2,3377.8 -199.4,-70.8 c 0,0 -776.4,2202 -1094.8,2541.4 -615.4,655.8 -1521.3,3515.5 -1521.3,3515.5 l 1224,397.2 c 181.5,-176 329,-505.3 447.9,-893 299.8,-978.4 416.2,-2328.6 431.8,-2524.1 0.1,-0.2 0.1,-0.3 0.1,-0.5 1.2,-15.1 9.2,-28.1 19.4,-39.4 952.9,-1060.5 692.3,-2926.3 692.3,-2926.3" style="fill:#ce8e55;fill-opacity:1;fill-rule:nonzero;stroke:none" id="path112"/><path d="m 20915.8,8384.6 -200,52.2 c -102.7,34.2 -203.1,57.3 -296.3,72.9 -300.9,50.3 -529.4,21.2 -529.4,21.2 92.2,986.7 198.9,1223.2 198.9,1223.2 l 130.2,7 340.7,-705.7 355.9,-670.8" style="fill:#acd29a;fill-opacity:1;fill-rule:nonzero;stroke:none" id="path114"/><path d="m 20915.8,8384.6 -200,52.2 c -102.7,34.2 -203.1,57.3 -296.3,72.9 -13.5,189.5 62.8,392.4 140.4,545.7 l 355.9,-670.8" style="fill:#88b374;fill-opacity:1;fill-rule:nonzero;stroke:none" id="path116"/><path d="m 22560.4,6344 c -640.9,501.1 -1136,2180.1 -1136,2180.1 l 704.2,344 c 299.8,-978.4 416.2,-2328.6 431.8,-2524.1" style="fill:#c0783d;fill-opacity:1;fill-rule:nonzero;stroke:none" id="path118"/><path d="m 20116,9832.4 c 0,0 293.5,-221.7 590.8,-201.2 297.3,20.5 1165.2,218.7 1165.2,218.7 0,0 160.8,-233.6 273.4,-697.1 116.2,-478.4 125.1,-828.7 125.1,-828.7 0,0 -1027.2,128.2 -1437.3,-87.1 L 20116,9832.4" style="fill:#acd29a;fill-opacity:1;fill-rule:nonzero;stroke:none" id="path120"/><path d="m 21034.1,13786.8 c 287,-73.8 411.5,3.1 411.5,3.1 0,0 -53.2,256.5 -265.8,480.3 -107.2,112.7 -599.1,121.1 -614.3,98.4 -44.8,38.4 -124.5,66.2 -229.9,-61.6 -158.4,-192 -17.5,-531.3 -17.5,-531.3 65.1,-7.6 80.4,215.5 114.4,323.8 25.1,79.8 107.3,161.1 149,198.6 13.7,-50.4 151.4,-527.4 494.3,-685.9 0,0 -157.9,140.2 -274.1,334.8 66.5,-75.5 144.8,-137.7 232.4,-160.2" style="fill:#2c3a64;fill-opacity:1;fill-rule:nonzero;stroke:none" id="path122"/><path d="m 19558,3024.1 c -0.9,-0.9 -1.3,-1.4 -1.3,-1.4 h -70.6 c 6.1,0.9 12.3,1.4 18.7,1.4 h 53.2" style="fill:#2e3552;fill-opacity:1;fill-rule:nonzero;stroke:none" id="path124"/><path d="m 23610,8875.1 c -50.8,189.3 -251.3,299.9 -448,247.2 -50.3,-13.5 -95.4,-36.4 -133.9,-66.2 l -77.5,-56.2 c 0,0 -81.8,-207.4 -52.7,-315.7 50.8,-189.3 492.9,-247.1 492.9,-247.1 l 87.8,65 v 0.1 c 112.9,86.4 169.3,231.6 131.4,372.9" style="fill:#7298a6;fill-opacity:1;fill-rule:nonzero;stroke:none" id="path126"/><path d="m 23536.5,8821.7 c -50.7,189.2 -251.3,299.9 -447.9,247.1 -196.6,-52.7 -314.9,-248.9 -264.1,-438.1 50.7,-189.2 251.3,-299.9 447.9,-247.2 196.6,52.7 314.9,248.9 264.1,438.2" style="fill:#90bbca;fill-opacity:1;fill-rule:nonzero;stroke:none" id="path128"/><path d="m 23249,8729.3 c -3.7,42.3 -55.1,84 -110.4,63.6 -22.3,-8.2 -614.9,-379.1 -614.9,-379.1 l 126.7,-157 575.1,410.6 c 0,0 27.2,19 23.5,61.9" style="fill:#658d98;fill-opacity:1;fill-rule:nonzero;stroke:none" id="path130"/><path d="m 19091.3,12478.4 -77.4,56.2 c -38.6,29.8 -83.7,52.7 -134,66.2 -196.6,52.7 -397.2,-57.9 -447.9,-247.2 -37.9,-141.3 18.5,-286.5 131.4,-372.9 l -0.1,-0.1 87.8,-65 c 0,0 442.2,57.8 492.9,247.1 29.1,108.3 -52.7,315.7 -52.7,315.7" style="fill:#7298a6;fill-opacity:1;fill-rule:nonzero;stroke:none" id="path132"/><path d="m 18953.3,12547.3 c -196.6,52.8 -397.1,-57.9 -447.9,-247.1 -50.7,-189.3 67.5,-385.4 264.2,-438.2 196.6,-52.7 397.1,57.9 447.9,247.2 50.7,189.2 -67.5,385.4 -264.2,438.1" style="fill:#90bbca;fill-opacity:1;fill-rule:nonzero;stroke:none" id="path134"/><path d="m 18903.3,12271.4 c -55.3,20.5 -106.6,-21.3 -110.3,-63.6 -3.8,-42.9 23.4,-61.9 23.4,-61.9 l 575.1,-410.6 126.8,157 c 0,0 -592.6,370.9 -615,379.1" style="fill:#658d98;fill-opacity:1;fill-rule:nonzero;stroke:none" id="path136"/><path d="m 18865.5,11767.6 c 0,0 -211.5,262.3 -59.2,397.6 152.3,135.4 349.6,95.9 355.3,16.9 5.6,-78.9 -67.7,-304.5 -67.7,-304.5 l -228.4,-110" style="fill:#c0783d;fill-opacity:1;fill-rule:nonzero;stroke:none" id="path138"/><path d="m 22875.8,9040.1 c 0,0 62.4,-147 127.3,-188 64.9,-41 157.2,-140.1 140.1,-218.7 -17.1,-78.6 -34.2,-201.6 -116.2,-201.6 -82,0 -273.3,362.2 -297.3,430.6 -23.9,68.3 -44.4,82 -44.4,82 l 190.5,95.7" style="fill:#ce8e55;fill-opacity:1;fill-rule:nonzero;stroke:none" id="path140"/><path d="m 23157.5,8535.6 c -55.2,205.8 -273.4,326.2 -487.3,268.9 -54.7,-14.7 -103.8,-39.7 -145.7,-72 l -84.3,-61.2 c 0,0 -88.9,-225.6 -57.3,-343.5 55.2,-205.8 536.2,-268.8 536.2,-268.8 l 95.5,70.8 h -0.1 c 122.9,94.1 184.2,252 143,405.8" style="fill:#7298a6;fill-opacity:1;fill-rule:nonzero;stroke:none" id="path142"/><path d="m 23077.6,8477.4 c -55.2,205.9 -273.4,326.3 -487.3,268.9 -213.9,-57.4 -342.5,-270.8 -287.3,-476.6 55.2,-205.9 273.3,-326.3 487.2,-268.9 213.9,57.3 342.6,270.7 287.4,476.6" style="fill:#90bbca;fill-opacity:1;fill-rule:nonzero;stroke:none" id="path144"/><path d="m 22817.3,8423.3 c -17.9,66.8 -88.7,105.9 -158.1,87.3 -17.8,-4.8 -33.8,-12.9 -47.4,-23.4 l -27.3,-19.8 3.3,-4.3 c -22.9,-29.9 -32.2,-69 -21.9,-107.3 17.9,-66.8 88.7,-105.9 158.2,-87.2 4.3,1.1 8.6,2.5 12.7,4 l 3.2,-4 31,23 h -0.1 c 39.9,30.5 59.8,81.8 46.4,131.7" style="fill:#7298a6;fill-opacity:1;fill-rule:nonzero;stroke:none" id="path146"/><path d="m 22791.4,8404.4 c -17.9,66.8 -88.7,105.9 -158.2,87.3 -69.4,-18.6 -111.2,-87.9 -93.3,-154.7 17.9,-66.9 88.8,-106 158.2,-87.3 69.5,18.6 111.2,87.9 93.3,154.7" style="fill:#7aacbb;fill-opacity:1;fill-rule:nonzero;stroke:none" id="path148"/><path d="m 18884.5,12014.1 c 55.2,205.8 273.3,326.2 487.2,268.8 54.8,-14.6 103.9,-39.6 145.8,-71.9 l 84.2,-61.2 c 0,0 89,-225.6 57.4,-343.5 -55.2,-205.9 -536.3,-268.8 -536.3,-268.8 l -95.5,70.8 h 0.1 c -122.8,94.1 -184.2,252 -142.9,405.8" style="fill:#7298a6;fill-opacity:1;fill-rule:nonzero;stroke:none" id="path150"/><path d="m 19451.6,12224.8 c -213.9,57.4 -432,-63 -487.2,-268.9 -55.2,-205.9 73.4,-419.3 287.3,-476.6 213.9,-57.4 432.1,63 487.3,268.9 55.2,205.8 -73.5,419.2 -287.4,476.6" style="fill:#90bbca;fill-opacity:1;fill-rule:nonzero;stroke:none" id="path152"/><path d="m 19454.1,11941.6 3.4,4.3 -27.4,19.8 c -13.6,10.5 -29.5,18.6 -47.3,23.4 -69.5,18.6 -140.3,-20.5 -158.2,-87.3 -13.4,-49.9 6.5,-101.2 46.4,-131.7 v -0.1 l 31,-22.9 3.2,4 c 4.1,-1.5 8.3,-2.9 12.7,-4.1 69.4,-18.6 140.3,20.5 158.2,87.4 10.2,38.2 0.9,77.3 -22,107.2" style="fill:#7298a6;fill-opacity:1;fill-rule:nonzero;stroke:none" id="path154"/><path d="m 19408.7,11970.2 c -69.4,18.6 -140.2,-20.4 -158.2,-87.3 -17.9,-66.8 23.9,-136.1 93.3,-154.7 69.5,-18.7 140.3,20.4 158.2,87.3 17.9,66.8 -23.8,136.1 -93.3,154.7" style="fill:#7aacbb;fill-opacity:1;fill-rule:nonzero;stroke:none" id="path156"/><path d="m 19951.4,3024.1 h -143.8 c -48.2,7.6 -83.7,21.6 -133.1,28 -75.1,9.9 -109.6,-20.9 -116.5,-28 -0.9,-0.9 -1.3,-1.4 -1.3,-1.4 h -611 c -15.4,21.9 -0.6,72.8 13.8,110.2 9.8,25.4 31,44.7 57.2,52.3 64.8,18.8 192.5,35.5 309.5,141.4 65.8,59.4 317.8,218.6 317.8,218.6 l 1.3,0.3 c 5.6,-0.1 31.9,-8.2 146.5,-104.9 59.3,-50 160.3,70.5 160.3,70.5 0,0 18.9,-15.7 33.1,-44.9 11.4,-23.1 19.7,-54.8 13.1,-93.8 -9.1,-55.1 20.3,-157.4 43.8,-226.6 14.2,-41.9 26.2,-71.6 26.2,-71.6 0,0 6.9,-34.6 -116.9,-50.1" style="fill:#acd29a;fill-opacity:1;fill-rule:nonzero;stroke:none" id="path158"/><path d="m 19985.2,3466.2 c -34.4,-24.2 -106.8,-71.9 -154.9,-78.1 -64.9,-8.5 -186.3,157.1 -186.3,157.1 l 1.3,0.3 c 5.6,-0.1 31.9,-8.2 146.5,-104.9 59.3,-50 160.3,70.5 160.3,70.5 0,0 18.9,-15.7 33.1,-44.9" style="fill:#88b374;fill-opacity:1;fill-rule:nonzero;stroke:none" id="path160"/><path d="m 19951.4,3024.1 h -143.8 c -48.2,7.6 -83.7,21.6 -133.1,28 -75.1,9.9 -109.6,-20.9 -116.5,-28 -0.9,-0.9 -1.3,-1.4 -1.3,-1.4 h -611 c -15.4,21.9 -0.6,72.8 13.8,110.2 18.6,16.5 23.8,-71.7 34,-85.7 10.3,-14 498.5,-5.1 526.7,15.4 28.2,20.5 112.7,56.4 230.6,28.2 102.6,-24.5 253.9,38.3 291.3,55 14.2,-41.9 26.2,-71.6 26.2,-71.6 0,0 6.9,-34.6 -116.9,-50.1" style="fill:#88b374;fill-opacity:1;fill-rule:nonzero;stroke:none" id="path162"/><path d="m 23285.3,3024.1 h -143.8 c -48.2,7.6 -83.8,21.6 -133.2,28 -75,9.9 -109.6,-20.9 -116.4,-28 -1,-0.9 -1.4,-1.4 -1.4,-1.4 h -611 c -15.3,21.9 -0.6,72.8 13.9,110.2 9.7,25.4 30.9,44.7 57.2,52.3 64.8,18.8 192.5,35.5 309.5,141.4 65.8,59.4 317.8,218.6 317.8,218.6 l 1.3,0.3 c 5.5,-0.1 31.9,-8.2 146.5,-104.9 59.3,-50 160.2,70.5 160.2,70.5 0,0 19,-15.7 33.1,-44.9 11.4,-23.1 19.7,-54.8 13.2,-93.8 -9.2,-55.1 20.3,-157.4 43.7,-226.6 14.3,-41.9 26.3,-71.6 26.3,-71.6 0,0 6.9,-34.6 -116.9,-50.1" style="fill:#acd29a;fill-opacity:1;fill-rule:nonzero;stroke:none" id="path164"/><path d="m 23319,3466.2 c -34.3,-24.2 -106.8,-71.9 -154.9,-78.1 -64.8,-8.5 -186.2,157.1 -186.2,157.1 l 1.3,0.3 c 5.5,-0.1 31.9,-8.2 146.5,-104.9 59.3,-50 160.2,70.5 160.2,70.5 0,0 19,-15.7 33.1,-44.9" style="fill:#88b374;fill-opacity:1;fill-rule:nonzero;stroke:none" id="path166"/><path d="m 23285.3,3024.1 h -143.8 c -48.2,7.6 -83.8,21.6 -133.2,28 -75,9.9 -109.6,-20.9 -116.4,-28 -1,-0.9 -1.4,-1.4 -1.4,-1.4 h -611 c -15.3,21.9 -0.6,72.8 13.9,110.2 18.5,16.5 23.8,-71.7 34,-85.7 10.3,-14 498.4,-5.1 526.6,15.4 28.2,20.5 112.8,56.4 230.7,28.2 102.6,-24.5 253.8,38.3 291.2,55 14.3,-41.9 26.3,-71.6 26.3,-71.6 0,0 6.9,-34.6 -116.9,-50.1" style="fill:#88b374;fill-opacity:1;fill-rule:nonzero;stroke:none" id="path168"/><path d="m 21794.1,10955.6 c 0,0 -445.2,129.4 -920.6,168.9 0,0 496.8,-60.2 911.6,337.1 0.3,0.3 0.7,0.7 1,1.1 l 8,-507.1" style="fill:#7dabbd;fill-opacity:1;fill-rule:nonzero;stroke:none" id="path170"/><path d="m 20089,9754.1 c 0,0 266.2,-195 548.2,-202.9 282,-7.9 1273.1,234.6 1273.1,234.6 l -40.9,77.1 c 0,0 -1086.3,-290.6 -1341.1,-204.5 -254.8,86.1 -405.7,190.5 -405.7,190.5 l -33.6,-94.8" style="fill:#88b374;fill-opacity:1;fill-rule:nonzero;stroke:none" id="path172"/><path d="m 38155.7,3017.9 c 0.9,-0.9 1.3,-1.4 1.3,-1.4 h 70.5 c -6,0.9 -12.3,1.4 -18.6,1.4 h -53.2" style="fill:#2e3552;fill-opacity:1;fill-rule:nonzero;stroke:none" id="path174"/><path d="m 29990.4,3111.6 c -94.1,162.5 -203.5,460 -203.5,460 0,0 -123.1,1334.6 -217.9,1690.1 -94.8,355.6 -367.4,1967.5 -367.4,1967.5 l -936.4,-23.7 c 0,0 651.9,-1694.9 699.3,-1979.3 47.4,-284.5 619.5,-1665 619.5,-1665 -45.1,-117.9 72.8,-277.4 72.8,-277.4 53.9,-147.7 180.2,-213.9 277.7,-243.4 42.1,-12.8 78,33.1 55.9,71.2" style="fill:#c0783d;fill-opacity:1;fill-rule:nonzero;stroke:none" id="path176"/><path d="m 28226.4,7301.1 166.4,-494.1 c 0,0 556.6,72.8 910.3,-46.8 l -72.8,546.1 -1003.9,-5.2" style="fill:#ca5f00;fill-opacity:1;fill-rule:nonzero;stroke:none" id="path178"/><path d="m 32223.4,7517.1 c 0,0 -25.3,-234.5 -127.8,-276.2 0,0 125.4,161 83,290.4 -42.4,129.4 -270.8,203.1 -345.7,203 -74.9,-0.1 -315.3,-75 -334.9,-157.7 -7.4,-31.3 -4.9,-67.3 1,-99.8 -34.5,21.5 -72.5,42.6 -114.9,62.6 -392.4,185.6 -771.5,-14.8 -727.5,-175.2 28.2,-102.9 -147.5,-134.1 -147.5,-134.1 l 823.2,-993.4 c 0,0 757.8,377 538.7,776.4 29,1.4 341.5,27.5 352.4,504" style="fill:#942e2a;fill-opacity:1;fill-rule:nonzero;stroke:none" id="path180"/><path d="m 29789.4,6801.9 c -1.6,-2.1 -64.8,249.2 21.1,406.6 80.6,148 181.2,336.1 181.1,333.8 -2.5,-70.2 214.2,-244.5 610.4,-336.8 l -13.1,-28.9 -221.6,-485.7 c 0,0 -157.6,49.5 -308.6,85.7 -126.7,30.3 -248.9,51.1 -269.3,25.3" style="fill:#ce8e55;fill-opacity:1;fill-rule:nonzero;stroke:none" id="path182"/><path d="m 30367.3,6690.9 c 0,0 -157.6,49.5 -308.6,85.7 75.6,283.2 371.4,372.3 530.2,400 l -221.6,-485.7" style="fill:#c0783d;fill-opacity:1;fill-rule:nonzero;stroke:none" id="path184"/><path d="m 30656.8,7216.1 c 0,0 271.5,93.5 481.9,81.6 150.2,-8.5 667.1,-208.4 463,-727.1 0,0 -52.3,-152.3 -186,-275.4 -106.3,-98 -316.1,-226 -737.8,72.5 l -145.9,86.1 124.8,762.3" style="fill:#942e2a;fill-opacity:1;fill-rule:nonzero;stroke:none" id="path186"/><path d="m 30201.7,6629.5 c 0,0 148.6,677.3 569,578.3 420.3,-99 722.6,-78.3 645.5,-514.9 -77.1,-436.6 -257.2,-482.6 -405.5,-483.6 -148.4,-1.1 -836.8,241.5 -809,420.2" style="fill:#ce8e55;fill-opacity:1;fill-rule:nonzero;stroke:none" id="path188"/><path d="m 31353.8,6383.2 c 0,0 -449.3,301.4 -455.1,602.2 -5.8,300.7 99.2,405.7 99.2,405.7 0,0 121.3,-258.4 412.2,-374.9 0,0 211.3,-549.2 -56.3,-633" style="fill:#942e2a;fill-opacity:1;fill-rule:nonzero;stroke:none" id="path190"/><path d="m 25471.6,5320.9 c -2.1,26 -4.1,51.6 -5.8,76.7 1.7,-25.3 3.7,-50.9 5.8,-76.7" style="fill:#739cf3;fill-opacity:1;fill-rule:nonzero;stroke:none" id="path192"/><path d="m 26984.1,9183.3 c -45.4,-100 -89.3,-217.6 -131.6,-349.8 -37.3,-117 -73.2,-245.4 -108,-382.7 -5.3,-21.1 -10.6,-42.3 -15.8,-63.9 -91.9,-375.6 -174.4,-813.6 -247.1,-1269.7 -47.3,-296.1 -90.3,-599.7 -129.4,-898.9 -0.6,-5.1 -1.3,-10.3 -1.9,-15.4 -35.8,-275.8 -68.2,-547.7 -96.9,-806 -376.2,-104.6 -642.9,-51.9 -787.6,0.7 -24,347.9 -12.7,648.6 68.9,796.8 152.4,277.2 -310.6,2471.4 17,3188.1 327.6,716.7 1209.6,365.2 1209.6,365.2 l 222.8,-564.4" style="fill:#739cf3;fill-opacity:1;fill-rule:nonzero;stroke:none" id="path194"/><path d="m 30781,3111.6 c -94.1,162.5 -203.5,460 -203.5,460 0,0 -222.5,1350.5 -317.3,1706.1 -94.8,355.6 -247.2,1951.5 -247.2,1951.5 l -936.3,-23.7 c 0,0 651.9,-1694.9 699.3,-1979.3 47.4,-284.5 598.6,-1665 598.6,-1665 -45,-117.9 72.9,-277.4 72.9,-277.4 53.9,-147.7 180.1,-213.9 277.6,-243.4 42.1,-12.8 78,33.1 55.9,71.2" style="fill:#ce8e55;fill-opacity:1;fill-rule:nonzero;stroke:none" id="path196"/><path d="m 30078.2,7441.6 c -0.8,1 -1.9,1.9 -2.8,2.8 -6.2,50.1 -25.2,104.4 -59.7,163.6 -316.9,544.2 -1110.3,1110.4 -1994.6,1573.4 l -1243,544.8 c -206.6,93.8 277.9,-1064 277.9,-1064 33.6,-36.4 65.5,-73.8 96.2,-112.1 134.2,-167.2 243,-348.6 355.1,-524.6 100.6,-157.8 203.8,-311.3 330.2,-446.3 48,-51 99.1,-99.5 154.8,-144.5 153.4,-124.2 285.2,-227.5 392.7,-310.3 224.3,-172.4 508.2,-248.7 788.3,-210 33.1,-64.3 66.4,-141 98.6,-232.3 0,0 457.7,135.3 811.5,15.7 0,0 119.6,587.7 -5.2,743.8" style="fill:#e69d43;fill-opacity:1;fill-rule:nonzero;stroke:none" id="path198"/><path d="m 29111.1,7140.3 c 0,0 -40.6,339.4 -539.4,537.5 -396.7,157.7 -676.7,643.6 -774.8,836.1 -134,624.9 -453,862.7 -453,862.7 l -191.8,-826.5 c 134.2,-167.1 243.1,-348.5 355.2,-524.6 v 0 c 16.2,-25.5 32.6,-50.8 49.1,-76 6.1,-9.4 12.2,-18.6 18.3,-27.9 4.6,-7 9.3,-14 13.9,-21 9.4,-13.9 18.8,-27.7 28.2,-41.5 3.5,-5 6.9,-10 10.4,-15 10.3,-14.9 20.8,-29.7 31.3,-44.4 2.8,-3.9 5.7,-7.8 8.5,-11.7 11.2,-15.4 22.5,-30.7 34,-45.8 2.3,-3.1 4.7,-6.1 7,-9.2 12,-15.7 24.2,-31.3 36.6,-46.6 1.9,-2.4 3.9,-4.8 5.8,-7.1 12.9,-15.9 26,-31.6 39.4,-47.1 1.5,-1.6 3,-3.3 4.4,-5 13.5,-15.5 27.3,-30.8 41.4,-45.9 0.6,-0.7 1.2,-1.4 1.9,-2.1 48,-51 99.1,-99.5 154.8,-144.5 153.4,-124.2 285.2,-227.5 392.7,-310.4 224.6,-172.6 509.1,-248.9 789.7,-209.7 l -63.6,225.7" style="fill:#d57912;fill-opacity:1;fill-rule:nonzero;stroke:none" id="path200"/><path d="m 26852.5,8833.5 c -37.3,-117 -73.2,-245.4 -107.9,-382.7 -5.4,-21.1 -10.7,-42.3 -15.9,-63.9 -91.9,-375.6 -174.4,-813.6 -247.1,-1269.7 -47.3,-296.1 -90.3,-599.7 -129.4,-898.9 -0.6,-5.1 -1.3,-10.3 -1.9,-15.4 -738.8,2746.4 -161.7,2757.5 -161.7,2757.5 l 663.9,-126.9" style="fill:#6488d3;fill-opacity:1;fill-rule:nonzero;stroke:none" id="path202"/><path d="m 27659.4,7119.1 c -11.7,-540.3 -3.1,-1067.6 15,-1544 0.1,-2.4 0.2,-4.8 0.3,-7.2 0.1,-1.4 0.1,-2.8 0.2,-4.2 -330.2,-146.7 -640.4,-138.9 -811.4,-117.3 -0.2,1.1 -0.5,2.3 -0.7,3.4 -0.1,0.5 -0.2,1.1 -0.3,1.6 -60.6,289.3 -83,539.8 -32.1,687.4 66.9,194.3 -165.7,770.3 -325.8,1620.1 l -270.4,395.3 c -234.1,457.7 -255.7,666.8 -176.9,931.1 88.4,296.5 583.7,571 704,662.4 0,0 79,-37 190.7,-85.7 482.8,-210.4 779.5,-706.4 752.6,-1232.4 -19.3,-376 -34.6,-822 -45.2,-1310.5" style="fill:#739cf3;fill-opacity:1;fill-rule:nonzero;stroke:none" id="path204"/><path d="M 26253.4,5396.9 C 26138.8,4368.6 26080.5,3554.5 26080.5,3554.5 L 25825,3275.1 c 0,0 -303.4,1312 -359.2,2122.5 144.7,-52.6 411.4,-105.3 787.6,-0.7" style="fill:#ce8e55;fill-opacity:1;fill-rule:nonzero;stroke:none" id="path206"/><path d="m 25769.9,3025.4 h 146 c 48.9,7.7 85,21.9 135.1,28.4 76.2,10 111.2,-21.2 118.2,-28.4 0.9,-0.9 1.3,-1.4 1.3,-1.4 h 620.1 c 15.6,22.2 0.6,73.8 -14.1,111.8 -9.9,25.8 -31.4,45.4 -58,53 -65.8,19.1 -195.4,36 -314.1,143.5 -66.8,60.3 -322.5,221.9 -322.5,221.9 l -1.4,0.3 c -5.6,-0.1 -32.3,-8.3 -148.6,-106.5 -60.1,-50.7 -162.6,71.6 -162.6,71.6 0,0 -19.3,-15.9 -33.6,-45.6 -11.6,-23.4 -20,-55.6 -13.3,-95.2 9.2,-55.9 -20.6,-159.7 -44.5,-229.9 -14.4,-42.6 -26.6,-72.7 -26.6,-72.7 0,0 -7,-35.1 118.6,-50.8" style="fill:#d8716b;fill-opacity:1;fill-rule:nonzero;stroke:none" id="path208"/><path d="m 25735.7,3474 c 34.8,-24.6 108.4,-72.9 157.2,-79.3 65.8,-8.6 189,159.5 189,159.5 l -1.4,0.3 c -5.6,-0.1 -32.3,-8.3 -148.6,-106.5 -60.1,-50.7 -162.6,71.6 -162.6,71.6 0,0 -19.3,-15.9 -33.6,-45.6" style="fill:#aa3f3a;fill-opacity:1;fill-rule:nonzero;stroke:none" id="path210"/><path d="m 25769.9,3025.4 h 146 c 48.9,7.7 85,21.9 135.1,28.4 76.2,10 111.2,-21.2 118.2,-28.4 0.9,-0.9 1.3,-1.4 1.3,-1.4 h 620.1 c 15.6,22.2 0.6,73.8 -14.1,111.8 -18.8,16.7 -24.1,-72.7 -34.5,-87 -10.4,-14.2 -505.8,-5.2 -534.4,15.6 -28.6,20.8 -114.5,57.2 -234.1,28.6 -104.1,-24.8 -257.6,38.9 -295.6,55.9 -14.4,-42.6 -26.6,-72.7 -26.6,-72.7 0,0 -7,-35.1 118.6,-50.8" style="fill:#aa3f3a;fill-opacity:1;fill-rule:nonzero;stroke:none" id="path212"/><path d="m 27822.6,3533.9 -197.7,-303 c 0,0 -590.8,1402.5 -761.4,2215.5 157.8,-15 459,-36.4 811.4,117.3 44.1,-1162.6 147.7,-2029.8 147.7,-2029.8" style="fill:#ce8e55;fill-opacity:1;fill-rule:nonzero;stroke:none" id="path214"/><path d="m 27507.2,3025.4 h 146 c 48.9,7.7 85,21.9 135.1,28.4 76.2,10 111.3,-21.2 118.2,-28.4 1,-0.9 1.4,-1.4 1.4,-1.4 h 620 c 15.6,22.2 0.6,73.8 -14,111.8 -9.9,25.8 -31.5,45.4 -58.1,53 -65.7,19.1 -195.4,36 -314.1,143.5 -66.7,60.3 -322.5,221.9 -322.5,221.9 l -1.3,0.3 c -5.6,-0.1 -32.4,-8.3 -148.7,-106.5 -60.1,-50.7 -162.6,71.6 -162.6,71.6 0,0 -19.2,-15.9 -33.6,-45.6 -11.5,-23.4 -20,-55.6 -13.3,-95.2 9.3,-55.9 -20.6,-159.7 -44.4,-229.9 -14.5,-42.6 -26.6,-72.7 -26.6,-72.7 0,0 -7,-35.1 118.5,-50.8" style="fill:#d8716b;fill-opacity:1;fill-rule:nonzero;stroke:none" id="path216"/><path d="m 27473,3474 c 34.9,-24.6 108.4,-72.9 157.2,-79.3 65.9,-8.6 189,159.5 189,159.5 l -1.3,0.3 c -5.6,-0.1 -32.4,-8.3 -148.7,-106.5 -60.1,-50.7 -162.6,71.6 -162.6,71.6 0,0 -19.2,-15.9 -33.6,-45.6" style="fill:#aa3f3a;fill-opacity:1;fill-rule:nonzero;stroke:none" id="path218"/><path d="m 27507.2,3025.4 h 146 c 48.9,7.7 85,21.9 135.1,28.4 76.2,10 111.3,-21.2 118.2,-28.4 1,-0.9 1.4,-1.4 1.4,-1.4 h 620 c 15.6,22.2 0.6,73.8 -14,111.8 -18.9,16.7 -24.2,-72.7 -34.6,-87 -10.4,-14.2 -505.8,-5.2 -534.4,15.6 -28.6,20.8 -114.4,57.2 -234.1,28.6 -104.1,-24.8 -257.5,38.9 -295.5,55.9 -14.5,-42.6 -26.6,-72.7 -26.6,-72.7 0,0 -7,-35.1 118.5,-50.8" style="fill:#aa3f3a;fill-opacity:1;fill-rule:nonzero;stroke:none" id="path220"/><path d="M 47425.8,2936.2 H 2777.33 c -23.81,0 -43.3,19.5 -43.3,43.3 v 0 c 0,23.8 19.49,43.3 43.3,43.3 H 47425.8 c 23.8,0 43.3,-19.5 43.3,-43.3 v 0 c 0,-23.8 -19.5,-43.3 -43.3,-43.3" style="fill:#2e3552;fill-opacity:1;fill-rule:nonzero;stroke:none" id="path222"/><path d="m 14680.5,13335 -683.3,-8638.8 -4.5,-57 C 13958.3,4204 13574,3876 13138.7,3910.5 L 11563.4,4035 c -435.4,34.5 -763.3,418.8 -728.9,854.1 l 687.8,8695.7 c 34.5,435.3 418.8,763.3 854.1,728.9 l 723.1,-57.2 852.1,-67.5 c 435.4,-34.3 763.3,-418.6 728.9,-854" style="fill:#e69d43;fill-opacity:1;fill-rule:nonzero;stroke:none" id="path224"/><path d="M 14504.5,4685 V 3403.9 c 0,-211.6 -173.1,-384.7 -384.6,-384.7 H 10698 c -211.5,0 -384.5,173.1 -384.5,384.7 V 4685 c 0,211.5 173,384.5 384.5,384.5 h 3421.9 c 211.5,0 384.6,-173 384.6,-384.5" style="fill:#e2923d;fill-opacity:1;fill-rule:nonzero;stroke:none" id="path226"/><path d="m 14680.5,13335 -683.3,-8638.8 c -470.7,60.9 -904.4,373.3 -904.4,373.3 0,0 507,6314.8 650.5,7729.5 114.2,1125.4 -420.4,1394.5 -643.8,1457.5 l 852.1,-67.5 c 435.4,-34.3 763.3,-418.6 728.9,-854" style="fill:#d57912;fill-opacity:1;fill-rule:nonzero;stroke:none" id="path228"/><path d="M 14504.5,4685 V 3403.9 c 0,-211.6 -173.1,-384.7 -384.6,-384.7 h -405.8 l -621.3,2050.3 h 1027.1 c 211.5,0 384.6,-173 384.6,-384.5" style="fill:#d57912;fill-opacity:1;fill-rule:nonzero;stroke:none" id="path230"/><path d="m 44250.3,5482.8 h -2586.5 c -94.8,0 -172.3,-77.5 -172.3,-172.3 V 3183.7 c 0,-94.8 77.5,-172.3 172.3,-172.3 h 2586.5 c 94.7,0 172.2,77.5 172.2,172.3 v 2126.8 c 0,94.8 -77.5,172.3 -172.2,172.3" style="fill:#d57912;fill-opacity:1;fill-rule:nonzero;stroke:none" id="path232"/><path d="M 42988.3,5482.8 42670.4,4448 41491.5,5257.8 v 52.7 c 0,94.8 77.5,172.3 172.3,172.3 h 1324.5" style="fill:#cb6900;fill-opacity:1;fill-rule:nonzero;stroke:none" id="path234"/><path d="M 45390.6,5482.7 H 42804 c -94.7,0 -172.2,-77.5 -172.2,-172.2 V 3183.7 c 0,-94.7 77.5,-172.2 172.2,-172.2 h 2586.6 c 94.7,0 172.2,77.5 172.2,172.2 v 2126.8 c 0,94.7 -77.5,172.2 -172.2,172.2" style="fill:#e69d43;fill-opacity:1;fill-rule:nonzero;stroke:none" id="path236"/><path d="m 42653,9706.8 c -88.3,-161.7 -308.4,-255.5 -568.6,-326.8 -29,-7.9 -58.4,-15.6 -88.3,-23.1 -456,-113.8 -1066.9,-48.4 -1243.9,-285.5 -196.6,-263.5 -430.6,-1647.1 -430.6,-1647.1 -281.7,-112.1 -278.5,-57.2 -278.5,-57.2 -86.5,374 -93.1,1511.4 -72.6,1824.7 23.4,359.9 762.6,864.9 1398.4,1234.6 485.7,282.6 911.2,486.3 911.2,486.3 13.2,-2.7 26.2,-5.8 38.8,-8.9 560.4,-142.3 577.3,-752.1 334.1,-1197" style="fill:#b9774e;fill-opacity:1;fill-rule:nonzero;stroke:none" id="path238"/><path d="m 42318.9,10903.8 c -60.1,-503.5 -156.7,-1247.4 -234.5,-1523.8 -29,-7.9 -58.4,-15.6 -88.3,-23.1 0,0.3 -0.1,0.8 -0.1,1.1 -87.9,527.6 -531.8,976.9 -627.1,1068.4 485.7,282.6 911.2,486.3 911.2,486.3 13.2,-2.7 26.2,-5.8 38.8,-8.9" style="fill:#6488d3;fill-opacity:1;fill-rule:nonzero;stroke:none" id="path240"/><path d="m 45153.1,6496.8 c -34.9,244.6 -81.5,457.7 -135.6,652.7 -180.7,653 -445.1,1105.3 -636.4,1861.2 -306.6,1199.3 -746.9,2012.7 -1313.9,2210.1 -1.2,0.5 -2.9,0.9 -4.6,1.4 -44.8,13.7 -404.8,134.4 -663.5,539.9 -14,21.9 -27.5,44.5 -40.7,67.9 -27,47.6 -52.5,98.9 -75.7,154 -11,25.4 -21.3,51.5 -31.1,78.3 l -432.9,-730.4 c 0,0 55.7,-138.4 184.2,-365.4 16.2,-28.6 33.6,-58.6 52.1,-89.9 -1.1,-0.1 -2.2,-0.3 -3.3,-0.5 l -108,-180.1 c -146.1,-257.8 -244.3,-864.3 -97,-1267.1 846.7,-2315.2 1246.2,-2310.5 1254.7,-2337.5 5,-16.7 19.3,-35.2 41.6,-55 299.8,-265.1 2041.8,-761.6 2010.1,-539.6" style="fill:#b9774e;fill-opacity:1;fill-rule:nonzero;stroke:none" id="path242"/><path d="m 42002.9,10966.4 c -128.5,227.1 -184.2,365.5 -184.2,365.5 l 432.9,730.4 c 9.8,-26.8 20.1,-52.9 31.1,-78.3 46.3,-186.8 105.2,-641.6 -279.8,-1017.6" style="fill:#af6f4a;fill-opacity:1;fill-rule:nonzero;stroke:none" id="path244"/><path d="m 41732.6,11227.6 c 0,0 764.6,403.3 506.1,875.6 -258.5,472.3 -334,842.5 -833.1,604.9 -499.1,-237.5 -494.5,-469.3 -446.6,-647.9 48,-178.6 568,-925.4 773.6,-832.6" style="fill:#b9774e;fill-opacity:1;fill-rule:nonzero;stroke:none" id="path246"/><path d="m 42256.4,12070.6 c 0,0 -445.3,557.3 -1133.2,178.2 -471.1,-259.7 -483.7,289.4 -477.9,382.3 0,0 370.9,184.4 757.7,363.7 811.9,376.2 862.8,-783.9 853.4,-924.2" style="fill:#2c3a64;fill-opacity:1;fill-rule:nonzero;stroke:none" id="path248"/><path d="m 43311.5,6037.7 c -201.5,-26.9 -494.4,-27.2 -816.4,-17.8 -876.3,25.9 -1974.9,125.2 -2039.3,-48.2 -420.4,-1131.8 -1931.5,-2021.4 -1958.1,-2441.2 4.9,-27.2 -383.8,180.9 -371.6,189.6 0,0 123,51.3 1342.6,3368.7 112,304.4 1384.8,420.5 2154.9,481.9 491.8,39.3 875.4,54.5 875.4,54.5 0,0 524.9,87.5 1062.4,49.9 537.5,-37.5 500,-1537.6 -249.9,-1637.4" style="fill:#af6f4a;fill-opacity:1;fill-rule:nonzero;stroke:none" id="path250"/><path d="m 40043.1,7367.1 c 0,0 380.6,-137.6 542.5,-56.6 161.9,80.9 20.2,290 -87.7,290 -107.9,0 -346.9,-4.1 -454.8,-233.4" style="fill:#9f5e3f;fill-opacity:1;fill-rule:nonzero;stroke:none" id="path252"/><path d="m 43524,6037.7 c -201.6,-26.9 -494.4,-27.2 -816.5,-17.8 78.8,254.4 286.2,712.8 -19.5,1052.5 0,0 -332.6,457.2 -599.7,531.8 491.8,39.3 623.2,21 623.2,21 0,0 525,87.4 1062.5,49.9 537.4,-37.4 499.9,-1537.5 -250,-1637.4" style="fill:#942e2a;fill-opacity:1;fill-rule:nonzero;stroke:none" id="path254"/><path d="m 45017.5,7149.6 -8.7,-7.6 -1865.8,-105.5 c -22.3,19.7 -36.6,38.2 -41.6,54.9 -1.3,4.3 -12.5,7.7 -33.5,19.7 -59.5,33.7 -198.8,135.2 -422.6,513.5 -198.5,335.3 -463.5,888.2 -798.5,1804.3 -147.4,402.9 -49.2,1009.3 96.9,1267 0,0 107,-59.2 240.2,5.5 321.8,156.1 861.1,526.6 883.3,519.4 567,-197.4 1007.3,-1010.9 1313.9,-2210.1 191.2,-755.8 455.6,-1208.2 636.4,-1861.1" style="fill:#739cf3;fill-opacity:1;fill-rule:nonzero;stroke:none" id="path256"/><path d="m 43913.1,9440.4 -914.5,-858.2 -558.5,860.5 205.2,-1818.1 c 223.8,-378.3 363.1,-479.8 422.6,-513.5 516.8,-29.2 1266.9,-17.5 1327,289.3 92.2,471.6 -481.8,2040 -481.8,2040" style="fill:#6488d3;fill-opacity:1;fill-rule:nonzero;stroke:none" id="path258"/><path d="m 44724.7,5542.6 c -1677.6,-399.6 -3244.8,592.3 -3303,309.1 -180.2,-877.4 -1090.7,-2149 -1112,-2300.7 -3.2,-22.4 -401.6,-56.4 -401.6,-56.4 0,0 392.5,3099.2 724.3,3500.6 342.6,414.4 3423.5,247.6 3423.5,247.6 1201.4,238.1 1414.1,-1522.6 668.8,-1700.2" style="fill:#b9774e;fill-opacity:1;fill-rule:nonzero;stroke:none" id="path260"/><path d="m 42754.6,7277.4 c 0,0 819.9,-848.9 911,-932.3 91.1,-83.5 440.2,-53.2 440.2,-53.2 0,0 -382,-50.6 -382,-116.3 0,-65.8 242.8,-764 333.9,-764 91.1,0 769,40.5 930.9,121.4 161.9,81 374.4,981.6 45.6,1700 l -264.4,637.5 c 0,0 -374.9,-548.7 -2015.2,-593.1" style="fill:#a9453d;fill-opacity:1;fill-rule:nonzero;stroke:none" id="path262"/><path d="m 42769.3,8630.3 c -74.9,279.4 -371,442.8 -661.2,364.9 -74.3,-19.9 -140.9,-53.7 -197.8,-97.7 l -114.3,-82.9 c 0,0 -120.8,-306.2 -77.8,-466.2 74.9,-279.3 727.6,-364.7 727.6,-364.7 l 129.6,96 -0.1,0.1 c 166.7,127.6 249.9,341.9 194,550.5" style="fill:#942e2a;fill-opacity:1;fill-rule:nonzero;stroke:none" id="path264"/><path d="m 42660.8,8551.4 c -74.9,279.4 -370.9,442.7 -661.2,364.9 -290.2,-77.8 -464.8,-367.4 -389.9,-646.8 74.9,-279.3 371,-442.7 661.2,-364.9 290.3,77.9 464.9,367.5 389.9,646.8" style="fill:#b84c42;fill-opacity:1;fill-rule:nonzero;stroke:none" id="path266"/><path d="m 42236.4,8415.1 c -5.5,62.4 -81.3,124.1 -162.9,93.9 -33,-12.2 -907.8,-559.7 -907.8,-559.7 l 187.1,-231.7 848.9,606.1 c 0,0 40.2,28.1 34.7,91.4" style="fill:#882529;fill-opacity:1;fill-rule:nonzero;stroke:none" id="path268"/><path d="m 43951.4,7293.7 c -394.8,-394.5 -2205.9,728.6 -2205.9,728.6 l 204.9,356.7 1181.4,-275.8 c -330.5,482.4 -549.7,957.1 -691.7,1339.5 -184.4,495.9 -239.2,836.2 -239.2,836.2 -101.3,404.6 790.2,917 1224.4,505.9 144.8,-137.2 287.3,-526.7 409.2,-1000.6 243.3,-946.7 379.9,-2227.6 116.9,-2490.5" style="fill:#b9774e;fill-opacity:1;fill-rule:nonzero;stroke:none" id="path270"/><path d="m 43785.6,9992 c -417.9,-98.3 -1244.1,-319.1 -1345.5,-549.3 0,0 771,331 1524,-209.9 l -178.5,759.2" style="fill:#af6f4a;fill-opacity:1;fill-rule:nonzero;stroke:none" id="path272"/><path d="m 43842.7,9783.4 c -796.4,74.6 -1319.9,-280.3 -1402.6,-340.7 -184.4,495.9 -239.2,836.2 -239.2,836.2 -101.3,404.6 790.2,917 1224.4,505.9 144.8,-137.2 295.5,-527.5 417.4,-1001.4" style="fill:#739cf3;fill-opacity:1;fill-rule:nonzero;stroke:none" id="path274"/><path d="m 38578,3023.7 h -207 c -69.4,10.9 -120.6,30.9 -191.7,40.2 -108,14.2 -157.7,-30.1 -167.6,-40.2 -1.4,-1.4 -1.9,-2.1 -1.9,-2.1 h -879.5 c -22.1,31.6 -0.9,104.7 19.9,158.6 14.1,36.6 44.6,64.3 82.4,75.3 93.2,27 277.1,51 445.4,203.4 94.8,85.6 457.5,314.8 457.5,314.8 l 1.9,0.4 c 8,-0.1 45.9,-11.8 210.8,-151.1 85.3,-71.8 230.7,101.5 230.7,101.5 0,0 27.3,-22.5 47.6,-64.6 16.4,-33.2 28.4,-78.8 18.9,-135 -13.1,-79.2 29.2,-226.5 63,-326.1 20.5,-60.4 37.8,-103.1 37.8,-103.1 0,0 9.9,-49.8 -168.2,-72" style="fill:#2c3a64;fill-opacity:1;fill-rule:nonzero;stroke:none" id="path276"/><path d="m 38626.5,3659.9 c -49.4,-34.8 -153.7,-103.4 -222.9,-112.4 -93.4,-12.3 -268.1,226.2 -268.1,226.2 l 1.9,0.4 c 8,-0.1 45.9,-11.8 210.8,-151.1 85.3,-71.8 230.7,101.5 230.7,101.5 0,0 27.3,-22.5 47.6,-64.6" style="fill:#aa3f3a;fill-opacity:1;fill-rule:nonzero;stroke:none" id="path278"/><path d="m 38578,3023.7 h -207 c -69.4,10.9 -120.6,30.9 -191.7,40.2 -108,14.2 -157.7,-30.1 -167.6,-40.2 -1.4,-1.4 -1.9,-2.1 -1.9,-2.1 h -879.5 c -22.1,31.6 -0.9,104.7 19.9,158.6 26.8,23.8 34.3,-103.1 49,-123.4 14.8,-20.2 717.5,-7.3 758,22.2 40.6,29.5 162.3,81.1 332,40.6 147.7,-35.3 365.4,55.1 419.2,79.2 20.5,-60.4 37.8,-103.1 37.8,-103.1 0,0 9.9,-49.8 -168.2,-72" style="fill:#aa3f3a;fill-opacity:1;fill-rule:nonzero;stroke:none" id="path280"/><path d="m 40416.2,3023.8 h -218.3 c -73.2,11.5 -127.2,32.6 -202.2,42.4 -113.9,15 -166.3,-31.7 -176.7,-42.4 -1.4,-1.4 -2.1,-2.2 -2.1,-2.2 h -927.4 c -23.3,33.3 -0.9,110.5 21,167.3 14.8,38.6 47,67.8 86.8,79.3 98.4,28.5 292.3,53.9 469.8,214.6 99.9,90.3 482.4,331.9 482.4,331.9 l 2,0.5 c 8.4,-0.2 48.4,-12.4 222.4,-159.4 89.9,-75.7 243.2,107.1 243.2,107.1 0,0 28.8,-23.8 50.3,-68.1 17.3,-35.1 29.9,-83.1 19.9,-142.4 -13.8,-83.6 30.8,-238.9 66.5,-343.9 21.6,-63.7 39.8,-108.8 39.8,-108.8 0,0 10.4,-52.4 -177.4,-75.9" style="fill:#2c3a64;fill-opacity:1;fill-rule:nonzero;stroke:none" id="path282"/><path d="m 40467.4,3694.8 c -52.1,-36.8 -162.2,-109.1 -235.1,-118.6 -98.5,-12.9 -282.8,238.5 -282.8,238.5 l 2,0.5 c 8.4,-0.2 48.4,-12.4 222.4,-159.4 89.9,-75.7 243.2,107.1 243.2,107.1 0,0 28.8,-23.8 50.3,-68.1" style="fill:#aa3f3a;fill-opacity:1;fill-rule:nonzero;stroke:none" id="path284"/><path d="m 40416.2,3023.8 h -218.3 c -73.2,11.5 -127.2,32.6 -202.2,42.4 -113.9,15 -166.3,-31.7 -176.7,-42.4 -1.4,-1.4 -2.1,-2.2 -2.1,-2.2 h -927.4 c -23.3,33.3 -0.9,110.5 21,167.3 28.2,25 36.1,-108.8 51.7,-130.1 15.5,-21.3 756.5,-7.8 799.3,23.3 42.8,31.1 171.2,85.6 350.2,42.8 155.7,-37.2 385.3,58.2 442.1,83.6 21.6,-63.7 39.8,-108.8 39.8,-108.8 0,0 10.4,-52.4 -177.4,-75.9" style="fill:#aa3f3a;fill-opacity:1;fill-rule:nonzero;stroke:none" id="path286"/><path d="m 42101.3,8129.1 c -81.5,303.9 -403.5,481.6 -719.3,396.9 -80.8,-21.6 -153.2,-58.5 -215.1,-106.2 l -124.4,-90.3 c 0,0 -131.3,-333 -84.6,-507.1 81.5,-303.9 791.5,-396.8 791.5,-396.8 l 141,104.4 -0.1,0.2 c 181.3,138.7 271.9,371.9 211,598.9" style="fill:#942e2a;fill-opacity:1;fill-rule:nonzero;stroke:none" id="path288"/><path d="m 40839.9,7736.6 c -81.5,303.9 108.4,618.9 424.2,703.6 315.7,84.6 637.8,-93.1 719.3,-397 81.5,-303.9 -108.4,-618.9 -424.2,-703.6 -315.8,-84.7 -637.8,93 -719.3,397" style="fill:#b84c42;fill-opacity:1;fill-rule:nonzero;stroke:none" id="path290"/><path d="m 41599.2,7963.3 c -26.4,98.7 -131,156.4 -233.5,128.9 -26.2,-7 -49.8,-19 -69.9,-34.5 l -40.3,-29.3 c 0,0 -42.7,-108.1 -27.5,-164.6 26.4,-98.7 257,-128.8 257,-128.8 l 45.7,33.9 v 0 c 58.9,45.1 88.3,120.8 68.5,194.4" style="fill:#942e2a;fill-opacity:1;fill-rule:nonzero;stroke:none" id="path292"/><path d="m 41560.9,7935.5 c -26.4,98.6 -131,156.3 -233.5,128.9 -102.5,-27.5 -164.2,-129.8 -137.7,-228.5 26.4,-98.7 131,-156.3 233.5,-128.8 102.5,27.4 164.2,129.7 137.7,228.4" style="fill:#ad423e;fill-opacity:1;fill-rule:nonzero;stroke:none" id="path294"/><path d="m 46027.9,4026.6 c -70.4,30.7 -143.6,45.9 -215.5,47 l -141.1,6.5 c 0,0 -285.3,-164 -351.6,-315.8 -115.7,-265.1 341.2,-739 341.2,-739 l 161.2,-5.8 v 0.1 c 209.8,-4.2 408.6,111.3 495,309.3 115.7,265.1 -13.8,577.5 -289.2,697.7" style="fill:#942e2a;fill-opacity:1;fill-rule:nonzero;stroke:none" id="path296"/><path d="m 45893.9,4032.5 c -275.4,120.3 -592.4,2.9 -708.2,-262.2 -115.7,-265.1 13.8,-577.5 289.2,-697.7 275.4,-120.2 592.5,-2.8 708.2,262.3 115.7,265.1 -13.7,577.4 -289.2,697.6" style="fill:#b84c42;fill-opacity:1;fill-rule:nonzero;stroke:none" id="path298"/><path d="m 45697.6,3668.1 c -33.4,11.1 -1058.7,128.9 -1058.7,128.9 l 1.8,-297.8 1041.5,-55.9 c 0,0 49,-3.1 84.1,49.8 34.7,52.2 13.9,147.7 -68.7,175" style="fill:#882529;fill-opacity:1;fill-rule:nonzero;stroke:none" id="path300"/><path d="m 45167.8,4112.8 c -76.7,33.5 -156.3,49.9 -234.5,51.2 l -153.5,7 -0.2,-24.6 c -166.2,-41.4 -310.2,-153.8 -382.3,-318.9 -125.8,-288.4 15,-628.2 314.6,-759 18.8,-8.2 37.7,-15.4 56.8,-21.5 l -0.2,-23.5 175.3,-6.3 v 0.2 c 228.3,-4.7 444.5,121.1 538.5,336.4 125.9,288.4 -14.9,628.2 -314.5,759" style="fill:#942e2a;fill-opacity:1;fill-rule:nonzero;stroke:none" id="path302"/><path d="m 45022,4119.3 c -299.6,130.8 -644.5,3 -770.4,-285.3 -125.9,-288.4 14.9,-628.2 314.6,-759 299.6,-130.8 644.5,-3 770.4,285.3 125.9,288.4 -15,628.2 -314.6,759" style="fill:#b84c42;fill-opacity:1;fill-rule:nonzero;stroke:none" id="path304"/><path d="m 44884.4,3783.9 c -24.9,10.9 -50.7,16.2 -76.1,16.6 l -49.8,2.3 c 0,0 -100.8,-57.9 -124.2,-111.5 -40.9,-93.6 120.5,-261 120.5,-261 l 56.9,-2 v 0 c 74.1,-1.5 144.3,39.3 174.8,109.2 40.9,93.7 -4.8,204 -102.1,246.4" style="fill:#942e2a;fill-opacity:1;fill-rule:nonzero;stroke:none" id="path306"/><path d="m 44837.1,3786 c -97.3,42.5 -209.3,1 -250.1,-92.6 -40.9,-93.6 4.8,-203.9 102.1,-246.4 97.3,-42.5 209.2,-1 250.1,92.6 40.9,93.7 -4.8,204 -102.1,246.4" style="fill:#b84c42;fill-opacity:1;fill-rule:nonzero;stroke:none" id="path308"/><path d="m 17361.2,8412.4 -737.7,51.7 c -109.2,7.7 -204.5,-75.2 -212.2,-184.4 0,0 -3.7,-126.4 -10.7,-321.8 -1.8,-50.5 -3.9,-104.4 -6.4,-163.3 -21.9,-577.7 -58.9,-1515.7 -86.9,-1915.6 -30.3,-408.2 -118.2,-1324.1 -180.7,-1951.3 -5.8,-58.7 -11.4,-114 -16.8,-167.7 -28.2,-281.7 -48.3,-472.8 -48.3,-472.8 -7.7,-109.2 75.1,-204.5 184.3,-212.2 l 737.8,-51.7 c 109.2,-7.6 204.5,75.2 212.1,184.4 0,0 4.9,190.5 11.3,473.7 2.1,53.9 2.7,111.3 3.6,172 17.1,630.4 44.5,1550.5 73,1957.1 28.1,401.7 135.5,1331.3 204.5,1905.7 5.9,60.4 13.3,117.3 18.5,167.6 23.6,192.5 39,316.4 39,316.4 7.7,109.3 -75.1,204.5 -184.4,212.2" style="fill:#d57912;fill-opacity:1;fill-rule:nonzero;stroke:none" id="path310"/><path d="m 17038.6,8435 -415.1,29.1 c -109.2,7.7 -204.5,-75.2 -212.2,-184.4 0,0 -3.7,-126.4 -10.7,-321.8 -1.8,-50.5 -3.9,-104.4 -6.4,-163.3 -21.9,-577.7 -58.9,-1515.7 -86.9,-1915.6 -30.3,-408.2 -118.2,-1324.1 -180.7,-1951.3 -5.8,-58.7 -11.4,-114 -16.8,-167.7 -28.2,-281.7 -48.3,-472.8 -48.3,-472.8 -7.7,-109.2 75.1,-204.5 184.3,-212.2 l 415.1,-29.1 c 109.2,-7.6 204.6,75.2 212.2,184.4 0,0 4.9,190.5 11.2,473.7 2.1,53.9 2.8,111.3 3.7,172 17.1,630.4 44.5,1550.5 72.9,1957.2 28.2,401.6 135.6,1331.3 204.5,1905.6 5.9,60.4 13.3,117.3 18.5,167.6 23.7,192.6 39.1,316.4 39.1,316.4 7.7,109.3 -75.2,204.6 -184.4,212.2" style="fill:#e69d43;fill-opacity:1;fill-rule:nonzero;stroke:none" id="path312"/><path d="m 16421,7959.9 c -6.7,0.4 -13.4,0.9 -20.4,-2 -1.8,-50.5 -3.9,-104.4 -6.4,-163.3 5,-2.1 10,-2.4 15,-2.8 l 1078.9,-75.6 c 5.9,60.4 13.3,117.3 18.5,167.6 l -1085.6,76.1" style="fill:#739cf3;fill-opacity:1;fill-rule:nonzero;stroke:none" id="path314"/><path d="m 16126.6,3927.7 -16.8,-167.7 c 3.2,-1.9 6.6,-2.1 10,-2.4 l 1087.2,-76.2 c 2.1,53.9 2.7,111.3 3.6,172 l -1078.8,75.6 c -1.7,0.2 -3.4,0.3 -5.2,-1.3" style="fill:#739cf3;fill-opacity:1;fill-rule:nonzero;stroke:none" id="path316"/><path d="m 18088,10140.4 c -11.6,0 -21.1,-9.4 -21.1,-21.1 V 7815.2 c 0,-11.6 9.5,-21 21.1,-21 11.6,0 21.1,9.4 21.1,21 v 2304.1 c 0,11.7 -9.5,21.1 -21.1,21.1" style="fill:#adcbff;fill-opacity:1;fill-rule:nonzero;stroke:none" id="path318"/><path d="m 18078.3,7848.6 c -44.8,0 -81.5,-36.8 -81.5,-81.6 v -279 c 0,-44.9 36.7,-81.6 81.5,-81.6 44.9,0 81.6,36.7 81.6,81.6 v 279 c 0,44.8 -36.7,81.6 -81.6,81.6" style="fill:#e69d43;fill-opacity:1;fill-rule:nonzero;stroke:none" id="path320"/><path d="m 18319.6,4169.8 c -44.9,0 -81.6,-36.7 -81.6,-81.6 v -279 c 0,-44.9 36.7,-81.6 81.6,-81.6 44.9,0 81.6,36.7 81.6,81.6 v 279 c 0,44.9 -36.7,81.6 -81.6,81.6" style="fill:#e69d43;fill-opacity:1;fill-rule:nonzero;stroke:none" id="path322"/></g></g></svg>