<?xml version="1.0" encoding="UTF-8" standalone="no"?>
<svg
   xmlns:dc="http://purl.org/dc/elements/1.1/"
   xmlns:cc="http://creativecommons.org/ns#"
   xmlns:rdf="http://www.w3.org/1999/02/22-rdf-syntax-ns#"
   xmlns:svg="http://www.w3.org/2000/svg"
   xmlns="http://www.w3.org/2000/svg"
   xmlns:sodipodi="http://sodipodi.sourceforge.net/DTD/sodipodi-0.dtd"
   xmlns:inkscape="http://www.inkscape.org/namespaces/inkscape"
   version="1.1"
   id="svg2"
   xml:space="preserve"
   width="3466.6667"
   height="2666.6667"
   viewBox="0 0 3466.6667 2666.6667"
   sodipodi:docname="8601.eps"><metadata
     id="metadata8"><rdf:RDF><cc:Work
         rdf:about=""><dc:format>image/svg+xml</dc:format><dc:type
           rdf:resource="http://purl.org/dc/dcmitype/StillImage" /></cc:Work></rdf:RDF></metadata><defs
     id="defs6" /><sodipodi:namedview
     pagecolor="#ffffff"
     bordercolor="#666666"
     borderopacity="1"
     objecttolerance="10"
     gridtolerance="10"
     guidetolerance="10"
     inkscape:pageopacity="0"
     inkscape:pageshadow="2"
     inkscape:window-width="640"
     inkscape:window-height="480"
     id="namedview4" /><g
     id="g10"
     inkscape:groupmode="layer"
     inkscape:label="ink_ext_XXXXXX"
     transform="matrix(1.3333333,0,0,-1.3333333,0,2666.6667)"><g
       id="g12"
       transform="scale(0.1)"><path
         d="M 26000,0 H 0 V 20000 H 26000 V 0"
         style="fill:#ffffff;fill-opacity:1;fill-rule:nonzero;stroke:none"
         id="path14" /><path
         d="m 15028.9,2191.2 c 0,0 1861.1,917.7 2181.2,1396.3 320,478.6 -150.5,505.7 -150.5,505.7 0,0 830.6,807.8 713.7,1147.8 -116.8,340.1 -547.1,28.2 -547.1,28.2 0,0 534.1,1188.8 282.3,1308.3 -469,222.6 -1127,-1056.5 -1127,-1056.5 0,0 141.4,555.7 -181.6,537.6 -487,-27.2 -466.9,-1284.1 -466.9,-1284.1 0,0 -55,481.9 -348.6,325.4 -526.7,-280.9 -355.5,-2908.7 -355.5,-2908.7"
         style="fill:#355389;fill-opacity:1;fill-rule:nonzero;stroke:none"
         id="path16" /><path
         d="m 15278.4,5294.3 c 229.3,127.2 457.6,-244.6 457.6,-244.6 0,0 -23.1,981.7 463.9,1008.9 323,18.1 181.6,-537.6 181.6,-537.6 0,0 658,1279.1 1127,1056.5 L 15026.7,2211.7 c -17.5,304.8 -202.4,2830.6 251.7,3082.6"
         style="fill:#466eb6;fill-opacity:1;fill-rule:nonzero;stroke:none"
         id="path18" /><path
         d="m 15077,2179.9 c 0,0 1522.1,-189.1 1916.2,-20.6 394.2,168.4 111.7,376.5 111.7,376.5 0,0 846.3,166.4 911.6,426 65.2,259.5 -325.1,238.9 -325.1,238.9 0,0 811.4,525.4 702.9,702.3 -202.1,329.4 -1132.2,-201 -1132.2,-201 0,0 314,289.1 105.2,409.1 -314.9,180.9 -813,-611.3 -813,-611.3 0,0 30.9,195.3 -215.8,216.9 C 15895.8,3755.6 15077,2179.9 15077,2179.9"
         style="fill:#355389;fill-opacity:1;fill-rule:nonzero;stroke:none"
         id="path20" /><path
         d="m 16328.5,3858.6 c 246.7,-21.6 225.8,-358.8 225.8,-358.8 0,0 507.1,939 822,758.1 208.8,-120 -38.2,-514 -38.2,-514 0,0 854.1,488.5 1056.2,159.1 L 15072.4,2188.3 c 112.9,197.3 842.6,1706.6 1256.1,1670.3"
         style="fill:#466eb6;fill-opacity:1;fill-rule:nonzero;stroke:none"
         id="path22" /><path
         d="m 11098.1,2239.2 c 0,0 -1861.08,917.7 -2181.15,1396.3 -320.07,478.6 150.43,505.7 150.43,505.7 0,0 -830.53,807.8 -713.69,1147.8 116.86,340.1 552.89,15.1 552.89,15.1 0,0 -539.83,1201.9 -288.03,1321.4 469.01,222.6 1126.96,-1056.5 1126.96,-1056.5 0,0 -141.4,555.7 181.57,537.6 487.02,-27.2 466.92,-1284.1 466.92,-1284.1 0,0 55,481.9 348.6,325.3 526.7,-280.8 355.5,-2908.6 355.5,-2908.6"
         style="fill:#355389;fill-opacity:1;fill-rule:nonzero;stroke:none"
         id="path24" /><path
         d="m 10848.6,5342.3 c -229.3,127.2 -457.6,-244.6 -457.6,-244.6 0,0 23.1,981.7 -463.92,1008.9 -322.97,18.1 -181.57,-537.6 -181.57,-537.6 0,0 -657.95,1279.1 -1126.96,1056.5 L 11100.3,2259.6 c 17.5,304.9 202.4,2830.7 -251.7,3082.7"
         style="fill:#466eb6;fill-opacity:1;fill-rule:nonzero;stroke:none"
         id="path26" /><path
         d="m 11050,2227.8 c 0,0 -1522.11,-189 -1916.23,-20.6 -394.11,168.5 -111.67,376.6 -111.67,376.6 0,0 -846.26,166.4 -911.55,425.9 -65.29,259.6 338.71,234.1 338.71,234.1 0,0 -825.07,530.3 -716.57,707.2 202.09,329.4 1132.21,-201.1 1132.21,-201.1 0,0 -313.97,289.2 -105.19,409.1 314.86,181 813.04,-611.2 813.04,-611.2 0,0 -30.94,195.3 215.78,216.9 C 10231.2,3803.5 11050,2227.8 11050,2227.8"
         style="fill:#355389;fill-opacity:1;fill-rule:nonzero;stroke:none"
         id="path28" /><path
         d="m 9762.55,4029.2 c -246.72,-21.7 -242.86,-261.3 -242.86,-261.3 0,0 -454.12,718.9 -768.99,538 -208.79,-120 38.23,-514 38.23,-514 0,0 -854.15,488.5 -1056.24,159.1 L 11054.7,2236.3 c -113,197.3 -878.7,1829.1 -1292.15,1792.9"
         style="fill:#466eb6;fill-opacity:1;fill-rule:nonzero;stroke:none"
         id="path30" /><path
         d="m 19938.2,6698.7 c 45.8,110.2 92.4,220.6 211.2,276.4 96.1,45.2 196.6,28.2 282,-36.1 242.1,-182 31.2,-382.6 306.7,-727.7 85.6,-107.3 189.3,-193.9 240.6,-319.6 71.8,-175.9 -13.7,-260.4 -150.8,-344.7 -655.9,-403.1 -999.7,424.7 -987.4,614 9.2,140.9 68.3,466.7 97.7,537.7"
         style="fill:#13375b;fill-opacity:1;fill-rule:nonzero;stroke:none"
         id="path32" /><path
         d="m 19543.3,3028 c 32.4,-146.2 83.3,-274.2 90.1,-289.2 3.3,-7.2 33.5,-33 37.1,-40.4 -9.5,-180.1 -120.2,-290.7 -225,-370.4 20.2,91.3 68.5,197 61.1,216.9 -11.8,31.7 -58.4,176.6 -153.2,357.5 89.1,13.2 119,68.6 189.9,125.6"
         style="fill:#f7a491;fill-opacity:1;fill-rule:nonzero;stroke:none"
         id="path34" /><path
         d="m 19948.1,5166.9 558.4,-424.1 c 0,0 -276.5,-266 -380.2,-364.8 -103.7,-98.9 -743.5,-559.2 -752.6,-581.9 -6.7,-16.8 145.6,-546 243.8,-828.5 -59,-60.3 -189,-119.4 -265.9,-138.9 -193.6,369.4 -431.5,999.8 -431.5,1085.4 0,139.4 1028,1252.8 1028,1252.8"
         style="fill:#355389;fill-opacity:1;fill-rule:nonzero;stroke:none"
         id="path36" /><path
         d="m 21514.4,4320.8 c -18.2,-17.8 -139.4,-253.9 -185.6,-380.3 -67.5,42.5 -108.3,93.2 -183.7,121.8 59.5,86.1 175.5,293.4 185.1,342.7 22.6,117 49.2,134.2 49.2,134.2 0,0 392.2,-132.7 418.4,-169.9 26.1,-37.2 -210,23 -283.4,-48.5"
         style="fill:#f7a491;fill-opacity:1;fill-rule:nonzero;stroke:none"
         id="path38" /><path
         d="m 21325.6,4379 c -30.4,-0.1 2.6,137.5 9.6,169.2 7.9,35.6 28.5,46.3 33.6,47.6 13.9,3.4 449.9,-144.1 523.6,-197.1 4.9,-3.6 13.9,-14.9 15.3,-17.5 40.3,-75.2 -319.1,-89.5 -370.8,-56.6 -46,29.2 -74.4,54.8 -211.3,54.4"
         style="fill:#3c8f7c;fill-opacity:1;fill-rule:nonzero;stroke:none"
         id="path40" /><path
         d="m 19828.9,5041.7 c 0,0 487.3,196.9 487.4,196.9 -2,-0.8 2.9,-19.8 3.3,-21.3 45.7,-177.9 289.6,-109.3 390.3,-418.4 71.1,-218.4 175.2,-1035.2 175.2,-1035.2 0,0 73.8,140.4 303.1,398.8 17.8,20 243.7,-135.2 243.7,-135.2 -168,-445.4 -580.5,-807.3 -636.4,-781.7 -377.4,173.2 -830.7,1539.3 -830.1,1539.2 -42.9,83.6 -136.5,256.9 -136.5,256.9"
         style="fill:#466eb6;fill-opacity:1;fill-rule:nonzero;stroke:none"
         id="path42" /><path
         d="m 19810.9,6479.4 c 0,0 -228.6,361.9 -268.4,482.3 -39.7,120.3 -0.3,693.7 3.5,734.5 3.7,40.7 141.9,152.1 120.1,184.1 -21.7,32.1 -212.4,58.2 -244.4,51.9 -32,-6.2 -94.3,-0.5 -119.7,-26.3 -3.3,-3.4 60.7,-154.3 59.3,-177.7 -9.1,-159.8 -99.8,-668.5 -70.1,-806.1 34.2,-158.1 373.6,-663.6 373.6,-663.6 l 146.1,220.9"
         style="fill:#f7a491;fill-opacity:1;fill-rule:nonzero;stroke:none"
         id="path44" /><path
         d="m 20641,6268.6 c 0,0 611.5,-15.2 745.7,-26.2 134.3,-11 621.4,29.5 640.3,31.7 18.9,2.2 143.7,213.5 164.4,190.8 20.7,-22.7 -69.4,-104.8 -41.5,-126.1 27.9,-21.3 327.5,26.4 323.5,4.3 -7.4,-41.5 -182.2,-36.2 -182.1,-56.2 0.2,-20 183,11.2 195.4,-22 12.4,-33.2 -175.8,-13.5 -183.4,-28.3 -7.5,-14.9 174.6,-42 156,-72.9 -10.1,-16.8 -161.3,28 -160.6,5.1 0.7,-22.8 111.1,-74.9 97.5,-93.1 -13.5,-18.2 -86.6,55.9 -150.6,56.8 -64,1 -109.8,34.4 -212,6.3 -102.2,-28 -450.4,-168.4 -668.5,-158.1 -218,10.3 -699.7,31.8 -699.7,31.8 l -24.4,256.1"
         style="fill:#f7a491;fill-opacity:1;fill-rule:nonzero;stroke:none"
         id="path46" /><path
         d="m 19743.4,5630 c -8.3,100.9 -22.4,373.1 -17.8,406.5 -30.5,104.8 -141.8,260.1 -165.2,304 0,0 151,171.1 263,169.6 0,0 119.1,-150.4 207.5,-196.5 1.3,0.3 31.3,-13.3 44.5,-13.3 85.3,0.6 383.6,9.7 439.2,-6.9 l -31.5,-460.9 c -16,-26.4 -35.5,-556.4 -68.5,-600 -33,-43.6 -513.1,-242.2 -592.7,-190.9 -3.1,2 -61.6,384.6 -78.5,588.4"
         style="fill:#50bfa5;fill-opacity:1;fill-rule:nonzero;stroke:none"
         id="path48" /><path
         d="m 20359.3,6282.7 c 55,26.3 456.9,25.4 456.9,25.4 0,0 55.7,-277.2 10.7,-343.9 0,0 -356,-52.9 -345.8,-82.1 l -121.8,400.6"
         style="fill:#50bfa5;fill-opacity:1;fill-rule:nonzero;stroke:none"
         id="path50" /><path
         d="m 20269.9,6470.1 c 0,0 -30.9,-159.9 -24.7,-223 6.2,-63.1 -23.6,-266.3 -157.1,-267 -133.5,-0.7 -25.3,258.4 -12.7,320.2 12.5,61.8 15.5,253.2 15.5,253.2 l 179,-83.4"
         style="fill:#f7a491;fill-opacity:1;fill-rule:nonzero;stroke:none"
         id="path52" /><path
         d="m 20088.2,6457.5 c 2,52.3 2.7,96 2.7,96 l 179,-83.4 c 0,0 -6.3,-32.7 -12.7,-74.4 -78.3,-15.7 -135.1,13.3 -169,61.8"
         style="fill:#f47458;fill-opacity:1;fill-rule:nonzero;stroke:none"
         id="path54" /><path
         d="m 20335.4,6911.3 c 0,0 68.9,-38.2 94.2,-121.2 25.2,-82.9 -3.5,-296.9 -181.7,-348.6 -178.2,-51.6 -255.4,117.8 -218.7,250.3 36.7,132.5 116.5,300.3 306.2,219.5"
         style="fill:#f7a491;fill-opacity:1;fill-rule:nonzero;stroke:none"
         id="path56" /><path
         d="m 20006.9,6743.2 c 3.5,-35.6 23.1,-62.8 43.9,-60.8 20.7,2.1 34.7,32.6 31.2,68.2 -3.5,35.5 -23.1,62.7 -43.9,60.7 -20.7,-2 -34.7,-32.5 -31.2,-68.1"
         style="fill:#f7a491;fill-opacity:1;fill-rule:nonzero;stroke:none"
         id="path58" /><path
         d="m 19635,2734.4 c 10.2,28.7 126.9,-57.5 154.3,-74.8 30.9,-19.5 33.9,-42.5 33.4,-47.8 -1.5,-13.9 -278.2,-379.8 -361,-431.9 -7.8,-4.9 -24.6,-5.6 -29.6,-3.9 -47.6,16.5 18.7,310.3 78.4,370 38.5,38.5 78.3,59.6 124.5,188.4"
         style="fill:#3c8f7c;fill-opacity:1;fill-rule:nonzero;stroke:none"
         id="path60" /><path
         d="m 20650.2,8201.8 -490.9,-174.5 c -25,-8.9 -44,-29.6 -50.9,-55.3 l -134.3,-504.7 c -17.3,-64.7 -101.1,-81.4 -141.9,-28.2 l -317.9,414.5 c -16.2,21.1 -41.7,32.9 -68.2,31.5 l -520.3,-27.1 c -66.8,-3.5 -108.6,71.3 -70.9,126.6 l 294.5,430.7 c 15,21.9 18.3,49.9 8.7,74.7 l -187.2,488 c -24,62.6 33.9,125.5 98,106.5 l 499.9,-148.3 c 25.5,-7.6 53,-2.1 73.6,14.6 l 404.6,328.7 c 51.9,42.2 129.6,6.3 131.5,-60.7 l 14.4,-522.4 c 0.8,-26.6 14.5,-51.2 36.8,-65.7 l 437.3,-284.8 c 56.1,-36.6 46.2,-121.7 -16.8,-144.1"
         style="fill:#f7cc7f;fill-opacity:1;fill-rule:nonzero;stroke:none"
         id="path62" /><path
         d="m 19662.8,7875.3 c 18.3,-26.9 -80.9,-112.1 -108.4,-159.2 l -62.3,84.9 c 30.7,6 149.8,105 170.7,74.3"
         style="fill:#f7a491;fill-opacity:1;fill-rule:nonzero;stroke:none"
         id="path64" /><path
         d="m 20314.5,6922.1 c 0,0 32.3,-238.7 109.5,-281.8 77.2,-43.1 44.8,-149 44.8,-149 0,0 70.1,245.9 9,324.9 -61,79 -163.3,105.9 -163.3,105.9"
         style="fill:#13375b;fill-opacity:1;fill-rule:nonzero;stroke:none"
         id="path66" /><path
         d="m 20378.3,6606 c -21,-31.1 -20.9,-67.8 0.1,-81.9 21,-14.1 55.1,-0.4 76,30.7 20.9,31.1 20.8,67.8 -0.2,81.9 -21,14.2 -55,0.4 -75.9,-30.7"
         style="fill:#f7a491;fill-opacity:1;fill-rule:nonzero;stroke:none"
         id="path68" /><path
         d="m 19512.9,7855.3 c 0.4,-0.6 1,-1.1 1.4,-1.7 l 22.6,-29.5 c -16.6,4.5 -48.2,13.5 -79.1,-7.6 0,0 10.2,21.8 55.1,38.8"
         style="fill:#f47257;fill-opacity:1;fill-rule:nonzero;stroke:none"
         id="path70" /><path
         d="m 6097.42,5202.4 c 6.01,-2.5 -79.51,-112.8 -162.83,-190.7 -67.18,-84.3 -130.19,-184.1 -151.87,-292.9 -32.97,-165.5 -5.54,-982.8 -34.24,-1041 -246.53,-241 -425.05,-845.9 -475.16,-1030.4 -9.77,-36 -29.56,-68.4 -56.99,-93.6 v 0 l 10.97,-208.6 122.49,-112.8 c 0,0 -27.25,169.9 27.2,296 0,0 620.7,940 657.55,1011.8 70.39,204.6 326.74,1253 326.74,1253 l 59.5,241 c 0,0 -322.85,168 -323.36,168.2"
         style="fill:#f7a491;fill-opacity:1;fill-rule:nonzero;stroke:none"
         id="path72" /><path
         d="m 5082.15,2486.7 c 0,0 77.52,-119.5 84.15,-166.1 6.62,-46.5 47.91,-152.1 93.59,-158.8 10.37,-1.5 187.99,-14.6 186.7,7.6 -0.99,17 -65.29,41.2 -95.14,61.9 -51.61,35.6 -131.7,325.9 -131.7,325.9 0,0 -134.25,-33.3 -137.6,-70.5"
         style="fill:#f47458;fill-opacity:1;fill-rule:nonzero;stroke:none"
         id="path74" /><path
         d="m 6627.94,4840.1 c 0,0 399.79,-854.8 402.34,-1005.1 2.18,-128.8 -69.88,-851.6 -49.76,-1453.5 0.72,-21.8 28.24,-50.6 68.31,-69 22.55,-10.3 131.41,-59 131.41,-59 l 14.97,-38.9 -374.96,26.7 -5.34,102.4 c 0,0 -149.23,900.4 -134.01,1155 2.39,40 21.83,279.6 21.83,279.6 l -450.86,870.5 283.56,372.6 92.51,-181.3"
         style="fill:#f7a491;fill-opacity:1;fill-rule:nonzero;stroke:none"
         id="path76" /><path
         d="m 6665.45,6758.7 c -60.58,161.4 -218.83,259.2 -383.63,229 -50.57,81.6 -134.9,142.2 -226.61,161.8 -180.96,38.8 -425.65,-32.7 -419.05,-224.3 -70.19,-128.7 -72.9,-312.7 34.52,-410.6 -37.37,-173.1 124.73,-340.4 335.45,-334.3 73.38,-121.1 213.19,-198.9 352.21,-182.3 33.37,4 84.25,12.3 92.69,10.3 -10.6,1.9 223.32,-177.4 421.53,98.4 202.26,281.4 60.15,622 -207.11,652"
         style="fill:#355389;fill-opacity:1;fill-rule:nonzero;stroke:none"
         id="path78" /><path
         d="m 6641.51,7726.8 c 9.76,23.1 21.82,45.2 36,65.9 l 15.61,22.8 c 1.92,4.1 3.43,7.5 4.2,9.7 6.83,20.2 1.61,85.2 1.61,85.2 l -136.76,-33.1 -30,-79 c -30.45,14.1 -82.43,119.9 -101.42,94.5 -22.43,-30 62.05,-160.1 68.74,-195.3 6.68,-35.3 -72.65,-582.2 -95.55,-690.8 -22.9,-108.6 -177.68,-411.8 -177.68,-411.8 l 141.55,-179.7 c 0,0 226.91,462.3 241.84,603.5 1.57,14.8 3.34,37 5.23,64.5 l 26.63,643.6"
         style="fill:#f7a491;fill-opacity:1;fill-rule:nonzero;stroke:none"
         id="path80" /><path
         d="m 5698.76,6014.1 -168.08,142.5 c 0,0 -136.08,-226.9 -245.09,-411.9 -108.15,39.1 -387.58,221.2 -401.36,229.6 -13.83,8.4 -44.45,214.3 -68.12,203.4 -23.68,-11 18.19,-108.7 -10.54,-116 -28.72,-7.3 -243.87,136.5 -248.29,117.3 -8.26,-36 128.44,-93.2 121.55,-109.3 -6.9,-16 -137.42,73.4 -158.21,51.1 -20.8,-22.3 131.12,-72.8 131.91,-87.3 0.79,-14.6 -148.92,27.7 -144.98,-3.7 2.14,-17 133.99,-34.2 125.69,-52.4 -8.29,-18.1 -111.02,-21.1 -106.74,-40.5 4.29,-19.4 85.73,14.5 135.44,-7.3 49.72,-21.8 96.38,-11.1 165.77,-69.6 69.34,-58.4 410.23,-392.1 516.46,-363.5 92.74,25 354.59,517.6 354.59,517.6"
         style="fill:#f7a491;fill-opacity:1;fill-rule:nonzero;stroke:none"
         id="path82" /><path
         d="m 5711.55,3813.3 c 0.07,-0.2 0.12,-0.2 0.15,0 -0.02,0 -0.15,0 -0.15,0"
         style="fill:#f47458;fill-opacity:1;fill-rule:nonzero;stroke:none"
         id="path84" /><path
         d="m 6283.41,6226.1 c 10.76,65.7 112.46,230.2 128.51,270.5 0,0 -117.91,149.9 -213.63,138.5 0,0 -128.63,-213.2 -201.77,-220.4 -73.13,-7.1 -330.37,-18.3 -375.46,-45.6 -45.09,-27.4 -236.43,-321.2 -236.43,-321.2 0,0 171.94,-175.6 241.11,-175.2 0,0 36.77,72.4 51.42,88.2 10.42,-33.6 170.61,-552.6 170.39,-670.2 l 1.23,-1 c 149.76,-121.5 368.25,-93.4 483.74,62.2 v 0 c 0,0 -13.57,161.8 -5.87,311 12.06,233.7 59.37,357.9 -43.24,563.2"
         style="fill:#f47458;fill-opacity:1;fill-rule:nonzero;stroke:none"
         id="path86" /><path
         d="m 7117.21,4218.2 -784.69,1133.7 c -48.4,-19.6 -94.14,-36.7 -145.87,-46.7 -112.51,-21.7 -225.19,-18.2 -339.1,-14.5 -0.01,-4.3 -0.23,-8 -0.67,-11.1 -13.1,-93.5 -137.07,-238.2 -162.61,-521.8 -29.01,-321.9 -11.47,-881.1 -1.64,-917.8 521.66,63.4 1286.54,222.9 1434.58,378.2"
         style="fill:#466eb6;fill-opacity:1;fill-rule:nonzero;stroke:none"
         id="path88" /><path
         d="m 6659.6,7812 c 0,0 -49.31,-33 -91.19,-22.4 -41.89,10.7 -61.12,26.2 -61.12,26.2 0,0 23.14,-42.2 57.32,-60.6 58.96,-31.6 94.99,56.8 94.99,56.8"
         style="fill:#f47458;fill-opacity:1;fill-rule:nonzero;stroke:none"
         id="path90" /><path
         d="m 5686.63,8045.9 456.25,94.1 c 23.24,4.8 47.28,-2.7 64.27,-19.9 l 333.62,-339.2 c 42.79,-43.5 114.71,-17 121.7,44.9 l 54.45,482.2 c 2.78,24.6 16.95,46.2 37.91,57.7 l 411.49,225.8 c 52.79,29 50.73,108.7 -3.48,134.8 l -422.61,204 c -21.52,10.3 -36.79,31.1 -40.83,55.5 l -79.3,478.8 c -10.17,61.4 -83.36,84.1 -123.85,38.4 l -315.64,-356.3 c -16.08,-18.1 -39.69,-26.8 -63.15,-23.2 l -460.5,70 c -59.07,9 -102.24,-56.6 -73.06,-111 l 227.53,-424.2 c 11.59,-21.6 12.27,-47.7 1.8,-69.9 l -205.3,-435.5 c -26.33,-55.8 20.17,-119.1 78.7,-107"
         style="fill:#f7cc7f;fill-opacity:1;fill-rule:nonzero;stroke:none"
         id="path92" /><path
         d="m 5864.19,6603.7 c 0,0 27.6,-148.6 22.07,-207.2 -5.52,-58.7 21.04,-247.6 140.22,-248.2 119.18,-0.7 22.63,240.2 11.41,297.6 -11.23,57.5 -13.89,235.3 -13.89,235.3 l -159.81,-77.5"
         style="fill:#f7a491;fill-opacity:1;fill-rule:nonzero;stroke:none"
         id="path94" /><path
         d="m 6026.46,6592 c -1.85,48.7 -2.46,89.2 -2.46,89.2 l -159.81,-77.5 c 0,0 5.64,-30.4 11.32,-69.1 69.95,-14.6 120.64,12.3 150.95,57.4"
         style="fill:#f47458;fill-opacity:1;fill-rule:nonzero;stroke:none"
         id="path96" /><path
         d="m 5805.78,7013.9 c 0,0 -61.59,-35.6 -84.1,-112.7 -22.51,-77.1 3.11,-276 162.19,-324 159.08,-48 228,109.5 195.23,232.7 -32.76,123.1 -104.03,279.1 -273.32,204"
         style="fill:#f7a491;fill-opacity:1;fill-rule:nonzero;stroke:none"
         id="path98" /><path
         d="m 6098.99,6857.6 c -3.11,-33.1 -20.64,-58.4 -39.15,-56.5 -18.51,1.9 -30.98,30.3 -27.86,63.4 3.11,33 20.64,58.3 39.15,56.4 18.5,-1.9 30.98,-30.2 27.86,-63.3"
         style="fill:#f7a491;fill-opacity:1;fill-rule:nonzero;stroke:none"
         id="path100" /><path
         d="m 5767.49,6730.1 c 18.68,-28.9 18.61,-63 -0.16,-76.2 -18.77,-13.1 -49.13,-0.3 -67.82,28.6 -18.68,28.9 -18.62,63 0.15,76.2 18.77,13.1 49.14,0.3 67.83,-28.6"
         style="fill:#f7a491;fill-opacity:1;fill-rule:nonzero;stroke:none"
         id="path102" /><path
         d="m 6682.76,7993.5 c -30.85,6 -161.41,-96.5 -160.26,-111.8 1.21,-15.9 128.61,49.7 132.22,39.2 2.83,-8.2 -142.63,-46.3 -135.02,-60.9 5.2,-10 135.69,17.5 139.16,11.1 5.43,-10 -108.88,-14.2 -101.5,-25.3 8.55,-12.8 117.42,-7.5 117.42,-7.5 0,0 21.88,35.2 24.15,48.4 0.96,5.6 1.02,13.5 0.5,22.6 -0.43,7.2 2.78,13.5 1.77,21.6 -4.09,33 -1.39,59.3 -18.44,62.6"
         style="fill:#f7a491;fill-opacity:1;fill-rule:nonzero;stroke:none"
         id="path104" /><path
         d="m 6508.75,7915.1 -48.61,-60.1 -32.06,23.9 c 0,0 -2.67,5 1.07,13.4 3.74,8.3 78.53,45 79.6,22.8"
         style="fill:#f7a491;fill-opacity:1;fill-rule:nonzero;stroke:none"
         id="path106" /><path
         d="m 6818.99,2169.9 h 473.67 c 17.51,1.6 21.78,15.7 15.71,24.4 -12.51,18 -67.76,31.2 -129.87,59.8 -108.95,-11.4 -346.18,63.1 -363.37,88 -9.92,-50 -5.88,-170 3.86,-172.2"
         style="fill:#f47458;fill-opacity:1;fill-rule:nonzero;stroke:none"
         id="path108" /><path
         d="m 6463.62,7859.2 c 0,0 64.29,-39.3 90.9,-85.1 26.61,-45.9 14.33,-84 14.33,-84 l -110.14,135.5 4.91,33.6"
         style="fill:#f7a491;fill-opacity:1;fill-rule:nonzero;stroke:none"
         id="path110" /><path
         d="m 15878.1,13217.7 c -11.4,-53.8 -21.8,-109.4 -49.8,-154.4 -48.1,-58.1 -93.5,-118 -136.6,-179.5 29.7,2.1 59.5,3.5 89.7,3.5 296.6,0 572.6,-104.5 777.2,-294.2 182.9,-169.5 283.5,-386.8 283.5,-611.8 0,-225 -100.6,-442.4 -283.5,-611.9 -204.6,-189.7 -480.6,-294.1 -777.2,-294.1 -295.9,0 -571.3,103.9 -775.6,292.6 -14.9,-44 -29.8,-87.8 -44.6,-131.8 -100,-50.7 -170.3,-170 -170.3,-309.3 0,-185.2 124.3,-335.4 277.6,-335.4 120.6,0 223,93.1 261.3,222.8 141.1,-47 293,-72.9 451.6,-72.9 738.5,0 1337.3,555.1 1337.3,1240 0,654.6 -547.2,1190.4 -1240.6,1236.4"
         style="fill:#e0973f;fill-opacity:1;fill-rule:nonzero;stroke:none"
         id="path112" /><path
         d="m 9880.86,13217.7 c 11.45,-53.8 21.84,-109.4 49.79,-154.4 48.1,-58.1 93.45,-118 136.65,-179.5 -29.7,2.1 -59.5,3.5 -89.68,3.5 -296.66,0 -572.7,-104.5 -777.25,-294.2 -182.85,-169.5 -283.55,-386.8 -283.55,-611.8 0,-225 100.7,-442.4 283.55,-611.9 204.55,-189.7 480.59,-294.1 777.25,-294.1 295.88,0 571.18,103.9 775.58,292.6 14.9,-44 29.7,-87.8 44.5,-131.8 100.1,-50.7 170.4,-170 170.4,-309.3 0,-185.2 -124.3,-335.4 -277.7,-335.4 -120.6,0 -222.9,93.1 -261.2,222.8 -141.1,-47 -293,-72.9 -451.58,-72.9 -738.57,0 -1337.3,555.1 -1337.3,1240 0,654.6 547.2,1190.4 1240.54,1236.4"
         style="fill:#e0973f;fill-opacity:1;fill-rule:nonzero;stroke:none"
         id="path114" /><path
         d="m 16070.5,13358.9 v -342.4 c 0,-1547.1 -1254.5,-2801.6 -2801.6,-2801.6 -712.6,9.5 -1201.5,-64.2 -1878.1,235.3 -974.9,427.5 -1676.66,1407.1 -1676.66,2566.3 v 342.4 h 6356.36"
         style="fill:#f7cc7f;fill-opacity:1;fill-rule:nonzero;stroke:none"
         id="path116" /><path
         d="m 11390.8,10450.2 c 0.7,-0.3 1.4,-0.6 2.1,-0.9 l 1007.1,2909.6 h -1048.4 l -807.2,-2332.5 c 243.8,-241.5 530.8,-437.8 846.4,-576.2"
         style="fill:#fae0b2;fill-opacity:1;fill-rule:nonzero;stroke:none"
         id="path118" /><path
         d="m 12046,10253.9 1062.7,3105 H 12582 l -1019.2,-2978.5 c 169,-62.2 327.6,-101.6 483.2,-126.5"
         style="fill:#fae0b2;fill-opacity:1;fill-rule:nonzero;stroke:none"
         id="path120" /><path
         d="m 10442.3,11132.9 794.7,2226 h -250.4 l -719,-2014 c 54.8,-73.6 113.1,-144.3 174.7,-212"
         style="fill:#fae0b2;fill-opacity:1;fill-rule:nonzero;stroke:none"
         id="path122" /><path
         d="m 15793,13552.9 h -5785.4 c -211.14,0 -383.25,-117.5 -395.39,-265.5 h 6576.19 c -12.2,148 -184.3,265.5 -395.4,265.5"
         style="fill:#f7cc7f;fill-opacity:1;fill-rule:nonzero;stroke:none"
         id="path124" /><path
         d="m 11818.2,10296.9 327.3,-1680.4 h 1431.4 l 405.5,1680.4 h -2164.2"
         style="fill:#f7cc7f;fill-opacity:1;fill-rule:nonzero;stroke:none"
         id="path126" /><path
         d="m 13982.5,10296.8 -91.5,-379.2 h -1998.8 l -74,379.2 h 2164.3"
         style="fill:#b75742;fill-opacity:1;fill-rule:nonzero;stroke:none"
         id="path128" /><path
         d="m 13982.5,6537.7 h -2164.3 l 162.3,834.1 164.9,846.3 H 13577 l 204.4,-846.3 201.1,-834.1"
         style="fill:#f7cc7f;fill-opacity:1;fill-rule:nonzero;stroke:none"
         id="path130" /><path
         d="m 13982.5,6537.7 h -2164.3 l 162.3,834.1 h 1800.9 l 201.1,-834.1"
         style="fill:#b75742;fill-opacity:1;fill-rule:nonzero;stroke:none"
         id="path132" /><path
         d="m 13828,8616.5 h -1933.6 c -85.3,0 -154.5,-69.2 -154.5,-154.5 v -89.4 c 0,-85.3 69.2,-154.5 154.5,-154.5 H 13828 c 85.3,0 154.4,69.2 154.4,154.5 v 89.4 c 0,85.3 -69.1,154.5 -154.4,154.5"
         style="fill:#fae0b2;fill-opacity:1;fill-rule:nonzero;stroke:none"
         id="path134" /><path
         d="m 14142,6651.4 h -2556.4 v 459.2 c 0,49.4 40.1,89.5 89.6,89.5 h 2377.3 c 49.4,0 89.5,-40.1 89.5,-89.5 v -459.2"
         style="fill:#f7cc7f;fill-opacity:1;fill-rule:nonzero;stroke:none"
         id="path136" /><path
         d="m 14986.8,6323.4 v -167 h -4246 v 167 c 0,192.3 117.4,348.5 262,348.5 h 3722 c 144.6,0 262,-156.2 262,-348.5"
         style="fill:#f7cc7f;fill-opacity:1;fill-rule:nonzero;stroke:none"
         id="path138" /><path
         d="m 11740.5,6671.9 -134.4,-515.5 h -177.2 l 134.4,515.5 h 177.2"
         style="fill:#fae0b2;fill-opacity:1;fill-rule:nonzero;stroke:none"
         id="path140" /><path
         d="m 11486.7,6671.9 -134.3,-515.5 H 11175 l 134.5,515.5 h 177.2"
         style="fill:#fae0b2;fill-opacity:1;fill-rule:nonzero;stroke:none"
         id="path142" /><path
         d="m 11966,6671.9 -134.3,-515.5 h -177.4 l 134.5,515.5 h 177.2"
         style="fill:#fae0b2;fill-opacity:1;fill-rule:nonzero;stroke:none"
         id="path144" /><path
         d="M 16567.8,2342.9 V 2176 H 9452.69 v 166.9 c 0,192.4 196.72,348.5 439.14,348.5 h 6236.77 c 242.4,0 439.2,-156.1 439.2,-348.5"
         style="fill:#f7cc7f;fill-opacity:1;fill-rule:nonzero;stroke:none"
         id="path146" /><path
         d="M 11127.8,2691.4 10902.7,2176 h -296.9 l 225.1,515.4 h 296.9"
         style="fill:#fae0b2;fill-opacity:1;fill-rule:nonzero;stroke:none"
         id="path148" /><path
         d="M 10702.7,2691.4 10477.6,2176 h -297.3 l 225.5,515.4 h 296.9"
         style="fill:#fae0b2;fill-opacity:1;fill-rule:nonzero;stroke:none"
         id="path150" /><path
         d="M 11505.8,2691.4 11280.7,2176 h -297.3 l 225.5,515.4 h 296.9"
         style="fill:#fae0b2;fill-opacity:1;fill-rule:nonzero;stroke:none"
         id="path152" /><path
         d="m 14712.8,10614.4 v -126 c 0,-218.2 -176.7,-394.8 -394.5,-394.8 H 11468 c -218.1,0 -394.8,176.6 -394.8,394.8 v 126 h 3639.6"
         style="fill:#f7cc7f;fill-opacity:1;fill-rule:nonzero;stroke:none"
         id="path154" /><path
         d="m 15580.5,2691.4 h -5354.2 l 65.2,3465 h 5217.2 l 71.8,-3465"
         style="fill:#3c8f7c;fill-opacity:1;fill-rule:nonzero;stroke:none"
         id="path156" /><path
         d="m 14307.3,2691.4 h -2807.8 l 34.3,3465 h 2735.8 l 37.7,-3465"
         style="fill:#50bfa5;fill-opacity:1;fill-rule:nonzero;stroke:none"
         id="path158" /><path
         d="M 21365.5,2176 H 3553.06 c -22.27,0 -40.33,-18 -40.33,-40.3 v 0 c 0,-22.3 18.06,-40.3 40.33,-40.3 H 21365.5 c 22.2,0 40.3,18 40.3,40.3 v 0 c 0,22.3 -18.1,40.3 -40.3,40.3"
         style="fill:#184655;fill-opacity:1;fill-rule:nonzero;stroke:none"
         id="path160" /><path
         d="m 13764.6,2795.6 -424.5,693.3 -624,-521.1 642,3909.3 1048.6,-172.2 -642.1,-3909.3"
         style="fill:#b75742;fill-opacity:1;fill-rule:nonzero;stroke:none"
         id="path162" /><path
         d="m 15704.2,2969.8 -625.2,519.6 -422.9,-694.2 -651.1,3907.7 1048.1,174.6 651.1,-3907.7"
         style="fill:#b75742;fill-opacity:1;fill-rule:nonzero;stroke:none"
         id="path164" /><path
         d="m 16567.8,5977.3 c 0,-225.9 -199.2,-417.5 -265.3,-621.3 -68.6,-211.2 -22.5,-482.8 -150.4,-658.6 -129.3,-177.5 -402.7,-217 -580.2,-346.2 -175.8,-128 -297.2,-376.5 -508.4,-445.1 -203.7,-66.2 -447.1,61.4 -672.9,61.4 -225.9,0 -469.2,-127.6 -673,-61.4 -211.2,68.6 -332.5,317.1 -508.3,445.1 -177.6,129.2 -451,168.7 -580.2,346.2 -127.9,175.8 -81.8,447.4 -150.4,658.6 -66.2,203.8 -265.3,395.4 -265.3,621.3 0,225.8 199.1,417.4 265.3,621.2 68.6,211.2 22.5,482.8 150.4,658.6 129.2,177.5 402.6,217 580.2,346.2 175.8,128 297.1,376.6 508.3,445.1 203.8,66.2 447.1,-61.4 673,-61.4 225.8,0 469.2,127.6 672.9,61.4 211.2,-68.5 332.6,-317.1 508.4,-445.1 177.5,-129.2 451,-168.7 580.2,-346.2 127.9,-175.8 81.8,-447.4 150.4,-658.6 66.1,-203.8 265.3,-395.4 265.3,-621.2"
         style="fill:#f47458;fill-opacity:1;fill-rule:nonzero;stroke:none"
         id="path166" /><path
         d="m 14933.1,4045 c -68.4,0 -148.1,17.5 -232.4,36.1 -99.5,21.8 -202.5,44.4 -310.1,44.4 -107.7,0 -210.6,-22.6 -310.2,-44.4 -84.3,-18.6 -163.9,-36 -232.4,-36 -31.5,0 -58.1,3.6 -81.6,11.3 -87.1,28.2 -165.1,116.9 -247.8,210.8 -65.5,74.4 -133.2,151.2 -216.3,211.7 -84.3,61.4 -179.2,102.6 -270.9,142.5 -114,49.6 -221.8,96.5 -274.6,169 -51.9,71.3 -63.3,187.7 -75.4,311 -9.8,99.9 -19.9,203.3 -52.4,303.4 -31.2,96.1 -82.8,183.1 -132.7,267.3 -64.2,108.3 -124.9,210.7 -124.9,305.2 0,94.4 60.6,196.8 124.9,305.1 49.9,84.2 101.5,171.2 132.7,267.3 32.5,100.1 42.6,203.5 52.4,303.5 12.1,123.2 23.6,239.6 75.5,310.9 52.7,72.6 160.5,119.4 274.5,169 91.7,39.9 186.6,81.1 270.9,142.5 83.1,60.5 150.8,137.4 216.3,211.7 82.7,93.9 160.8,182.6 247.8,210.9 23.5,7.6 50.1,11.2 81.6,11.2 68.5,0 148.1,-17.4 232.4,-36 99.6,-21.8 202.5,-44.4 310.2,-44.4 107.6,0 210.6,22.6 310.2,44.4 84.2,18.6 163.9,36 232.4,36 31.4,0 58.1,-3.6 81.5,-11.2 87.1,-28.3 165.2,-117 247.9,-210.9 65.5,-74.3 133.2,-151.2 216.3,-211.7 84.3,-61.4 179.1,-102.6 270.8,-142.5 114.1,-49.6 221.8,-96.5 274.6,-169 51.9,-71.3 63.3,-187.7 75.4,-311 9.8,-99.9 20,-203.3 52.5,-303.4 31.2,-96.1 82.8,-183.2 132.7,-267.3 64.2,-108.3 124.9,-210.7 124.9,-305.1 0,-94.5 -60.7,-196.9 -124.9,-305.2 -49.9,-84.2 -101.5,-171.2 -132.7,-267.3 -32.5,-100.1 -42.7,-203.5 -52.5,-303.4 -12.1,-123.3 -23.5,-239.7 -75.4,-311 -52.8,-72.6 -160.5,-119.4 -274.6,-169 -91.7,-39.9 -186.5,-81.1 -270.8,-142.5 -83.2,-60.5 -150.9,-137.3 -216.3,-211.7 -82.7,-93.9 -160.8,-182.6 -247.9,-210.8 -23.4,-7.7 -50.1,-11.4 -81.6,-11.4"
         style="fill:#f7cc7f;fill-opacity:1;fill-rule:nonzero;stroke:none"
         id="path168" /><path
         d="m 15976.5,5977.3 c 0,-875.9 -710,-1586 -1585.9,-1586 -875.9,0 -1586,710.1 -1586,1586 0,875.9 710.1,1585.9 1586,1585.9 875.9,0 1585.9,-710 1585.9,-1585.9"
         style="fill:#f47458;fill-opacity:1;fill-rule:nonzero;stroke:none"
         id="path170" /><path
         d="m 14390.6,4470.3 c -830.9,0 -1507,676 -1507,1507 0,830.9 676.1,1506.9 1507,1506.9 830.9,0 1506.9,-676 1506.9,-1506.9 0,-831 -676,-1507 -1506.9,-1507"
         style="fill:#ffffff;fill-opacity:1;fill-rule:nonzero;stroke:none"
         id="path172" /><path
         d="m 15756.8,5977.3 c 0,-754.6 -611.7,-1366.3 -1366.2,-1366.3 -754.6,0 -1366.2,611.7 -1366.2,1366.3 0,754.5 611.6,1366.2 1366.2,1366.2 754.5,0 1366.2,-611.7 1366.2,-1366.2"
         style="fill:#f7cc7f;fill-opacity:1;fill-rule:nonzero;stroke:none"
         id="path174" /><path
         d="m 14042.2,5899.3 37.2,283.6 h -203.5 l -37.1,-283.6 z m -389.2,-498.8 50.8,383.4 h -160.3 v 115.4 h 177.9 l 37.2,283.6 h -168.2 v 115.4 h 185.8 l 50.9,373.6 h 113.4 l -48.9,-373.6 h 203.4 l 50.9,373.6 h 115.4 l -48.9,-373.6 h 160.4 v -115.4 h -178 l -35.2,-283.6 h 168.2 V 5783.9 H 14142 l -50.9,-383.4 h -117.4 l 50.9,383.4 h -203.4 l -50.9,-383.4 H 13653"
         style="fill:#ffffff;fill-opacity:1;fill-rule:nonzero;stroke:none"
         id="path176" /><path
         d="m 14904.8,6511.5 h -3.9 l -221,-119.3 -33.3,131 277.8,148.7 h 146.7 V 5400.5 h -166.3 v 1111"
         style="fill:#ffffff;fill-opacity:1;fill-rule:nonzero;stroke:none"
         id="path178" /><path
         d="m 15977.6,15602.1 c -15,-61.3 -41.9,-158.2 -41.9,-158.2 2.2,-26.6 10,-137.5 19.4,-273.4 l -199.7,79.9 c 0,0 2.4,221.4 -6.6,235 -7.5,11.4 -20.1,-2.9 -81.4,84.8 -17.6,25.2 -20.9,70.4 -20.9,70.4 0,0 -3.7,55.6 8.8,60.8 12.5,5.2 26.8,-3.1 31.3,-12.7 4.6,-9.6 3.4,-32 7.9,-41.6 4.5,-9.6 33.4,-21.2 45.6,-20.6 12.1,0.6 -1.5,164.5 -1.5,164.5 0,0 -6.8,46.4 -10.3,61.7 -2.9,12.9 -14.7,50.9 -14.7,50.9 0,0 -13.9,55.2 3.3,59.4 10.1,2.5 35.8,-42.3 53.4,-89.9 19,-51.2 29.8,-105.5 35.2,-104.8 12.8,1.7 6,91.6 6,91.6 0,0 -12.7,41.1 -12.4,60.6 -12,23.8 -19.9,67.9 1.2,71.6 3.9,0.7 31.7,-55.4 31.7,-55.4 0,0 11,-39.5 17.4,-58 11.2,-32.5 12.9,-83.9 18.8,-106.6 4.9,-18.9 9.3,-11.1 11.3,-11.9 1.5,-0.6 -1.2,25.4 -4.3,61.1 -1.6,18.1 0.5,38.8 -4.5,59.3 -4.7,19 -7.4,46.2 -8.6,62.6 -3.4,46.5 25.9,41.7 36,-0.8 3.8,-16.1 7.9,-33.8 11.9,-51.7 15.8,-69.7 15.3,-136.8 22.8,-137.4 9.8,-0.7 3.3,121.5 3.3,121.5 0,0 15,67.6 29.9,4.9 17.2,-72.9 15.4,-132.3 15.2,-134.9 -1.6,-17.8 11.3,-81.4 -3.6,-142.7"
         style="fill:#f8a492;fill-opacity:1;fill-rule:nonzero;stroke:none"
         id="path180" /><path
         d="m 15964.6,15334.3 c 0,0 -225.1,53.9 -227.2,35.8 -47.3,-395.9 -68.5,-539 -76.6,-543.2 -27.2,-14 -388.7,316.6 -453.2,339 -30.8,10.7 -64.4,8.9 -96.6,8 -76.6,-2.3 -91.8,-2.6 -91.8,-2.6 -2.2,-0.1 -2.8,-0.1 -2.8,-0.1 l 0.4,-72.2 c 86.4,-77.7 284.2,-1255 300.9,-1254.3 18.6,0.9 409.5,-97.5 402.6,-64.5 -1.1,5.3 -265,221.3 -339.9,532.9 -25.1,104.7 -37.5,217.3 -51.1,315.9 86.8,-43.5 426.1,-210.5 479.8,-188.4 167.3,68.6 155.5,893.7 155.5,893.7"
         style="fill:#3c8f7c;fill-opacity:1;fill-rule:nonzero;stroke:none"
         id="path182" /><path
         d="m 16637.7,13243.9 c 0,0 363.7,-284.9 375.9,-335.4 17.5,-72.7 350.5,22.9 270.2,37.7 -18.5,3.4 -77.6,18.4 -82.5,21 -26,13.9 -349.6,403.9 -349.6,403.9 l -214,-127.2"
         style="fill:#f7a491;fill-opacity:1;fill-rule:nonzero;stroke:none"
         id="path184" /><path
         d="m 17440,12946.2 -232.3,18.9 c 0,0 -66.3,-54.9 -193.9,-57.5 0,0 -20.4,-58.3 -10.7,-126.4 1.7,-11.7 3.6,-47.2 15.5,-46.4 42.9,2.9 157.2,31.3 287.4,57.4 0,0 175.1,37 276.2,97.5 101.1,60.5 -142.2,56.5 -142.2,56.5"
         style="fill:#b75742;fill-opacity:1;fill-rule:nonzero;stroke:none"
         id="path186" /><path
         d="m 15008.2,13958.5 c 0,0 266.3,-44.7 560.8,24.2 340.9,79.7 717.8,153.4 828.2,89.2 88.9,-51.6 643.9,-890.3 643.9,-890.3 l -214.3,-156.5 -611.2,684.4 c 0,0 -779.7,-287.7 -954.8,-255.8 -398.9,72.6 -404.5,391.1 -252.6,504.8"
         style="fill:#13375b;fill-opacity:1;fill-rule:nonzero;stroke:none"
         id="path188" /><path
         d="m 15299.3,14127.8 266.5,-316.7 -494.3,-150.7 -63.3,298.1 291.1,169.3"
         style="fill:#13375b;fill-opacity:1;fill-rule:nonzero;stroke:none"
         id="path190" /><path
         d="m 15840.9,12681.2 c 0,0 -16.2,-439.9 -26.3,-514.4 -10,-74.1 186.7,-297.5 161.6,-219.8 -5.8,17.9 -20.7,77 -20.7,82.5 -0.1,29.5 72.9,531.3 72.9,531.3 l -187.5,120.4"
         style="fill:#f7a491;fill-opacity:1;fill-rule:nonzero;stroke:none"
         id="path192" /><path
         d="m 16101.9,11786.7 -145.2,236.2 c 0,0 -79.9,32.3 -142.8,143.3 0,0 -60.9,-9.7 -116.2,-50.6 -9.6,-7.1 -74.6,-54.7 -70.1,-65.6 16.7,-40.4 105.3,-126.9 202.1,-221.5 0,0 137.3,-110.7 238.5,-170.9 101.3,-60.2 33.7,129.1 33.7,129.1"
         style="fill:#b75742;fill-opacity:1;fill-rule:nonzero;stroke:none"
         id="path194" /><path
         d="m 16272.6,13548.4 c -93.2,124.2 -844.8,242.2 -844.8,242.2 l -209.6,402.8 -463.4,-285.8 c 0,0 46.3,-368.8 81.1,-467.3 46.3,-131.3 357.8,-138 548,-136 175,1.8 494.7,-33.9 494.7,-33.9 l -108.1,-953.9 c 0,0 212.5,-48.4 272.3,-40.6 6.7,0.9 345.6,1118.1 229.8,1272.5"
         style="fill:#355389;fill-opacity:1;fill-rule:nonzero;stroke:none"
         id="path196" /><path
         d="m 15019,15170.5 -261.5,-14.6 c 0,0 -6,-1.8 -7.8,-2.2 -21.3,-3.9 -1.9,-765.9 17.1,-1050.5 19,-284.6 57.5,-404.1 57.5,-404.1 0,0 354.6,62.9 463.4,105.2 45.2,17.5 154.5,154.2 154.5,154.2 0,0 -111.7,150.1 -167.9,394 -43.4,188.1 -96.9,521.5 -127.5,591.1 -70.3,159.9 -127.8,226.9 -127.8,226.9"
         style="fill:#9bc1f9;fill-opacity:1;fill-rule:nonzero;stroke:none"
         id="path198" /><path
         d="m 14765,15386.8 -7.5,-230.9 c 0,0 169.3,-291.6 256.2,-251 72.9,34.1 8.2,256 8.2,256 0,0 -12.6,50.8 -30.1,109.3 -12.3,40.8 -22.4,85 -21.7,117.5 1.8,78.9 -205.1,-0.9 -205.1,-0.9"
         style="fill:#f7a491;fill-opacity:1;fill-rule:nonzero;stroke:none"
         id="path200" /><path
         d="m 14970.1,15387.7 c 1.8,78.9 -205.1,-0.9 -205.1,-0.9 l -0.8,-22.6 c 7,-10.5 14.7,-19.4 23.2,-26.3 55.6,-45.1 136.1,-65.5 201.5,-58 -10.9,38 -19.5,77.9 -18.8,107.8"
         style="fill:#f47458;fill-opacity:1;fill-rule:nonzero;stroke:none"
         id="path202" /><path
         d="m 14967.2,15913.3 c 0,0 86.2,-130 92.7,-239.4 6.4,-109.5 -16.8,-184.1 -16.8,-184.1 l -276.7,330.8 200.8,92.7"
         style="fill:#184655;fill-opacity:1;fill-rule:nonzero;stroke:none"
         id="path204" /><path
         d="m 15088.5,15696.3 c 3.9,-38.4 -11,-71.3 -33.2,-73.5 -22.3,-2.3 -43.5,26.9 -47.4,65.2 -3.9,38.3 11,71.3 33.3,73.5 22.2,2.3 43.4,-26.9 47.3,-65.2"
         style="fill:#f48c7f;fill-opacity:1;fill-rule:nonzero;stroke:none"
         id="path206" /><path
         d="m 14676.8,15767.6 c -6.3,1.4 -5.7,-317.2 86.6,-392.1 92.3,-75 253,-81.5 299.9,-6 51.9,83.5 2.6,419.1 -134.7,490.4 -137.4,71.3 -251.8,-92.3 -251.8,-92.3"
         style="fill:#f7a491;fill-opacity:1;fill-rule:nonzero;stroke:none"
         id="path208" /><path
         d="m 14653.4,15965.1 c -70.5,-61.8 -104.6,-106.9 -152.3,-216.8 -58.6,-135.1 57.7,-275 155.3,-330.6 97.5,-55.6 105.6,-122.9 105.6,-122.9 l 4,41.5 c 2,15.1 1.4,27.4 -1.2,38.1 -3.1,12.5 -8.8,22.9 -13.9,33.6 -8.3,17.8 -35,78.6 -45.4,94.7 -27.4,42.3 -32.8,51.4 -19.3,91.7 10.5,30.9 -1.6,99.2 14.5,150.3 l 131.3,28.3 c 0,0 82.2,19.7 123.7,67.6 119.1,137.5 -116.4,290.7 -302.3,124.5"
         style="fill:#184655;fill-opacity:1;fill-rule:nonzero;stroke:none"
         id="path210" /><path
         d="m 14717.5,15559.5 c 16.1,-34.9 12.8,-70.9 -7.5,-80.3 -20.4,-9.4 -49.9,11.3 -66.1,46.3 -16.2,34.9 -12.8,70.9 7.5,80.3 20.3,9.4 49.9,-11.3 66.1,-46.3"
         style="fill:#f7a491;fill-opacity:1;fill-rule:nonzero;stroke:none"
         id="path212" /><path
         d="m 13822.7,16438.2 c 14.9,-61.3 41.9,-158.3 41.9,-158.3 -2.2,-26.6 -10,-137.5 -19.4,-273.3 l 199.7,79.9 c 0,0 -2.4,221.4 6.5,234.9 7.6,11.5 20.2,-2.8 81.4,84.8 17.7,25.3 21,70.5 21,70.5 0,0 3.7,55.6 -8.8,60.7 -12.5,5.2 -26.8,-3.1 -31.4,-12.7 -4.5,-9.6 -3.3,-32 -7.8,-41.6 -4.6,-9.6 -33.4,-21.2 -45.6,-20.6 -12.2,0.6 1.5,164.5 1.5,164.5 0,0 6.8,46.5 10.2,61.7 3,13 14.8,51 14.8,51 0,0 13.8,55.2 -3.3,59.4 -10.1,2.5 -35.8,-42.4 -53.4,-89.9 -19,-51.3 -29.8,-105.6 -35.2,-104.8 -12.8,1.7 -6,91.5 -6,91.5 0,0 12.7,41.2 12.4,60.6 12,23.8 19.9,68 -1.2,71.6 -3.9,0.7 -31.8,-55.4 -31.8,-55.4 0,0 -10.9,-39.5 -17.3,-57.9 -11.2,-32.6 -12.9,-84 -18.8,-106.7 -4.9,-18.8 -9.3,-11.1 -11.3,-11.8 -1.6,-0.7 1.1,25.4 4.3,61.1 1.5,18 -0.5,38.8 4.5,59.3 4.7,19 7.3,46.2 8.5,62.6 3.5,46.5 -25.8,41.7 -35.9,-0.8 -3.9,-16.2 -7.9,-33.9 -12,-51.8 -15.7,-69.6 -15.2,-136.8 -22.7,-137.3 -9.8,-0.8 -3.4,121.5 -3.4,121.5 0,0 -14.9,67.6 -29.8,4.8 -17.3,-72.8 -15.5,-132.2 -15.2,-134.8 1.6,-17.8 -11.3,-81.4 3.6,-142.7"
         style="fill:#f8a492;fill-opacity:1;fill-rule:nonzero;stroke:none"
         id="path214" /><path
         d="m 14757.5,15155.9 c 0,0 -259.2,12.1 -326.1,42.3 -40.5,18.4 -373.6,286.8 -373.6,286.8 l 3.7,718.6 -234.2,17.8 c 0,0 -121.5,-794.3 -79.4,-881.2 43.4,-89.8 531,-459.5 628.5,-619.9 56.2,-92.4 173.3,-1349.1 191.1,-1360.4 126.1,-65.7 515.7,-131.3 506.5,-91.5 -253.6,1100.7 -316.5,1887.5 -316.5,1887.5"
         style="fill:#3c8f7c;fill-opacity:1;fill-rule:nonzero;stroke:none"
         id="path216" /><path
         d="m 10106.1,11925.4 c 14.9,-61.3 41.8,-158.2 41.8,-158.2 -2.1,-26.7 -10,-137.5 -19.3,-273.4 l 199.7,79.9 c 0,0 -2.4,221.4 6.5,235 7.6,11.4 20.2,-2.9 81.4,84.7 17.7,25.3 21,70.5 21,70.5 0,0 3.6,55.6 -8.8,60.8 -12.5,5.1 -26.8,-3.2 -31.4,-12.8 -4.5,-9.6 -3.3,-32 -7.9,-41.6 -4.5,-9.6 -33.4,-21.2 -45.5,-20.5 -12.2,0.5 1.5,164.4 1.5,164.4 0,0 6.8,46.5 10.2,61.7 3,13 14.8,51 14.8,51 0,0 13.8,55.2 -3.3,59.4 -10.1,2.5 -35.8,-42.4 -53.5,-89.9 -19,-51.2 -29.7,-105.6 -35.2,-104.8 -12.7,1.7 -6,91.5 -6,91.5 0,0 12.8,41.2 12.4,60.6 12,23.8 20,68 -1.1,71.6 -3.9,0.7 -31.8,-55.4 -31.8,-55.4 0,0 -10.9,-39.5 -17.3,-57.9 -11.3,-32.6 -13,-84 -18.8,-106.6 -4.9,-18.9 -9.3,-11.1 -11.3,-11.9 -1.6,-0.6 1.1,25.4 4.2,61.1 1.6,18 -0.5,38.8 4.6,59.3 4.6,19 7.3,46.2 8.5,62.6 3.5,46.5 -25.8,41.7 -35.9,-0.8 -3.9,-16.2 -7.9,-33.8 -12,-51.8 -15.7,-69.6 -15.2,-136.8 -22.8,-137.3 -9.7,-0.7 -3.3,121.5 -3.3,121.5 0,0 -15,67.6 -29.8,4.8 -17.3,-72.8 -15.5,-132.2 -15.2,-134.8 1.5,-17.8 -11.3,-81.4 3.6,-142.7"
         style="fill:#f8a492;fill-opacity:1;fill-rule:nonzero;stroke:none"
         id="path218" /><path
         d="m 12225.9,12086.9 c -14.9,-61.3 -41.9,-158.2 -41.9,-158.2 2.2,-26.7 10,-137.5 19.4,-273.4 l -199.7,79.9 c 0,0 2.4,221.4 -6.5,235 -7.6,11.4 -20.2,-2.9 -81.4,84.7 -17.7,25.3 -21,70.5 -21,70.5 0,0 -3.7,55.6 8.8,60.8 12.5,5.2 26.8,-3.1 31.4,-12.8 4.5,-9.6 3.3,-31.9 7.8,-41.5 4.6,-9.7 33.4,-21.2 45.6,-20.6 12.2,0.6 -1.5,164.5 -1.5,164.5 0,0 -6.8,46.4 -10.2,61.6 -3,13 -14.8,51 -14.8,51 0,0 -13.8,55.2 3.3,59.4 10.1,2.5 35.8,-42.3 53.4,-89.9 19,-51.2 29.8,-105.5 35.2,-104.8 12.8,1.7 6,91.6 6,91.6 0,0 -12.7,41.1 -12.4,60.6 -12,23.8 -19.9,67.9 1.2,71.6 3.9,0.6 31.8,-55.5 31.8,-55.5 0,0 10.9,-39.5 17.3,-57.9 11.2,-32.6 12.9,-84 18.8,-106.6 4.9,-18.9 9.3,-11.1 11.3,-11.9 1.6,-0.6 -1.1,25.4 -4.3,61.1 -1.5,18 0.5,38.8 -4.5,59.3 -4.7,19 -7.3,46.2 -8.6,62.6 -3.4,46.5 25.9,41.7 36,-0.8 3.9,-16.2 7.9,-33.8 12,-51.8 15.7,-69.6 15.2,-136.7 22.7,-137.3 9.8,-0.7 3.4,121.5 3.4,121.5 0,0 14.9,67.6 29.8,4.8 17.3,-72.8 15.5,-132.2 15.2,-134.8 -1.6,-17.8 11.3,-81.4 -3.6,-142.7"
         style="fill:#f8a492;fill-opacity:1;fill-rule:nonzero;stroke:none"
         id="path220" /><path
         d="m 10979.6,11367.3 c 0,0 101.7,107.2 183.4,-23.2 0,0 63,35.4 107.2,-27.6 0,0 113.8,34.2 141.4,-135.9 0,0 58.6,11 66.3,-58.6 7.8,-69.6 -27.6,-116 -27.6,-116 0,0 32.9,-24.6 18,-88.6 -12.7,-54.5 -57.8,-62.7 -57.8,-62.7 0,0 -12.1,-91.8 -51.9,-119.4 -39.8,-27.6 -93.9,-14.3 -93.9,-14.3 0,0 -14.4,-49.8 -60.8,-45.3 -46.4,4.4 -103.8,48.6 -155.8,28.7 -51.9,-19.9 -186.7,1.1 -186.7,1.1 0,0 -151.4,67.4 -106.1,222.1 0,0 -79.5,71.8 -9.9,158 0,0 -50.8,134.8 49.7,214.3 100.6,79.6 184.5,67.4 184.5,67.4"
         style="fill:#07345a;fill-opacity:1;fill-rule:nonzero;stroke:none"
         id="path222" /><path
         d="m 11679.6,6877.5 c 0,0 110.7,-137.3 138.3,-154.1 27.6,-16.9 -12.3,-216.4 -87.4,-229.5 -42.4,-7.4 -65.9,39.3 -65.9,39.3 l 12.1,57.4 -158.2,163 161.1,123.9"
         style="fill:#f7a491;fill-opacity:1;fill-rule:nonzero;stroke:none"
         id="path224" /><path
         d="m 11109.1,6843.6 c 0,0 92.3,-150.3 117.5,-170.6 25.2,-20.2 -39.8,-213 -116,-216.3 -43,-2 -60.4,47.3 -60.4,47.3 l 19.4,55.4 -136.1,181.9 175.6,102.3"
         style="fill:#f7a491;fill-opacity:1;fill-rule:nonzero;stroke:none"
         id="path226" /><path
         d="m 11221.1,6678.9 c 0,0 -53,-67.6 -82,-94.5 -37.3,-34.7 -85.1,-68.6 -85.1,-68.6 0,0 -54.2,-98.3 -69,-132.7 -32.9,-76.3 -70,-161.4 -64.6,-204.1 1.7,-13.8 32.5,-28.3 58.2,-20.4 107,32.9 380.5,283.1 415,350.2 39.8,77.5 -172.5,170.1 -172.5,170.1"
         style="fill:#07345a;fill-opacity:1;fill-rule:nonzero;stroke:none"
         id="path228" /><path
         d="m 10440.4,8968.4 c 9.9,27.8 19.5,53.6 28.7,77.7 113.7,-24.8 242.2,-52.1 374.4,-80.3 l 16.1,-484.5 c -0.1,37.4 -99.4,-772.8 -99.4,-772.8 0,0 256.9,-568.7 432.6,-900.1 -72.1,-90 -105.9,-119 -210.4,-180.3 -272.7,326.9 -629.6,925.1 -644.4,1024.6 -8.5,57.2 -16.2,982.1 102.4,1315.7"
         style="fill:#b75742;fill-opacity:1;fill-rule:nonzero;stroke:none"
         id="path230" /><path
         d="m 11455.8,8828.3 c -34.7,-377.5 -112,-1099.3 -105.6,-1157.3 19.5,-72.4 363.2,-740.3 425.1,-837.5 -49.1,-74 -125.2,-154 -207,-176.1 -16.1,-4.4 -583.5,803 -614.4,867.1 -35,72.4 -93.2,467.6 -94.3,956.8 l -16.1,484.5 c 220.3,-46.9 422.8,-93 612.3,-137.5"
         style="fill:#f47458;fill-opacity:1;fill-rule:nonzero;stroke:none"
         id="path232" /><path
         d="m 10732.6,10549.3 259.2,-35.6 c 0,0 207.8,-5.1 233.6,-5.1 25.7,0 188.5,-945.7 235.6,-1301.6 47.2,-355.9 10.7,-418.9 10.7,-418.9 0,0 -328.7,-74 -571.9,-52.4 -252.9,22.4 -537.4,158.9 -537.4,158.9 0,0 216.1,684 259,897.5 42.8,213.6 111.2,757.2 111.2,757.2"
         style="fill:#96d9c9;fill-opacity:1;fill-rule:nonzero;stroke:none"
         id="path234" /><path
         d="m 10104,11694.9 c 0,0 -16.7,-705.1 9.9,-759 38.7,-78.5 474,-634.8 474,-634.8 0,0 -208,-870.3 -295.4,-1170.8 -8.8,-30.2 -47.8,-225.7 -47.8,-244.8 0,-42.3 184,-95.9 205.8,-92.7 19.6,2.8 180.1,830.6 282.6,1235.7 34.7,137.3 94.3,267 175.7,382.8 l 71.3,101.2 -546.9,548.2 c 0,0 -67.4,610.2 -67.4,660.7 0,13.3 -235.3,23.2 -261.8,-26.5"
         style="fill:#13375b;fill-opacity:1;fill-rule:nonzero;stroke:none"
         id="path236" /><path
         d="m 11216,10509.9 681.9,694.9 c 0,0 95.1,657.1 101.8,681.8 6.7,24.3 176,37.5 244.3,44.1 21.9,2.2 -11.5,-699.8 -44.1,-817.5 -38.6,-139.1 -554.1,-772.4 -554.1,-772.4 0,0 -92.4,-343.1 -70.1,-594.8 36.9,-417.9 136.6,-992.8 118.7,-1010.9 -110.8,-69.8 -536.2,-77.3 -563.1,-33.9 -297.3,478.8 84.7,1808.7 84.7,1808.7"
         style="fill:#13375b;fill-opacity:1;fill-rule:nonzero;stroke:none"
         id="path238" /><path
         d="m 10996.8,10639.7 -18.4,-136.5 c 0,0 -41.2,-196.7 11.8,-234.6 53,-37.9 225.5,240.2 225.5,240.2 l -18.2,345.9 -200.7,-215"
         style="fill:#f7a491;fill-opacity:1;fill-rule:nonzero;stroke:none"
         id="path240" /><path
         d="m 11203.4,10742.6 c -43.8,-118 -148.1,-190.5 -222.2,-218.6 l 15.6,115.7 200.7,215 5.9,-112.1"
         style="fill:#f47458;fill-opacity:1;fill-rule:nonzero;stroke:none"
         id="path242" /><path
         d="m 11479.7,11089.8 c 0,-52.7 -29.9,-95.4 -66.9,-95.4 -37,0 -66.9,42.7 -66.9,95.4 0,52.7 29.9,95.4 66.9,95.4 37,0 66.9,-42.7 66.9,-95.4"
         style="fill:#07345a;fill-opacity:1;fill-rule:nonzero;stroke:none"
         id="path244" /><path
         d="m 11279,11294.8 c 0,-30.2 -36.5,-54.8 -81.4,-54.8 -45,0 -81.5,24.6 -81.5,54.8 0,30.3 36.5,54.9 81.5,54.9 44.9,0 81.4,-24.6 81.4,-54.9"
         style="fill:#07345a;fill-opacity:1;fill-rule:nonzero;stroke:none"
         id="path246" /><path
         d="m 11075,11218.1 c -107.7,37.1 -222.4,-34.4 -238.8,-145.4 -7.1,-48.2 -13.6,-108.8 -14.8,-175.1 -2.9,-159.4 79.7,-314.6 152.1,-314.6 72.4,0 272.5,103.2 279.7,329.6 4.5,139.7 -65.3,266.6 -178.2,305.5"
         style="fill:#f7a491;fill-opacity:1;fill-rule:nonzero;stroke:none"
         id="path248" /><path
         d="m 11199.8,10894.7 c 0,-35.2 23.4,-63.7 52.1,-63.7 28.8,0 52.1,28.5 52.1,63.7 0,35.1 -23.3,63.6 -52.1,63.6 -28.7,0 -52.1,-28.5 -52.1,-63.6"
         style="fill:#f7a491;fill-opacity:1;fill-rule:nonzero;stroke:none"
         id="path250" /><path
         d="m 10761.3,11297.4 c -74.8,-59.2 -101,-149.2 -58.5,-201 42.4,-51.8 137.5,-45.8 212.2,13.5 74.8,59.2 101,149.2 58.6,201 -42.5,51.8 -137.5,45.8 -212.3,-13.5"
         style="fill:#07345a;fill-opacity:1;fill-rule:nonzero;stroke:none"
         id="path252" /><path
         d="m 10956.8,11248.9 c 0,-25.8 31.1,-46.6 69.5,-46.6 38.3,0 69.4,20.8 69.4,46.6 0,25.7 -31.1,46.6 -69.4,46.6 -38.4,0 -69.5,-20.9 -69.5,-46.6"
         style="fill:#07345a;fill-opacity:1;fill-rule:nonzero;stroke:none"
         id="path254" /><path
         d="m 10750.2,11050.7 c 0,-33.1 26.5,-59.9 59.3,-59.9 32.7,0 59.3,26.8 59.3,59.9 0,33.1 -26.6,60 -59.3,60 -32.8,0 -59.3,-26.9 -59.3,-60"
         style="fill:#07345a;fill-opacity:1;fill-rule:nonzero;stroke:none"
         id="path256" /><path
         d="m 11811.7,6728.5 c 0,0 -44,-73.8 -69.2,-104.2 -32.6,-39.2 -75.7,-79 -75.7,-79 0,0 -41.2,-104.4 -51.5,-140.3 -22.9,-80 -48.8,-176.5 -38,-218.2 3.4,-13.4 32.9,-38.9 57.2,-23.1 93.8,61.1 344.4,347.1 370,418.1 29.6,81.9 -192.8,146.7 -192.8,146.7"
         style="fill:#07345a;fill-opacity:1;fill-rule:nonzero;stroke:none"
         id="path258" /><path
         d="m 16693.4,9641.7 c 0,0 -299.1,-46.1 -520,-266.4 -220.9,-220.3 -352.9,-574.2 -352.9,-574.2 l 452.4,-131.9 c 0,0 -180.8,421.9 420.5,972.5"
         style="fill:#fae0b2;fill-opacity:1;fill-rule:nonzero;stroke:none"
         id="path260" /><path
         d="m 16776.2,9424.7 -32.4,254.8 -228.2,117.8 c -26,13.4 -25.4,50.8 1.1,63.2 l 232.3,109.6 41.4,253.5 c 4.8,28.9 40.5,39.8 60.6,18.5 l 176,-187.1 253.9,38.9 c 28.9,4.5 50.3,-26.2 36.3,-51.8 l -123.6,-225.2 115.5,-229.5 c 13.1,-26.1 -9.4,-56 -38.1,-50.5 l -252.4,47.9 -182.5,-180.7 c -20.8,-20.6 -56.2,-8.4 -59.9,20.6"
         style="fill:#f7cc7f;fill-opacity:1;fill-rule:nonzero;stroke:none"
         id="path262" /><path
         d="m 8823.79,8285.2 c 0,0 299.1,-46.1 520,-266.4 220.91,-220.3 352.85,-574.1 352.85,-574.1 l -452.35,-131.9 c 0,0 180.79,421.8 -420.5,972.4"
         style="fill:#fae0b2;fill-opacity:1;fill-rule:nonzero;stroke:none"
         id="path264" /><path
         d="m 8740.93,8068.2 32.41,254.8 228.28,117.8 c 26,13.4 25.34,50.8 -1.12,63.3 l -232.32,109.6 -41.44,253.4 c -4.72,28.9 -40.5,39.8 -60.55,18.5 l -175.99,-187.1 -253.9,39 c -28.91,4.4 -50.36,-26.3 -36.29,-51.9 L 8323.55,8460.4 8208.09,8231 c -13.16,-26.2 9.37,-56 38.11,-50.6 l 252.34,47.9 182.53,-180.7 c 20.8,-20.6 56.17,-8.4 59.86,20.6"
         style="fill:#f7cc7f;fill-opacity:1;fill-rule:nonzero;stroke:none"
         id="path266" /><path
         d="m 18716.7,9419.1 70,118.2 -57.7,124.6 c -6.6,14.2 6,29.8 21.3,26.3 l 133.9,-30 100.7,93.4 c 11.5,10.6 30.2,3.5 31.7,-12.1 l 12.8,-136.7 119.9,-66.9 c 13.7,-7.6 12.7,-27.6 -1.7,-33.8 l -126,-54.5 -26.6,-134.7 c -3,-15.4 -22.3,-20.6 -32.7,-8.8 l -90.7,103 -136.4,-16.3 c -15.5,-1.9 -26.4,14.9 -18.5,28.3"
         style="fill:#466eb6;fill-opacity:1;fill-rule:nonzero;stroke:none"
         id="path268" /><path
         d="m 11966.1,14764.7 88.3,149.1 -72.8,157.2 c -8.3,17.9 7.6,37.6 26.8,33.3 l 169.1,-37.9 127.1,117.8 c 14.4,13.4 38,4.4 39.9,-15.2 l 16.2,-172.5 151.3,-84.4 c 17.2,-9.7 15.9,-34.9 -2.2,-42.7 l -159,-68.7 -33.6,-170 c -3.8,-19.4 -28.1,-26 -41.2,-11.2 l -114.5,130.1 -172,-20.7 c -19.6,-2.3 -33.4,18.8 -23.4,35.8"
         style="fill:#f79c8d;fill-opacity:1;fill-rule:nonzero;stroke:none"
         id="path270" /><path
         d="m 18444.6,14394.4 -233.1,-155.5 130.3,-226.3 -222.8,-163.4 97.9,-231.6 -146.8,-149.5 75.7,-74.3 196.3,200 -92.7,219.5 231.8,169.9 -128.2,222.6 211.2,140.9 -119.6,47.7"
         style="fill:#f48c7f;fill-opacity:1;fill-rule:nonzero;stroke:none"
         id="path272" /><path
         d="m 18802.6,10645.6 -164.9,226.6 -220.8,-139.5 -172.3,216.1 -227.4,-107.2 -155.4,140.5 -71.1,-78.6 207.7,-188 215.6,101.6 179.2,-224.7 217.2,137.1 149.4,-205.3 42.8,121.4"
         style="fill:#f48c7f;fill-opacity:1;fill-rule:nonzero;stroke:none"
         id="path274" /><path
         d="m 11075.5,15338.1 56,274.5 -251.9,68.9 43.2,272.9 -232.6,95.5 -1.1,209.6 -106,-0.6 1.4,-280.2 220.4,-90.5 -44.9,-283.9 247.7,-67.8 -50.7,-248.8 118.5,50.4"
         style="fill:#f48c7f;fill-opacity:1;fill-rule:nonzero;stroke:none"
         id="path276" /><path
         d="m 8896.73,14972.9 106.67,-199.1 230.06,12.8 103.75,-231.7 240.81,89.3 128.9,-256.9 231.89,54.8 164.39,-226.9 -85.8,-62.2 -122.99,169.7 -244.68,-57.9 -123.91,246.9 -244.84,-90.8 -114.5,255.8 -224.66,-12.6 -98.87,184.6 -145.8,-39.1 -27.49,102.4 227.07,60.9"
         style="fill:#f7cc7f;fill-opacity:1;fill-rule:nonzero;stroke:none"
         id="path278" /><path
         d="m 7904.38,13400.2 -169.81,-17.2 -57.91,270.1 -251.38,5.5 -76.39,195 -98.76,-38.6 102.17,-261 238.23,-5.1 60.25,-281 255.51,25.9 -1.91,106.4"
         style="fill:#50bfa5;fill-opacity:1;fill-rule:nonzero;stroke:none"
         id="path280" /><path
         d="m 7598.93,10471.2 -63.56,-158.4 -266.17,74.1 -121.48,-220.1 -208.25,22.9 -11.58,-105.5 278.53,-30.6 115.12,208.7 276.9,-77.1 95.62,238.3 -95.13,47.7"
         style="fill:#50bfa5;fill-opacity:1;fill-rule:nonzero;stroke:none"
         id="path282" /><path
         d="m 8050.08,12243 c 188.42,-180.7 194.66,-480 13.94,-668.4 -180.72,-188.4 -479.97,-194.7 -668.39,-13.9 -188.42,180.7 -194.66,479.9 -13.94,668.4 180.72,188.4 479.97,194.6 668.39,13.9"
         style="fill:#fff3d9;fill-opacity:1;fill-rule:nonzero;stroke:none"
         id="path284" /><path
         d="m 8039.77,11847.8 -201.15,-61.8 -63.1,-200.8 c -5.1,-16.2 -26.58,-19.5 -36.35,-5.6 l -120.97,172.2 -210.43,-2.1 c -16.99,-0.1 -26.8,19.3 -16.59,32.9 l 126.39,168.2 -66.95,199.5 c -5.41,16.1 10.01,31.5 26.09,26 l 199.08,-68.2 169.05,125.3 c 13.66,10.1 32.99,0.2 32.72,-16.8 l -3.35,-210.4 171.42,-122.1 c 13.86,-9.8 10.39,-31.3 -5.86,-36.3"
         style="fill:#fed333;fill-opacity:1;fill-rule:nonzero;stroke:none"
         id="path286" /><path
         d="m 20399.6,11456.2 c 188.4,-180.7 194.6,-479.9 13.9,-668.4 -180.7,-188.4 -480,-194.6 -668.4,-13.9 -188.4,180.7 -194.7,480 -13.9,668.4 180.7,188.4 479.9,194.6 668.4,13.9"
         style="fill:#fff3d9;fill-opacity:1;fill-rule:nonzero;stroke:none"
         id="path288" /><path
         d="m 20389.2,11061 -201.1,-61.8 -63.1,-200.8 c -5.1,-16.2 -26.6,-19.5 -36.4,-5.6 l -120.9,172.2 -210.4,-2 c -17,-0.2 -26.9,19.2 -16.6,32.8 l 126.3,168.2 -66.9,199.5 c -5.4,16.2 10,31.5 26.1,26 l 199.1,-68.2 169,125.3 c 13.7,10.1 33,0.2 32.7,-16.8 l -3.3,-210.4 171.4,-122.1 c 13.9,-9.8 10.4,-31.3 -5.9,-36.3"
         style="fill:#fed333;fill-opacity:1;fill-rule:nonzero;stroke:none"
         id="path290" /><path
         d="m 18266.2,12049.3 82.6,-137.3 c 9,-14.9 31.1,-13 37.4,3.1 l 58.7,149.1 156.1,36.2 c 16.9,3.9 22,25.5 8.6,36.5 l -123.6,101.9 13.8,159.7 c 1.5,17.3 -17.5,28.8 -32.1,19.4 l -135.1,-86.1 -147.6,62.5 c -16,6.8 -32.8,-7.7 -28.4,-24.5 l 40.1,-155.1 -105,-121.1 c -11.4,-13.1 -2.8,-33.5 14.6,-34.6 l 159.9,-9.7"
         style="fill:#f47458;fill-opacity:1;fill-rule:nonzero;stroke:none"
         id="path292" /><path
         d="m 17976.1,8904.8 c 0,-52.9 -42.9,-95.8 -95.7,-95.8 -52.9,0 -95.8,42.9 -95.8,95.8 0,52.9 42.9,95.7 95.8,95.7 52.8,0 95.7,-42.8 95.7,-95.7"
         style="fill:#50bfa5;fill-opacity:1;fill-rule:nonzero;stroke:none"
         id="path294" /><path
         d="m 6767.78,11807.8 c 0,-52.9 -46.45,-95.8 -103.75,-95.8 -57.3,0 -103.75,42.9 -103.75,95.8 0,52.9 46.45,95.8 103.75,95.8 57.3,0 103.75,-42.9 103.75,-95.8"
         style="fill:#50bfa5;fill-opacity:1;fill-rule:nonzero;stroke:none"
         id="path296" /><path
         d="m 12192.8,16388.9 125.8,-24.8 c 0,0 183.7,85.8 197.7,127.2 14.1,41.4 7.6,136.8 34.5,142.7 26.9,6 80.7,3.7 101.3,-59.6 15,-45.9 -37,-190.4 -24.5,-203.6 7.9,-8.2 79.7,-24.5 132.4,-35.6 34.6,-7.3 62.3,-33.5 71.7,-68.2 l 0.1,-0.1 c 6.4,-23.4 -4.2,-48.3 -25.5,-59.7 l -33.1,-17.7 15.6,-34.5 c 11.5,-25.7 0.5,-56.2 -24.8,-68.4 l -25.8,-12.3 11.4,-20.8 c 14.5,-26.8 2.9,-60.6 -25,-72.6 l -22.6,-9.8 1.7,-6.1 c 7.3,-25.6 -5.9,-52.8 -30.4,-62.6 l -22.6,-9 -334.8,66.2 c -31.4,6.2 -61.1,18.8 -87.4,37.2 l -113.9,43.1 c -12.2,4.6 -19.2,17.7 -16.4,30.7 l 63.6,297.5 c 3.1,14.3 16.9,23.6 31,20.8"
         style="fill:#96d9c9;fill-opacity:1;fill-rule:nonzero;stroke:none"
         id="path298" /></g></g></svg>
