<?xml version="1.0" encoding="UTF-8" standalone="no"?>
<svg
   xmlns:dc="http://purl.org/dc/elements/1.1/"
   xmlns:cc="http://creativecommons.org/ns#"
   xmlns:rdf="http://www.w3.org/1999/02/22-rdf-syntax-ns#"
   xmlns:svg="http://www.w3.org/2000/svg"
   xmlns="http://www.w3.org/2000/svg"
   xmlns:sodipodi="http://sodipodi.sourceforge.net/DTD/sodipodi-0.dtd"
   xmlns:inkscape="http://www.inkscape.org/namespaces/inkscape"
   version="1.1"
   id="svg2"
   xml:space="preserve"
   width="666.66669"
   height="666.66669"
   viewBox="0 0 666.66669 666.66669"
   sodipodi:docname="4139985.ai"><metadata
     id="metadata8"><rdf:RDF><cc:Work
         rdf:about=""><dc:format>image/svg+xml</dc:format><dc:type
           rdf:resource="http://purl.org/dc/dcmitype/StillImage" /></cc:Work></rdf:RDF></metadata><defs
     id="defs6"><clipPath
       clipPathUnits="userSpaceOnUse"
       id="clipPath18"><path
         d="M 0,500 H 500 V 0 H 0 Z"
         id="path16" /></clipPath><clipPath
       clipPathUnits="userSpaceOnUse"
       id="clipPath30"><path
         d="M 22.7594,445.478 H 471.698 V 53.9259 H 22.7594 Z"
         id="path28" /></clipPath><clipPath
       clipPathUnits="userSpaceOnUse"
       id="clipPath66"><path
         d="M 0,500 H 500 V 0 H 0 Z"
         id="path64" /></clipPath><clipPath
       clipPathUnits="userSpaceOnUse"
       id="clipPath102"><path
         d="M 0,500 H 500 V 0 H 0 Z"
         id="path100" /></clipPath><clipPath
       clipPathUnits="userSpaceOnUse"
       id="clipPath156"><path
         d="M 0,500 H 500 V 0 H 0 Z"
         id="path154" /></clipPath><clipPath
       clipPathUnits="userSpaceOnUse"
       id="clipPath208"><path
         d="M 0,500 H 500 V 0 H 0 Z"
         id="path206" /></clipPath><clipPath
       clipPathUnits="userSpaceOnUse"
       id="clipPath236"><path
         d="M 0,500 H 500 V 0 H 0 Z"
         id="path234" /></clipPath><clipPath
       clipPathUnits="userSpaceOnUse"
       id="clipPath292"><path
         d="M 0,500 H 500 V 0 H 0 Z"
         id="path290" /></clipPath><clipPath
       clipPathUnits="userSpaceOnUse"
       id="clipPath332"><path
         d="M 0,500 H 500 V 0 H 0 Z"
         id="path330" /></clipPath></defs><sodipodi:namedview
     pagecolor="#ffffff"
     bordercolor="#666666"
     borderopacity="1"
     objecttolerance="10"
     gridtolerance="10"
     guidetolerance="10"
     inkscape:pageopacity="0"
     inkscape:pageshadow="2"
     inkscape:window-width="640"
     inkscape:window-height="480"
     id="namedview4" /><g
     id="g10"
     inkscape:groupmode="layer"
     inkscape:label="4139985"
     transform="matrix(1.3333333,0,0,-1.3333333,0,666.66667)"><g
       id="g12"><g
         id="g14"
         clip-path="url(#clipPath18)"><g
           id="g20"
           transform="translate(325.6924,437.3174)"><path
             d="m 0,0 c 0,0 -74.032,26.324 -146.702,-15.586 -72.67,-41.91 -109.338,-125.106 -140.826,-191.749 -31.488,-66.644 -13.363,-134.432 42.111,-165.341 55.474,-30.909 93.195,14.655 171.017,16.874 77.821,2.218 98.751,-8.907 163.327,35.055 64.577,43.962 76.25,147.787 25.309,224.609 C 63.295,-19.315 0,0 0,0"
             style="fill:#5ae4a7;fill-opacity:1;fill-rule:nonzero;stroke:none"
             id="path22" /></g><g
           id="g24"><g
             id="g26" /><g
             id="g38"><g
               clip-path="url(#clipPath30)"
               opacity="0.800003"
               id="g36"><g
                 transform="translate(325.6924,437.3174)"
                 id="g34"><path
                   d="m 0,0 c 0,0 -74.032,26.324 -146.702,-15.586 -72.67,-41.91 -109.338,-125.106 -140.826,-191.749 -31.488,-66.644 -13.363,-134.432 42.111,-165.341 55.474,-30.909 93.195,14.655 171.017,16.874 77.821,2.218 98.751,-8.907 163.327,35.055 64.577,43.962 76.25,147.787 25.309,224.609 C 63.295,-19.315 0,0 0,0"
                   style="fill:#ffffff;fill-opacity:1;fill-rule:nonzero;stroke:none"
                   id="path32" /></g></g></g></g><g
           id="g40"
           transform="translate(130.7119,246.2119)"><path
             d="M 0,0 C 3.555,0 6.749,1.539 8.978,3.976 L 6.286,6.952 C 4.784,5.15 2.524,4 0,4 -2.781,4 -5.24,5.397 -6.719,7.524 L -9.543,4.632 C -7.31,1.815 -3.866,0 0,0"
             style="fill:#5ae4a7;fill-opacity:1;fill-rule:nonzero;stroke:none"
             id="path42" /></g><g
           id="g44"
           transform="translate(130.7119,252.5483)"><path
             d="M 0,0 C 1.923,0 3.628,0.938 4.694,2.376 L 1.817,5.557 C 1.677,4.677 0.919,4 0,4 c -1.019,0 -1.847,0.829 -1.847,1.847 0,0.126 0.014,0.249 0.038,0.369 L -5.043,2.904 C -4.028,1.17 -2.15,0 0,0"
             style="fill:#5ae4a7;fill-opacity:1;fill-rule:nonzero;stroke:none"
             id="path46" /></g><g
           id="g48"
           transform="translate(130.4761,260.3755)"><path
             d="m 0,0 -0.18,-0.185 c 0.1,0.024 0.204,0.035 0.31,0.041 z"
             style="fill:#5ae4a7;fill-opacity:1;fill-rule:nonzero;stroke:none"
             id="path50" /></g><g
           id="g52"
           transform="translate(145.6821,243.5615)"><path
             d="m 0,0 c -3.824,-3.858 -9.121,-6.255 -14.97,-6.255 -6.282,0 -11.916,2.776 -15.782,7.149 l -2.815,-2.882 c 4.594,-5.074 11.23,-8.267 18.597,-8.267 6.879,0 13.119,2.784 17.657,7.284 z"
             style="fill:#5ae4a7;fill-opacity:1;fill-rule:nonzero;stroke:none"
             id="path54" /></g><g
           id="g56"
           transform="translate(130.7119,239.4219)"><path
             d="M 0,0 C 5.304,0 10.1,2.193 13.546,5.714 L 10.854,8.69 C 8.124,5.81 4.273,4 0,4 -4.623,4 -8.76,6.107 -11.509,9.409 L -14.304,6.547 C -10.823,2.545 -5.708,0 0,0"
             style="fill:#5ae4a7;fill-opacity:1;fill-rule:nonzero;stroke:none"
             id="path58" /></g></g></g><g
       id="g60"><g
         id="g62"
         clip-path="url(#clipPath66)"><g
           id="g68"
           transform="translate(211.144,178.7783)"><path
             d="M 0,0 C 0,0 0.338,-42.213 0.338,-53.356 0.338,-64.501 0,-112.947 0,-112.947"
             style="fill:none;stroke:#1a2e35;stroke-width:3;stroke-linecap:round;stroke-linejoin:round;stroke-miterlimit:10;stroke-dasharray:none;stroke-opacity:1"
             id="path70" /></g><g
           id="g72"
           transform="translate(236.4717,167.9717)"><path
             d="m 0,0 -10.469,8.78 29.38,-3.377 -26.003,8.443 26.679,4.728 h -30.056 l 23.302,17.56 -26.341,-13.17 15.196,26.003 -20.262,-23.302 7.092,34.108 -13.17,-31.744 -1.351,35.459 -2.702,-36.134 -14.37,31.921 9.98,-34.961 -21.494,23.448 18.793,-28.851 -26.606,18.982 24.917,-24.047 -28.207,15.412 25.843,-17.439 -23.376,3.046 22.701,-6.423 -18.177,-3.035 18.852,0.672 -11.144,-7.43 26.341,7.092 z"
             style="fill:#5ae4a7;fill-opacity:1;fill-rule:nonzero;stroke:none"
             id="path74" /></g><g
           id="g76"
           transform="translate(201.0132,136.2285)"><path
             d="m 0,0 c 0,0 -1.013,-8.78 -0.338,-12.157 0.675,-3.377 1.013,-7.43 1.013,-11.821 0,-4.389 0.338,-4.727 0.338,-7.766 0,-3.039 -0.338,-28.86 -0.338,-31.225 v -5.403 -2.701"
             style="fill:none;stroke:#1a2e35;stroke-width:3;stroke-linecap:round;stroke-linejoin:round;stroke-miterlimit:10;stroke-dasharray:none;stroke-opacity:1"
             id="path78" /></g><g
           id="g80"
           transform="translate(202.0264,107.8613)"><path
             d="m 0,0 c 0,0 1.351,7.43 2.701,10.807 1.351,3.377 2.364,2.363 2.702,6.416 0.338,4.052 0.338,5.741 1.013,7.091 0.675,1.351 1.351,3.715 1.351,3.715 l 0.675,2.701"
             style="fill:none;stroke:#1a2e35;stroke-width:3;stroke-linecap:round;stroke-linejoin:round;stroke-miterlimit:10;stroke-dasharray:none;stroke-opacity:1"
             id="path82" /></g><g
           id="g84"
           transform="translate(226.0029,127.4482)"><path
             d="m 0,0 -10.469,8.78 29.38,-3.377 -26.003,8.443 26.678,4.727 H -10.469 L 12.833,36.134 -13.508,22.963 1.688,48.966 -18.574,25.665 l 7.092,34.107 -13.17,-31.744 -1.351,35.459 -2.702,-36.133 -10.468,32.756 6.078,-35.796 -18.573,26.678 15.872,-32.081 -24.361,15.917 22.672,-20.982 -25.14,10.291 22.776,-12.318 -23.598,2.037 22.923,-5.414 -15.933,-3.632 16.608,1.268 -11.144,-7.43 26.341,7.092 z"
             style="fill:#5ae4a7;fill-opacity:1;fill-rule:nonzero;stroke:none"
             id="path86" /></g><g
           id="g88"
           transform="translate(191.7627,74.7236)"><path
             d="m 0,0 -7.229,-12.048 c -1.11,-1.849 -1.421,-4.071 -0.862,-6.154 l 3.213,-11.968 c 0.467,-1.742 2.047,-2.954 3.852,-2.954 h 32.924 c 1.805,0 3.385,1.212 3.852,2.954 l 3.213,11.968 c 0.559,2.083 0.248,4.305 -0.862,6.154 L 30.872,0 c -0.493,0.822 -1.381,1.325 -2.34,1.325 H 2.34 C 1.381,1.325 0.493,0.822 0,0"
             style="fill:#ffffff;fill-opacity:1;fill-rule:nonzero;stroke:none"
             id="path90" /></g><g
           id="g92"
           transform="translate(191.7627,74.7236)"><path
             d="m 0,0 -7.229,-12.048 c -1.11,-1.849 -1.421,-4.071 -0.862,-6.154 l 3.213,-11.968 c 0.467,-1.742 2.047,-2.954 3.852,-2.954 h 32.924 c 1.805,0 3.385,1.212 3.852,2.954 l 3.213,11.968 c 0.559,2.083 0.248,4.305 -0.862,6.154 L 30.872,0 c -0.493,0.822 -1.381,1.325 -2.34,1.325 H 2.34 C 1.381,1.325 0.493,0.822 0,0 Z"
             style="fill:none;stroke:#1a2e35;stroke-width:1;stroke-linecap:butt;stroke-linejoin:round;stroke-miterlimit:10;stroke-dasharray:none;stroke-opacity:1"
             id="path94" /></g></g></g><g
       id="g96"><g
         id="g98"
         clip-path="url(#clipPath102)"><g
           id="g104"
           transform="translate(162.4619,41.5996)"><path
             d="m 0,0 h -131.305 c -1.008,0 -1.826,0.817 -1.826,1.826 v 325.083 c 0,0.607 0.492,1.098 1.098,1.098 H 0.728 c 0.606,0 1.098,-0.491 1.098,-1.098 V 1.826 C 1.826,0.817 1.008,0 0,0 Z"
             style="fill:none;stroke:#1a2e35;stroke-width:1;stroke-linecap:butt;stroke-linejoin:round;stroke-miterlimit:10;stroke-dasharray:none;stroke-opacity:1"
             id="path106" /></g><g
           id="g108"
           transform="translate(96.8096,204.2939)"><path
             d="M 0,0 V -162.351"
             style="fill:none;stroke:#1a2e35;stroke-width:1;stroke-linecap:butt;stroke-linejoin:round;stroke-miterlimit:10;stroke-dasharray:none;stroke-opacity:1"
             id="path110" /></g><g
           id="g112"
           transform="translate(96.8096,369.9512)"><path
             d="M 0,0 V -159.866"
             style="fill:none;stroke:#1a2e35;stroke-width:1;stroke-linecap:butt;stroke-linejoin:round;stroke-miterlimit:10;stroke-dasharray:none;stroke-opacity:1"
             id="path114" /></g><g
           id="g116"
           transform="translate(38.2715,204.3926)"><path
             d="m 0,0 h 119.714 c 1.503,0 2.721,1.219 2.721,2.721 0,1.503 -1.218,2.72 -2.721,2.72 L 0,5.441 c -1.502,0 -2.72,-1.217 -2.72,-2.72 C -2.72,1.219 -1.502,0 0,0 Z"
             style="fill:none;stroke:#1a2e35;stroke-width:1;stroke-linecap:butt;stroke-linejoin:round;stroke-miterlimit:10;stroke-dasharray:none;stroke-opacity:1"
             id="path118" /></g><path
           d="m 150.151,263.465 h -38.452 v 74.618 h 38.452 z"
           style="fill:none;stroke:#1a2e35;stroke-width:1;stroke-linecap:butt;stroke-linejoin:round;stroke-miterlimit:10;stroke-dasharray:none;stroke-opacity:1"
           id="path120" /><path
           d="m 147.135,291.447 h -32.419 v 40.784 h 32.419 z"
           style="fill:none;stroke:#1a2e35;stroke-width:1;stroke-linecap:butt;stroke-linejoin:round;stroke-miterlimit:10;stroke-dasharray:none;stroke-opacity:1"
           id="path122" /><path
           d="m 119.588,282.184 h -4.615 v 4.758 h 4.615 z"
           style="fill:none;stroke:#1a2e35;stroke-width:1;stroke-linecap:butt;stroke-linejoin:round;stroke-miterlimit:10;stroke-dasharray:none;stroke-opacity:1"
           id="path124" /><path
           d="m 126.511,282.184 h -4.615 v 4.758 h 4.615 z"
           style="fill:none;stroke:#1a2e35;stroke-width:1;stroke-linecap:butt;stroke-linejoin:round;stroke-miterlimit:10;stroke-dasharray:none;stroke-opacity:1"
           id="path126" /><path
           d="m 133.434,282.184 h -4.615 v 4.758 h 4.615 z"
           style="fill:none;stroke:#1a2e35;stroke-width:1;stroke-linecap:butt;stroke-linejoin:round;stroke-miterlimit:10;stroke-dasharray:none;stroke-opacity:1"
           id="path128" /><path
           d="m 140.356,282.184 h -4.615 v 4.758 h 4.615 z"
           style="fill:none;stroke:#1a2e35;stroke-width:1;stroke-linecap:butt;stroke-linejoin:round;stroke-miterlimit:10;stroke-dasharray:none;stroke-opacity:1"
           id="path130" /><path
           d="m 147.278,282.184 h -4.615 v 4.758 h 4.615 z"
           style="fill:none;stroke:#1a2e35;stroke-width:1;stroke-linecap:butt;stroke-linejoin:round;stroke-miterlimit:10;stroke-dasharray:none;stroke-opacity:1"
           id="path132" /><path
           d="m 119.588,274.535 h -4.615 v 4.758 h 4.615 z"
           style="fill:none;stroke:#1a2e35;stroke-width:1;stroke-linecap:butt;stroke-linejoin:round;stroke-miterlimit:10;stroke-dasharray:none;stroke-opacity:1"
           id="path134" /><path
           d="m 126.511,274.535 h -4.615 v 4.758 h 4.615 z"
           style="fill:none;stroke:#1a2e35;stroke-width:1;stroke-linecap:butt;stroke-linejoin:round;stroke-miterlimit:10;stroke-dasharray:none;stroke-opacity:1"
           id="path136" /><path
           d="m 133.434,274.535 h -4.615 v 4.758 h 4.615 z"
           style="fill:none;stroke:#1a2e35;stroke-width:1;stroke-linecap:butt;stroke-linejoin:round;stroke-miterlimit:10;stroke-dasharray:none;stroke-opacity:1"
           id="path138" /><path
           d="m 140.356,274.535 h -4.615 v 4.758 h 4.615 z"
           style="fill:none;stroke:#1a2e35;stroke-width:1;stroke-linecap:butt;stroke-linejoin:round;stroke-miterlimit:10;stroke-dasharray:none;stroke-opacity:1"
           id="path140" /><path
           d="m 147.278,274.535 h -4.615 v 4.758 h 4.615 z"
           style="fill:none;stroke:#1a2e35;stroke-width:1;stroke-linecap:butt;stroke-linejoin:round;stroke-miterlimit:10;stroke-dasharray:none;stroke-opacity:1"
           id="path142" /><path
           d="M 78.193,281.985 H 43.906 v -49.401 h 34.287 z"
           style="fill:none;stroke:#1a2e35;stroke-width:1;stroke-linecap:butt;stroke-linejoin:round;stroke-miterlimit:10;stroke-dasharray:none;stroke-opacity:1"
           id="path144" /><path
           d="M 71.974,281.985 H 50.125 v -49.401 h 21.849 z"
           style="fill:none;stroke:#1a2e35;stroke-width:1;stroke-linecap:butt;stroke-linejoin:round;stroke-miterlimit:10;stroke-dasharray:none;stroke-opacity:1"
           id="path146" /><path
           d="M 71.974,281.985 H 50.125 v -15.289 h 21.849 z"
           style="fill:none;stroke:#1a2e35;stroke-width:1;stroke-linecap:butt;stroke-linejoin:round;stroke-miterlimit:10;stroke-dasharray:none;stroke-opacity:1"
           id="path148" /></g></g><g
       id="g150"><g
         id="g152"
         clip-path="url(#clipPath156)"><g
           id="g158"
           transform="translate(379.4004,399.9634)"><path
             d="m 0,0 h -187.146 c -3.138,9.313 -4.764,19.067 -4.814,28.895 l -0.086,16.455 c -0.014,2.581 2.075,4.681 4.656,4.681 H 0.236 c 2.584,0 4.675,-2.105 4.657,-4.689 L 4.779,28.657 C 4.715,19.259 3.21,9.926 0.318,0.984 Z"
             style="fill:none;stroke:#1a2e35;stroke-width:1;stroke-linecap:butt;stroke-linejoin:round;stroke-miterlimit:10;stroke-dasharray:none;stroke-opacity:1"
             id="path160" /></g><path
           d="m 204.341,399.963 h 162.973 v 7.641 H 204.341 Z"
           style="fill:none;stroke:#1a2e35;stroke-width:1;stroke-linecap:butt;stroke-linejoin:round;stroke-miterlimit:10;stroke-dasharray:none;stroke-opacity:1"
           id="path162" /><g
           id="g164"
           transform="translate(333.667,383.9053)"><path
             d="M 0,0 C 3.555,0 6.748,1.54 8.978,3.976 L 6.286,6.952 C 4.783,5.15 2.524,4 0,4 -2.782,4 -5.24,5.397 -6.72,7.524 L -9.544,4.632 C -7.31,1.815 -3.866,0 0,0"
             style="fill:#5ae4a7;fill-opacity:1;fill-rule:nonzero;stroke:none"
             id="path166" /></g><g
           id="g168"
           transform="translate(333.667,390.2422)"><path
             d="M 0,0 C 1.923,0 3.627,0.938 4.693,2.376 L 1.817,5.557 C 1.677,4.677 0.919,4 0,4 c -1.019,0 -1.847,0.829 -1.847,1.847 0,0.126 0.013,0.249 0.037,0.368 L -5.044,2.904 C -4.028,1.17 -2.15,0 0,0"
             style="fill:#5ae4a7;fill-opacity:1;fill-rule:nonzero;stroke:none"
             id="path170" /></g><g
           id="g172"
           transform="translate(333.4307,398.0688)"><path
             d="m 0,0 -0.18,-0.184 c 0.101,0.023 0.204,0.035 0.31,0.04 z"
             style="fill:#5ae4a7;fill-opacity:1;fill-rule:nonzero;stroke:none"
             id="path174" /></g><g
           id="g176"
           transform="translate(348.6367,381.2549)"><path
             d="m 0,0 c -3.824,-3.858 -9.121,-6.255 -14.97,-6.255 -6.283,0 -11.916,2.776 -15.782,7.149 l -2.814,-2.882 c 4.593,-5.074 11.228,-8.267 18.596,-8.267 6.879,0 13.119,2.785 17.657,7.285 z"
             style="fill:#5ae4a7;fill-opacity:1;fill-rule:nonzero;stroke:none"
             id="path178" /></g><g
           id="g180"
           transform="translate(333.667,377.1157)"><path
             d="M 0,0 C 5.304,0 10.1,2.193 13.546,5.714 L 10.854,8.69 C 8.124,5.809 4.272,4 0,4 -4.623,4 -8.761,6.107 -11.51,9.409 L -14.305,6.547 C -10.823,2.545 -5.708,0 0,0"
             style="fill:#5ae4a7;fill-opacity:1;fill-rule:nonzero;stroke:none"
             id="path182" /></g></g></g><path
       d="m 438.186,98.393 h -100.38 v 12.461 h 100.38 z"
       style="fill:none;stroke:#1a2e35;stroke-width:1;stroke-linecap:butt;stroke-linejoin:round;stroke-miterlimit:10;stroke-dasharray:none;stroke-opacity:1"
       id="path184" /><path
       d="M 481.849,98.413 H 294.143 V 41.6 h 187.706 z"
       style="fill:none;stroke:#1a2e35;stroke-width:1;stroke-linecap:butt;stroke-linejoin:round;stroke-miterlimit:10;stroke-dasharray:none;stroke-opacity:1"
       id="path186" /><path
       d="M 476.85,94.783 H 299.142 V 45.229 H 476.85 Z"
       style="fill:none;stroke:#1a2e35;stroke-width:1;stroke-linecap:butt;stroke-linejoin:round;stroke-miterlimit:10;stroke-dasharray:none;stroke-opacity:1"
       id="path188" /><g
       id="g190"
       transform="translate(358.4844,95.0117)"><path
         d="M 0,0 V -49.755"
         style="fill:none;stroke:#1a2e35;stroke-width:1;stroke-linecap:butt;stroke-linejoin:round;stroke-miterlimit:10;stroke-dasharray:none;stroke-opacity:1"
         id="path192" /></g><g
       id="g194"
       transform="translate(416.7002,95.0117)"><path
         d="M 0,0 V -49.755"
         style="fill:none;stroke:#1a2e35;stroke-width:1;stroke-linecap:butt;stroke-linejoin:round;stroke-miterlimit:10;stroke-dasharray:none;stroke-opacity:1"
         id="path196" /></g><path
       d="m 307.6,133.881 h 25.349 V 98.393 H 307.6 Z"
       style="fill:none;stroke:#1a2e35;stroke-width:1;stroke-linecap:butt;stroke-linejoin:round;stroke-miterlimit:10;stroke-dasharray:none;stroke-opacity:1"
       id="path198" /><path
       d="m 442.583,133.881 h 25.349 V 98.393 h -25.349 z"
       style="fill:none;stroke:#1a2e35;stroke-width:1;stroke-linecap:butt;stroke-linejoin:round;stroke-miterlimit:10;stroke-dasharray:none;stroke-opacity:1"
       id="path200" /><g
       id="g202"><g
         id="g204"
         clip-path="url(#clipPath208)"><g
           id="g210"
           transform="translate(389.8955,126.8486)"><path
             d="m 0,0 c -3.555,0 -6.748,-1.539 -8.978,-3.976 l 2.692,-2.976 C -4.784,-5.149 -2.524,-4 0,-4 2.781,-4 5.239,-5.397 6.719,-7.524 l 2.824,2.892 C 7.31,-1.815 3.866,0 0,0"
             style="fill:#5ae4a7;fill-opacity:1;fill-rule:nonzero;stroke:none"
             id="path212" /></g><g
           id="g214"
           transform="translate(389.8955,120.5117)"><path
             d="m 0,0 c -1.923,0 -3.628,-0.937 -4.694,-2.376 l 2.877,-3.181 C -1.677,-4.677 -0.919,-4 0,-4 c 1.019,0 1.847,-0.828 1.847,-1.847 0,-0.126 -0.013,-0.249 -0.037,-0.368 l 3.234,3.312 C 4.027,-1.17 2.15,0 0,0"
             style="fill:#5ae4a7;fill-opacity:1;fill-rule:nonzero;stroke:none"
             id="path216" /></g><g
           id="g218"
           transform="translate(390.1309,112.6855)"><path
             d="M 0,0 0.181,0.184 C 0.08,0.161 -0.023,0.149 -0.13,0.144 Z"
             style="fill:#5ae4a7;fill-opacity:1;fill-rule:nonzero;stroke:none"
             id="path220" /></g><g
           id="g222"
           transform="translate(374.9258,129.499)"><path
             d="m 0,0 c 3.823,3.859 9.121,6.255 14.97,6.255 6.282,0 11.915,-2.776 15.782,-7.149 l 2.814,2.882 C 28.973,7.062 22.337,10.255 14.97,10.255 8.09,10.255 1.851,7.471 -2.687,2.971 Z"
             style="fill:#5ae4a7;fill-opacity:1;fill-rule:nonzero;stroke:none"
             id="path224" /></g><g
           id="g226"
           transform="translate(389.8955,133.6387)"><path
             d="m 0,0 c -5.304,0 -10.101,-2.193 -13.546,-5.714 l 2.692,-2.976 C -8.124,-5.81 -4.273,-4 0,-4 4.622,-4 8.76,-6.107 11.509,-9.409 l 2.795,2.862 C 10.823,-2.545 5.708,0 0,0"
             style="fill:#5ae4a7;fill-opacity:1;fill-rule:nonzero;stroke:none"
             id="path228" /></g></g></g><g
       id="g230"><g
         id="g232"
         clip-path="url(#clipPath236)"><g
           id="g238"
           transform="translate(476.4395,428.1099)"><path
             d="m 0,0 c 0,-3.204 -2.598,-5.8 -5.801,-5.8 -3.203,0 -5.8,2.596 -5.8,5.8 0,3.203 2.597,5.8 5.8,5.8 C -2.598,5.8 0,3.203 0,0 Z"
             style="fill:none;stroke:#1a2e35;stroke-width:1;stroke-linecap:butt;stroke-linejoin:round;stroke-miterlimit:10;stroke-dasharray:none;stroke-opacity:1"
             id="path240" /></g><g
           id="g242"
           transform="translate(485.042,385.1826)"><path
             d="m 0,0 h -28.807 v 22.725 c 0,7.955 6.45,14.403 14.404,14.403 C -6.448,37.128 0,30.68 0,22.725 Z"
             style="fill:none;stroke:#1a2e35;stroke-width:1;stroke-linecap:butt;stroke-linejoin:round;stroke-miterlimit:10;stroke-dasharray:none;stroke-opacity:1"
             id="path244" /></g><g
           id="g246"
           transform="translate(470.6387,433.9097)"><path
             d="M 0,0 V 28.09"
             style="fill:none;stroke:#1a2e35;stroke-width:2;stroke-linecap:butt;stroke-linejoin:round;stroke-miterlimit:10;stroke-dasharray:none;stroke-opacity:1"
             id="path248" /></g><g
           id="g250"
           transform="translate(89.5205,428.1099)"><path
             d="m 0,0 c 0,-3.204 -2.597,-5.8 -5.8,-5.8 -3.203,0 -5.8,2.596 -5.8,5.8 0,3.203 2.597,5.8 5.8,5.8 C -2.597,5.8 0,3.203 0,0 Z"
             style="fill:none;stroke:#1a2e35;stroke-width:1;stroke-linecap:butt;stroke-linejoin:round;stroke-miterlimit:10;stroke-dasharray:none;stroke-opacity:1"
             id="path252" /></g><g
           id="g254"
           transform="translate(98.1235,385.1826)"><path
             d="m 0,0 h -28.807 v 22.725 c 0,7.955 6.449,14.403 14.404,14.403 C -6.448,37.128 0,30.68 0,22.725 Z"
             style="fill:none;stroke:#1a2e35;stroke-width:1;stroke-linecap:butt;stroke-linejoin:round;stroke-miterlimit:10;stroke-dasharray:none;stroke-opacity:1"
             id="path256" /></g><g
           id="g258"
           transform="translate(83.7202,433.9097)"><path
             d="M 0,0 V 28.09"
             style="fill:none;stroke:#1a2e35;stroke-width:2;stroke-linecap:butt;stroke-linejoin:round;stroke-miterlimit:10;stroke-dasharray:none;stroke-opacity:1"
             id="path260" /></g><g
           id="g262"
           transform="translate(117.8257,389.6714)"><path
             d="M 0,0 C 0,3.554 -1.54,6.748 -3.976,8.978 L -6.952,6.286 C -5.15,4.784 -4,2.524 -4,0 -4,-2.782 -5.397,-5.24 -7.524,-6.719 l 2.892,-2.824 C -1.815,-7.31 0,-3.866 0,0"
             style="fill:#5ae4a7;fill-opacity:1;fill-rule:nonzero;stroke:none"
             id="path264" /></g><g
           id="g266"
           transform="translate(111.4888,389.6714)"><path
             d="M 0,0 C 0,1.923 -0.937,3.627 -2.375,4.694 L -5.556,1.817 C -4.676,1.677 -4,0.919 -4,0 c 0,-1.019 -0.829,-1.847 -1.847,-1.847 -0.126,0 -0.249,0.013 -0.368,0.037 l 3.312,-3.233 C -1.17,-4.028 0,-2.15 0,0"
             style="fill:#5ae4a7;fill-opacity:1;fill-rule:nonzero;stroke:none"
             id="path268" /></g><g
           id="g270"
           transform="translate(103.6621,389.4355)"><path
             d="M 0,0 0.184,-0.18 C 0.161,-0.08 0.15,0.024 0.144,0.13 Z"
             style="fill:#5ae4a7;fill-opacity:1;fill-rule:nonzero;stroke:none"
             id="path272" /></g><g
           id="g274"
           transform="translate(120.4761,404.6411)"><path
             d="m 0,0 c 3.859,-3.824 6.255,-9.121 6.255,-14.97 0,-6.282 -2.776,-11.915 -7.149,-15.782 l 2.882,-2.814 c 5.074,4.593 8.267,11.229 8.267,18.596 0,6.88 -2.785,13.119 -7.284,17.657 z"
             style="fill:#5ae4a7;fill-opacity:1;fill-rule:nonzero;stroke:none"
             id="path276" /></g><g
           id="g278"
           transform="translate(124.6152,389.6714)"><path
             d="M 0,0 C 0,5.304 -2.193,10.1 -5.713,13.546 L -8.69,10.854 C -5.809,8.124 -4,4.273 -4,0 -4,-4.623 -6.107,-8.76 -9.409,-11.509 l 2.863,-2.795 C -2.545,-10.823 0,-5.708 0,0"
             style="fill:#5ae4a7;fill-opacity:1;fill-rule:nonzero;stroke:none"
             id="path280" /></g></g></g><path
       d="M 307.106,217.314 H 474.342 V 329.449 H 307.106 Z"
       style="fill:none;stroke:#1a2e35;stroke-width:1;stroke-linecap:butt;stroke-linejoin:round;stroke-miterlimit:10;stroke-dasharray:none;stroke-opacity:1"
       id="path282" /><path
       d="M 311.646,222.048 H 469.804 V 324.716 H 311.646 Z"
       style="fill:none;stroke:#1a2e35;stroke-width:1;stroke-linecap:butt;stroke-linejoin:round;stroke-miterlimit:10;stroke-dasharray:none;stroke-opacity:1"
       id="path284" /><g
       id="g286"><g
         id="g288"
         clip-path="url(#clipPath292)"><g
           id="g294"
           transform="translate(389.8955,344.8491)"><path
             d="m 0,0 c -3.555,0 -6.748,-1.54 -8.978,-3.976 l 2.692,-2.976 C -4.784,-5.15 -2.524,-4 0,-4 2.781,-4 5.239,-5.398 6.719,-7.524 l 2.824,2.892 C 7.31,-1.816 3.866,0 0,0"
             style="fill:#5ae4a7;fill-opacity:1;fill-rule:nonzero;stroke:none"
             id="path296" /></g><g
           id="g298"
           transform="translate(389.8955,338.5122)"><path
             d="m 0,0 c -1.923,0 -3.628,-0.938 -4.694,-2.376 l 2.877,-3.181 C -1.677,-4.677 -0.919,-4 0,-4 c 1.019,0 1.847,-0.829 1.847,-1.847 0,-0.126 -0.013,-0.249 -0.037,-0.368 l 3.234,3.311 C 4.027,-1.17 2.15,0 0,0"
             style="fill:#5ae4a7;fill-opacity:1;fill-rule:nonzero;stroke:none"
             id="path300" /></g><g
           id="g302"
           transform="translate(390.1309,330.6851)"><path
             d="M 0,0 0.181,0.185 C 0.08,0.161 -0.023,0.15 -0.13,0.144 Z"
             style="fill:#5ae4a7;fill-opacity:1;fill-rule:nonzero;stroke:none"
             id="path304" /></g><g
           id="g306"
           transform="translate(374.9258,347.499)"><path
             d="m 0,0 c 3.823,3.859 9.121,6.255 14.97,6.255 6.282,0 11.915,-2.776 15.782,-7.149 l 2.814,2.883 C 28.973,7.062 22.337,10.255 14.97,10.255 8.09,10.255 1.851,7.47 -2.687,2.971 Z"
             style="fill:#5ae4a7;fill-opacity:1;fill-rule:nonzero;stroke:none"
             id="path308" /></g><g
           id="g310"
           transform="translate(389.8955,351.6387)"><path
             d="m 0,0 c -5.304,0 -10.101,-2.194 -13.546,-5.714 l 2.692,-2.976 C -8.124,-5.809 -4.273,-4 0,-4 4.622,-4 8.76,-6.107 11.509,-9.409 l 2.795,2.862 C 10.823,-2.545 5.708,0 0,0"
             style="fill:#5ae4a7;fill-opacity:1;fill-rule:nonzero;stroke:none"
             id="path312" /></g></g></g><g
       id="g314"
       transform="translate(236.645,353.0171)"><path
         d="m 0,0 -0.265,-71.045 -42.129,54.832"
         style="fill:none;stroke:#1a2e35;stroke-width:1;stroke-linecap:butt;stroke-linejoin:miter;stroke-miterlimit:10;stroke-dasharray:2;stroke-dashoffset:0;stroke-opacity:1"
         id="path316" /></g><g
       id="g318"
       transform="translate(174.4121,265.165)"><path
         d="M 0,0 59.993,16.168 -0.328,39.036"
         style="fill:none;stroke:#1a2e35;stroke-width:1;stroke-linecap:butt;stroke-linejoin:miter;stroke-miterlimit:10;stroke-dasharray:2;stroke-dashoffset:0;stroke-opacity:1"
         id="path320" /></g><g
       id="g322"
       transform="translate(234.4048,281.3335)"><path
         d="M 0,0 -35.112,-45.699"
         style="fill:none;stroke:#1a2e35;stroke-width:1;stroke-linecap:butt;stroke-linejoin:miter;stroke-miterlimit:10;stroke-dasharray:2;stroke-dashoffset:0;stroke-opacity:1"
         id="path324" /></g><g
       id="g326"><g
         id="g328"
         clip-path="url(#clipPath332)"><g
           id="g334"
           transform="translate(238.041,350.3955)"><path
             d="M 0,0 C -0.333,0.006 -0.666,0.01 -1,0.011"
             style="fill:none;stroke:#1a2e35;stroke-width:1;stroke-linecap:butt;stroke-linejoin:miter;stroke-miterlimit:10;stroke-dasharray:none;stroke-opacity:1"
             id="path336" /></g><g
           id="g338"
           transform="translate(235.0332,350.3833)"><path
             d="m 0,0 c -1.416,-0.038 -2.839,-0.123 -4.269,-0.254 -35.704,-3.289 -61.981,-34.899 -58.691,-70.602 1.856,-20.152 12.735,-37.301 28.28,-47.825"
             style="fill:none;stroke:#1a2e35;stroke-width:1;stroke-linecap:butt;stroke-linejoin:miter;stroke-miterlimit:10;stroke-dasharray:2.008, 2.008;stroke-dashoffset:0;stroke-opacity:1"
             id="path340" /></g><g
           id="g342"
           transform="translate(201.189,231.1455)"><path
             d="M 0,0 C 0.279,-0.183 0.559,-0.363 0.84,-0.541"
             style="fill:none;stroke:#1a2e35;stroke-width:1;stroke-linecap:butt;stroke-linejoin:miter;stroke-miterlimit:10;stroke-dasharray:none;stroke-opacity:1"
             id="path344" /></g><g
           id="g346"
           transform="translate(188.7822,303.1108)"><path
             d="M 0,0 C 0.003,7.796 -6.314,14.12 -14.111,14.123 -21.907,14.126 -28.23,7.809 -28.234,0.012 -28.237,-7.785 -21.919,-14.107 -14.123,-14.111 -6.327,-14.114 -0.003,-7.797 0,0"
             style="fill:#5ae4a7;fill-opacity:1;fill-rule:nonzero;stroke:none"
             id="path348" /></g><g
           id="g350"
           transform="translate(174.8257,308.4678)"><path
             d="m 0,0 c -2.685,0.001 -4.87,-2.183 -4.872,-4.867 0,-0.851 0.218,-1.671 0.648,-2.439 l 0.033,-0.069 c 0.029,-0.068 0.705,-1.687 1.254,-3.369 0.021,-0.072 0.038,-0.121 0.055,-0.17 0.023,-0.072 0.038,-0.125 0.063,-0.177 0.494,-1.15 1.593,-1.876 2.814,-1.876 1.087,-10e-4 1.998,0.552 2.567,1.557 0.192,0.342 0.3,0.721 0.414,1.123 0.063,0.221 0.127,0.443 0.204,0.666 0.187,0.543 0.443,1.05 0.69,1.541 0.169,0.337 0.339,0.673 0.483,1.018 0.355,0.854 0.514,1.529 0.515,2.19 C 4.869,-2.187 2.685,-0.001 0,0 m -0.006,-14.312 c -1.759,10e-4 -3.343,1.046 -4.036,2.664 -0.041,0.084 -0.079,0.194 -0.114,0.305 -0.02,0.056 -0.044,0.13 -0.066,0.204 -0.484,1.48 -1.095,2.971 -1.195,3.212 -0.531,0.961 -0.799,1.99 -0.799,3.06 0.002,3.427 2.79,6.213 6.217,6.211 C 3.427,1.343 6.213,-1.446 6.212,-4.872 6.211,-5.719 6.021,-6.554 5.594,-7.579 5.438,-7.953 5.254,-8.319 5.07,-8.685 4.833,-9.157 4.608,-9.603 4.45,-10.06 c -0.068,-0.199 -0.125,-0.398 -0.18,-0.594 -0.131,-0.46 -0.266,-0.936 -0.539,-1.418 -0.805,-1.424 -2.167,-2.241 -3.737,-2.24"
             style="fill:#1a2e35;fill-opacity:1;fill-rule:nonzero;stroke:none"
             id="path352" /></g><g
           id="g354"
           transform="translate(174.8364,310.1753)"><path
             d="m 0,0 c -0.371,0 -0.672,0.301 -0.672,0.672 l 0.002,3.11 c 0,0.371 0.301,0.672 0.672,0.672 C 0.373,4.453 0.674,4.152 0.674,3.781 L 0.672,0.672 C 0.672,0.301 0.371,0 0,0"
             style="fill:#1a2e35;fill-opacity:1;fill-rule:nonzero;stroke:none"
             id="path356" /></g><g
           id="g358"
           transform="translate(167.3545,302.9521)"><path
             d="m 0,0 -2.437,0.001 c -0.371,0 -0.672,0.301 -0.671,0.672 0,0.371 0.301,0.673 0.672,0.672 L 0.001,1.344 C 0.372,1.344 0.673,1.043 0.673,0.672 0.672,0.3 0.372,0 0,0"
             style="fill:#1a2e35;fill-opacity:1;fill-rule:nonzero;stroke:none"
             id="path360" /></g><g
           id="g362"
           transform="translate(184.5806,302.9443)"><path
             d="m 0,0 -2.437,0.001 c -0.371,0 -0.672,0.301 -0.672,0.673 10e-4,0.371 0.302,0.672 0.673,0.672 L 0.001,1.345 C 0.372,1.344 0.673,1.043 0.673,0.672 0.672,0.301 0.372,0 0,0"
             style="fill:#1a2e35;fill-opacity:1;fill-rule:nonzero;stroke:none"
             id="path364" /></g><g
           id="g366"
           transform="translate(169.1216,308.4971)"><path
             d="m 0,0 c -0.172,0 -0.344,0.066 -0.475,0.197 l -1.932,1.934 c -0.262,0.263 -0.262,0.688 0,0.95 0.263,0.263 0.689,0.263 0.951,0 L 0.476,1.147 C 0.738,0.885 0.738,0.459 0.476,0.197 0.344,0.065 0.172,0 0,0"
             style="fill:#1a2e35;fill-opacity:1;fill-rule:nonzero;stroke:none"
             id="path368" /></g><g
           id="g370"
           transform="translate(180.7178,308.4922)"><path
             d="m 0,0 c -0.172,0 -0.344,0.066 -0.475,0.197 -0.263,0.263 -0.262,0.688 0,0.95 L 1.458,3.08 C 1.721,3.342 2.147,3.342 2.409,3.079 2.672,2.816 2.671,2.391 2.409,2.128 L 0.476,0.197 C 0.344,0.065 0.172,0 0,0"
             style="fill:#1a2e35;fill-opacity:1;fill-rule:nonzero;stroke:none"
             id="path372" /></g><g
           id="g374"
           transform="translate(210.6377,334.2305)"><path
             d="M 0,0 C 0.063,7.796 -6.206,14.167 -14.002,14.23 -21.799,14.293 -28.17,8.024 -28.233,0.228 -28.296,-7.568 -22.027,-13.939 -14.23,-14.002 -6.434,-14.065 -0.063,-7.796 0,0"
             style="fill:#5ae4a7;fill-opacity:1;fill-rule:nonzero;stroke:none"
             id="path376" /></g><g
           id="g378"
           transform="translate(196.4995,326.3799)"><path
             d="m 0,0 c -4.384,0.036 -7.922,3.631 -7.887,8.016 0.026,3.203 1.955,6.063 4.915,7.286 0.576,0.239 1.237,-0.035 1.474,-0.612 0.239,-0.576 -0.035,-1.236 -0.611,-1.474 C -4.229,12.34 -5.611,10.292 -5.63,7.998 -5.655,4.858 -3.122,2.283 0.019,2.257 3.158,2.232 5.733,4.766 5.758,7.906 5.776,10.075 4.585,12.037 2.652,13.025 2.097,13.309 1.877,13.989 2.161,14.544 2.444,15.099 3.124,15.319 3.68,15.035 6.379,13.655 8.04,10.917 8.016,7.887 7.98,3.503 4.384,-0.035 0,0"
             style="fill:#1a2e35;fill-opacity:1;fill-rule:nonzero;stroke:none"
             id="path380" /></g><g
           id="g382"
           transform="translate(196.5747,335.6836)"><path
             d="M 0,0 C -0.623,0.005 -1.125,0.515 -1.119,1.138 L -1.064,7.96 C -1.059,8.584 -0.55,9.085 0.074,9.08 0.697,9.075 1.198,8.565 1.193,7.942 L 1.138,1.12 C 1.133,0.496 0.624,-0.005 0,0"
             style="fill:#1a2e35;fill-opacity:1;fill-rule:nonzero;stroke:none"
             id="path384" /></g><g
           id="g386"
           transform="translate(213.4048,233.8301)"><path
             d="m 0,0 c 0.028,7.797 -6.269,14.14 -14.065,14.168 -7.797,0.029 -14.14,-6.269 -14.168,-14.065 -0.029,-7.796 6.268,-14.14 14.065,-14.168 C -6.372,-14.094 -0.028,-7.797 0,0"
             style="fill:#5ae4a7;fill-opacity:1;fill-rule:nonzero;stroke:none"
             id="path388" /></g><g
           id="g390"
           transform="translate(204.0894,228.0596)"><path
             d="m 0,0 c 0,-0.101 -0.083,-0.184 -0.185,-0.183 l -8.147,0.03 c -0.101,0 -0.183,0.083 -0.183,0.184 l 0.03,8.147 c 0,0.101 0.083,0.184 0.185,0.183 L -0.154,8.332 C -0.053,8.331 0.03,8.248 0.029,8.147 Z m -0.149,9.677 -4.695,0.016 0.01,2.701 c 0.007,2.075 -1.675,3.769 -3.751,3.777 l -0.217,0.001 c -2.075,0.008 -3.771,-1.675 -3.778,-3.751 l -0.013,-3.417 c -10e-4,-0.371 0.299,-0.674 0.67,-0.675 0.371,-0.001 0.673,0.299 0.675,0.67 l 0.012,3.417 c 0.005,1.335 1.094,2.416 2.429,2.411 l 0.217,-10e-4 c 1.334,-0.004 2.416,-1.094 2.411,-2.428 l -0.009,-2.7 -2.107,0.008 C -9.139,9.709 -9.827,9.025 -9.83,8.183 L -9.859,0.036 c -0.003,-0.843 0.68,-1.531 1.523,-1.534 l 8.146,-0.029 c 0.843,-0.003 1.531,0.679 1.534,1.522 l 0.03,8.148 c 0.003,0.842 -0.68,1.53 -1.523,1.534"
             style="fill:#1a2e35;fill-opacity:1;fill-rule:nonzero;stroke:none"
             id="path392" /></g><g
           id="g394"
           transform="translate(199.854,234.1035)"><path
             d="m 0,0 c -0.629,0.002 -1.141,-0.506 -1.144,-1.135 -0.002,-0.472 0.284,-0.878 0.692,-1.053 l -0.006,-1.879 0.887,-0.004 0.007,1.881 c 0.409,0.17 0.697,0.575 0.699,1.046 C 1.137,-0.515 0.629,-0.003 0,0"
             style="fill:#1a2e35;fill-opacity:1;fill-rule:nonzero;stroke:none"
             id="path396" /></g><g
           id="g398"
           transform="translate(188.5273,264.959)"><path
             d="m 0,0 c 0.114,7.795 -6.113,14.208 -13.909,14.321 -7.796,0.114 -14.208,-6.113 -14.322,-13.909 -0.114,-7.796 6.114,-14.208 13.91,-14.322 C -6.525,-14.023 -0.114,-7.796 0,0"
             style="fill:#5ae4a7;fill-opacity:1;fill-rule:nonzero;stroke:none"
             id="path400" /></g><g
           id="g402"
           transform="translate(173.2495,257.5996)"><path
             d="m 0,0 c -1.837,0.027 -3.31,1.543 -3.283,3.38 0.017,1.187 0.657,2.25 1.71,2.842 l 0.387,0.218 0.121,8.262 c 0.01,0.67 0.563,1.207 1.233,1.197 0.67,-0.009 1.207,-0.563 1.197,-1.232 L 1.245,6.456 1.65,6.231 C 2.735,5.63 3.398,4.5 3.38,3.283 3.353,1.446 1.837,-0.027 0,0 m 2.805,7.334 0.107,7.31 c 0.022,1.523 -1.199,2.78 -2.722,2.802 -1.522,0.022 -2.779,-1.198 -2.802,-2.721 l -0.008,-0.574 -1.664,0.025 c -0.427,0.006 -0.778,-0.335 -0.785,-0.762 -0.006,-0.428 0.335,-0.779 0.762,-0.785 l 1.664,-0.025 -0.017,-1.146 -1.663,0.024 C -4.75,11.488 -5.102,11.147 -5.108,10.72 -5.114,10.292 -4.773,9.941 -4.346,9.935 L -2.682,9.911 -2.699,8.764 -4.363,8.788 C -4.79,8.794 -5.141,8.453 -5.147,8.026 -5.154,7.599 -4.812,7.247 -4.385,7.241 L -2.859,7.219 C -4.063,6.318 -4.808,4.91 -4.83,3.402 -4.869,0.712 -2.712,-1.508 -0.022,-1.547 2.667,-1.586 4.888,0.57 4.927,3.26 4.951,4.891 4.148,6.413 2.805,7.334"
             style="fill:#1a2e35;fill-opacity:1;fill-rule:nonzero;stroke:none"
             id="path404" /></g><g
           id="g406"
           transform="translate(180.4424,268.5029)"><path
             d="M 0,0 C -0.853,0.012 -1.537,0.716 -1.524,1.57 -1.512,2.423 -0.808,3.106 0.045,3.094 0.898,3.082 1.582,2.377 1.569,1.524 1.557,0.671 0.853,-0.013 0,0 m 0.067,4.641 c -1.706,0.025 -3.114,-1.343 -3.139,-3.049 -0.025,-1.706 1.343,-3.114 3.049,-3.139 1.707,-0.025 3.115,1.343 3.14,3.049 0.025,1.706 -1.343,3.114 -3.05,3.139"
             style="fill:#1a2e35;fill-opacity:1;fill-rule:nonzero;stroke:none"
             id="path408" /></g><g
           id="g410"
           transform="translate(250.7617,347.0937)"><path
             d="m 0,0 c 0.04,7.796 -6.248,14.149 -14.044,14.189 -7.797,0.04 -14.149,-6.248 -14.189,-14.044 -0.04,-7.797 6.248,-14.15 14.044,-14.189 C -6.393,-14.084 -0.04,-7.796 0,0"
             style="fill:#5ae4a7;fill-opacity:1;fill-rule:nonzero;stroke:none"
             id="path412" /></g><g
           id="g414"
           transform="translate(239.894,342.3213)"><path
             d="M 0,0 C -1.21,0.006 -2.192,0.797 -2.187,1.762 -2.182,2.727 -1.192,3.507 0.018,3.5 1.229,3.495 2.211,2.704 2.206,1.739 2.201,0.774 1.211,-0.006 0,0 m 1.986,10.222 c 0,-0.015 -0.013,-0.028 -0.029,-0.028 L -7,10.269 -6.96,12.465 1.997,12.391 Z M -10.467,0.054 c -1.211,0.006 -2.192,0.796 -2.187,1.761 0.005,0.965 0.994,1.746 2.205,1.739 C -9.238,3.548 -8.256,2.758 -8.261,1.793 -8.267,0.828 -9.256,0.047 -10.467,0.054 M 3.431,2.89 3.477,11.746 H 3.468 l 0.003,0.637 c 0.005,0.829 -0.666,1.506 -1.495,1.51 l -8.929,0.046 c -0.828,0.004 -1.505,-0.666 -1.509,-1.495 L -8.466,11.807 -8.474,10.276 -8.503,4.52 c -0.563,0.313 -1.225,0.505 -1.939,0.508 -2.024,0.011 -3.678,-1.427 -3.686,-3.205 -0.01,-1.778 1.629,-3.233 3.653,-3.243 2.024,-0.011 3.679,1.427 3.688,3.205 0.002,0.41 -0.092,0.799 -0.25,1.161 l 0.03,5.823 c 0.009,0 0.018,-0.003 0.028,-0.003 L 1.95,8.72 c 0.012,0 0.024,0.004 0.037,0.004 L 1.965,4.465 C 1.402,4.78 0.74,4.971 0.026,4.975 -1.999,4.985 -3.652,3.547 -3.661,1.769 -3.67,-0.009 -2.031,-1.463 -0.007,-1.474 2.017,-1.484 3.671,-0.046 3.68,1.731 3.682,2.141 3.588,2.529 3.431,2.89"
             style="fill:#1a2e35;fill-opacity:1;fill-rule:nonzero;stroke:none"
             id="path416" /></g><g
           id="g418"
           transform="translate(312.1709,293.7017)"><path
             d="M 0,0 C 0,0 4.799,-2.133 6.665,-6.665 8.531,-11.197 24.526,-52.251 25.06,-55.451 25.593,-58.65 7.998,-87.442 7.998,-87.442 l -5.065,4.799 5.598,23.46 -7.198,17.329 -3.999,5.598"
             style="fill:#5ae4a7;fill-opacity:1;fill-rule:nonzero;stroke:#1a2e35;stroke-width:1;stroke-linecap:butt;stroke-linejoin:round;stroke-miterlimit:10;stroke-dasharray:none;stroke-opacity:1"
             id="path420" /></g><g
           id="g422"
           transform="translate(332.9863,228.4287)"><path
             d="m 0,0 c -6.708,3.18 -11.856,1.518 -13.551,0.782 l -4.332,-18.152 5.066,-4.799 c 0,0 7.76,12.7 12.817,22.169"
             style="fill:#ffffff;fill-opacity:1;fill-rule:nonzero;stroke:none"
             id="path424" /></g><g
           id="g426"
           transform="translate(332.9863,228.4287)"><path
             d="m 0,0 c -6.708,3.18 -11.856,1.518 -13.551,0.782 l -4.332,-18.152 5.066,-4.799 c 0,0 7.76,12.7 12.817,22.169 z"
             style="fill:none;stroke:#1a2e35;stroke-width:1;stroke-linecap:butt;stroke-linejoin:round;stroke-miterlimit:10;stroke-dasharray:none;stroke-opacity:1"
             id="path428" /></g><g
           id="g430"
           transform="translate(313.0137,211.1387)"><path
             d="M 0,0 C 0,0 7.01,-13.906 6.122,-19.232 5.234,-24.558 2.867,-136.696 2.867,-136.696 l -15.386,-0.592 -14.498,110.659 -4.142,-0.592 -6.805,-111.251 -17.161,2.663 -5.326,108.884 -0.888,24.262 z"
             style="fill:#1a2e35;fill-opacity:1;fill-rule:nonzero;stroke:none"
             id="path432" /></g><g
           id="g434"
           transform="translate(313.0137,211.1387)"><path
             d="M 0,0 C 0,0 7.01,-13.906 6.122,-19.232 5.234,-24.558 2.867,-136.696 2.867,-136.696 l -15.386,-0.592 -14.498,110.659 -4.142,-0.592 -6.805,-111.251 -17.161,2.663 -5.326,108.884 -0.888,24.262 z"
             style="fill:none;stroke:#1a2e35;stroke-width:1;stroke-linecap:butt;stroke-linejoin:round;stroke-miterlimit:10;stroke-dasharray:none;stroke-opacity:1"
             id="path436" /></g><g
           id="g438"
           transform="translate(256.7051,123.5586)"><path
             d="m 0,0 c 0,0 1.292,0.199 2.057,0.854 0.765,0.657 0.656,0.657 2.404,-1.092 1.749,-1.748 1.311,-2.514 2.732,-1.421 1.421,1.094 1.093,1.53 2.514,-0.11 1.421,-1.638 1.094,-2.185 3.061,-1.857 1.967,0.328 2.295,0.874 2.295,-0.766 0,-1.638 -0.328,-2.076 0.546,-2.404 0.874,-0.327 1.967,-0.874 2.623,-1.748 0.656,-0.875 0.984,-0.437 1.312,-1.421 0.328,-0.984 0.983,-1.53 0.983,-1.53 z"
             style="fill:#5e5e5e;fill-opacity:1;fill-rule:nonzero;stroke:none"
             id="path440" /></g><g
           id="g442"
           transform="translate(256.7051,123.5586)"><path
             d="m 0,0 c 0,0 1.292,0.199 2.057,0.854 0.765,0.657 0.656,0.657 2.404,-1.092 1.749,-1.748 1.311,-2.514 2.732,-1.421 1.421,1.094 1.093,1.53 2.514,-0.11 1.421,-1.638 1.094,-2.185 3.061,-1.857 1.967,0.328 2.295,0.874 2.295,-0.766 0,-1.638 -0.328,-2.076 0.546,-2.404 0.874,-0.327 1.967,-0.874 2.623,-1.748 0.656,-0.875 0.984,-0.437 1.312,-1.421 0.328,-0.984 0.983,-1.53 0.983,-1.53 z"
             style="fill:none;stroke:#1a2e35;stroke-width:1;stroke-linecap:butt;stroke-linejoin:round;stroke-miterlimit:10;stroke-dasharray:none;stroke-opacity:1"
             id="path444" /></g><g
           id="g446"
           transform="translate(256.7949,123.2109)"><path
             d="m 0,0 c 0,0 1.312,-1.857 1.639,-3.935 0.328,-2.076 -0.327,-3.715 0.765,-4.699 1.093,-0.983 1.749,-0.547 1.967,-1.421 0.219,-0.874 -0.327,-1.749 0.219,-2.076 0.547,-0.328 2.732,1.093 2.732,0.437 0,-0.656 -0.218,-0.984 0.657,-0.656 0.874,0.329 0.874,1.421 1.42,0.329 0.546,-1.094 0.984,-2.515 1.312,-2.296 0.327,0.218 1.967,1.311 3.388,1.311 1.421,0 1.749,-0.327 2.076,-0.436 0.328,-0.11 0.875,-0.657 1.202,-0.11 0.328,0.546 3.245,2.064 3.245,2.064 z"
             style="fill:#5e5e5e;fill-opacity:1;fill-rule:nonzero;stroke:none"
             id="path448" /></g><g
           id="g450"
           transform="translate(256.7949,123.2109)"><path
             d="m 0,0 c 0,0 1.312,-1.857 1.639,-3.935 0.328,-2.076 -0.327,-3.715 0.765,-4.699 1.093,-0.983 1.749,-0.547 1.967,-1.421 0.219,-0.874 -0.327,-1.749 0.219,-2.076 0.547,-0.328 2.732,1.093 2.732,0.437 0,-0.656 -0.218,-0.984 0.657,-0.656 0.874,0.329 0.874,1.421 1.42,0.329 0.546,-1.094 0.984,-2.515 1.312,-2.296 0.327,0.218 1.967,1.311 3.388,1.311 1.421,0 1.749,-0.327 2.076,-0.436 0.328,-0.11 0.875,-0.657 1.202,-0.11 0.328,0.546 3.245,2.064 3.245,2.064 z"
             style="fill:none;stroke:#1a2e35;stroke-width:1;stroke-linecap:butt;stroke-linejoin:round;stroke-miterlimit:10;stroke-dasharray:none;stroke-opacity:1"
             id="path452" /></g><g
           id="g454"
           transform="translate(256.7051,123.5586)"><path
             d="M 0,0 20.712,-11.836 C 20.712,-11.836 5.622,-12.724 0,0"
             style="fill:#ffffff;fill-opacity:1;fill-rule:nonzero;stroke:none"
             id="path456" /></g><g
           id="g458"
           transform="translate(256.7051,123.5586)"><path
             d="M 0,0 20.712,-11.836 C 20.712,-11.836 5.622,-12.724 0,0 Z"
             style="fill:none;stroke:#1a2e35;stroke-width:1;stroke-linecap:butt;stroke-linejoin:round;stroke-miterlimit:10;stroke-dasharray:none;stroke-opacity:1"
             id="path460" /></g><g
           id="g462"
           transform="translate(295.54,140.6768)"><path
             d="M 0,0 C 0,0 0.396,1.246 0.148,2.223 -0.099,3.199 -0.147,3.102 2.197,3.89 4.541,4.679 5.031,3.946 4.685,5.705 4.338,7.464 3.801,7.364 5.9,7.908 c 2.101,0.543 2.445,0.007 3.026,1.914 0.581,1.908 0.238,2.445 1.706,1.716 1.469,-0.729 1.714,-1.218 2.396,-0.58 0.683,0.637 1.659,1.373 2.734,1.571 1.074,0.199 0.829,0.687 1.855,0.543 1.028,-0.143 1.808,0.2 1.808,0.2 z"
             style="fill:#5e5e5e;fill-opacity:1;fill-rule:nonzero;stroke:none"
             id="path464" /></g><g
           id="g466"
           transform="translate(295.54,140.6768)"><path
             d="M 0,0 C 0,0 0.396,1.246 0.148,2.223 -0.099,3.199 -0.147,3.102 2.197,3.89 4.541,4.679 5.031,3.946 4.685,5.705 4.338,7.464 3.801,7.364 5.9,7.908 c 2.101,0.543 2.445,0.007 3.026,1.914 0.581,1.908 0.238,2.445 1.706,1.716 1.469,-0.729 1.714,-1.218 2.396,-0.58 0.683,0.637 1.659,1.373 2.734,1.571 1.074,0.199 0.829,0.687 1.855,0.543 1.028,-0.143 1.808,0.2 1.808,0.2 z"
             style="fill:none;stroke:#1a2e35;stroke-width:1;stroke-linecap:butt;stroke-linejoin:round;stroke-miterlimit:10;stroke-dasharray:none;stroke-opacity:1"
             id="path468" /></g><g
           id="g470"
           transform="translate(295.8906,140.6025)"><path
             d="m 0,0 c 0,0 2.247,0.349 4.253,-0.281 2.006,-0.63 3.183,-1.948 4.55,-1.406 1.367,0.541 1.266,1.324 2.147,1.13 0.88,-0.193 1.42,-1.071 1.957,-0.727 0.536,0.344 0.237,2.932 0.823,2.641 0.588,-0.292 0.785,-0.633 0.879,0.296 0.096,0.929 -0.882,1.415 0.339,1.418 1.222,0.003 2.689,-0.237 2.639,0.154 -0.05,0.391 -0.3,2.345 0.332,3.618 0.632,1.272 1.072,1.421 1.315,1.666 0.245,0.244 0.977,0.491 0.633,1.027 -0.344,0.537 -0.406,3.824 -0.406,3.824 z"
             style="fill:#5e5e5e;fill-opacity:1;fill-rule:nonzero;stroke:none"
             id="path472" /></g><g
           id="g474"
           transform="translate(295.8906,140.6025)"><path
             d="m 0,0 c 0,0 2.247,0.349 4.253,-0.281 2.006,-0.63 3.183,-1.948 4.55,-1.406 1.367,0.541 1.266,1.324 2.147,1.13 0.88,-0.193 1.42,-1.071 1.957,-0.727 0.536,0.344 0.237,2.932 0.823,2.641 0.588,-0.292 0.785,-0.633 0.879,0.296 0.096,0.929 -0.882,1.415 0.339,1.418 1.222,0.003 2.689,-0.237 2.639,0.154 -0.05,0.391 -0.3,2.345 0.332,3.618 0.632,1.272 1.072,1.421 1.315,1.666 0.245,0.244 0.977,0.491 0.633,1.027 -0.344,0.537 -0.406,3.824 -0.406,3.824 z"
             style="fill:none;stroke:#1a2e35;stroke-width:1;stroke-linecap:butt;stroke-linejoin:round;stroke-miterlimit:10;stroke-dasharray:none;stroke-opacity:1"
             id="path476" /></g><g
           id="g478"
           transform="translate(295.54,140.6768)"><path
             d="M 0,0 19.812,13.286 C 19.812,13.286 13.896,-0.624 0,0"
             style="fill:#ffffff;fill-opacity:1;fill-rule:nonzero;stroke:none"
             id="path480" /></g><g
           id="g482"
           transform="translate(295.54,140.6768)"><path
             d="M 0,0 19.812,13.286 C 19.812,13.286 13.896,-0.624 0,0 Z"
             style="fill:none;stroke:#1a2e35;stroke-width:1;stroke-linecap:butt;stroke-linejoin:round;stroke-miterlimit:10;stroke-dasharray:none;stroke-opacity:1"
             id="path484" /></g><g
           id="g486"
           transform="translate(258.4805,77.1055)"><path
             d="m 0,0 c 0,0 -4.438,-1.479 -4.438,-3.255 0,-1.775 2.071,-16.569 2.071,-16.569 0,0 -10.06,-5.622 -10.948,-7.102 -0.888,-1.479 -0.296,-8.58 -0.296,-8.58 h 30.18 c 0,0 0.888,7.397 0.888,10.06 0,2.663 -0.888,7.693 -0.888,7.693 l 1.776,15.09 C 18.345,-2.663 9.764,3.846 0,0"
             style="fill:#ffffff;fill-opacity:1;fill-rule:nonzero;stroke:none"
             id="path488" /></g><g
           id="g490"
           transform="translate(258.4805,77.1055)"><path
             d="m 0,0 c 0,0 -4.438,-1.479 -4.438,-3.255 0,-1.775 2.071,-16.569 2.071,-16.569 0,0 -10.06,-5.622 -10.948,-7.102 -0.888,-1.479 -0.296,-8.58 -0.296,-8.58 h 30.18 c 0,0 0.888,7.397 0.888,10.06 0,2.663 -0.888,7.693 -0.888,7.693 l 1.776,15.09 C 18.345,-2.663 9.764,3.846 0,0 Z"
             style="fill:none;stroke:#1a2e35;stroke-width:1;stroke-linecap:butt;stroke-linejoin:round;stroke-miterlimit:10;stroke-dasharray:none;stroke-opacity:1"
             id="path492" /></g><g
           id="g494"
           transform="translate(244.8696,41.5996)"><path
             d="m 0,0 h 30.18 c 0,0 0.19,1.587 0.394,3.551 H -0.18 C -0.138,1.666 0,0 0,0"
             style="fill:#ffffff;fill-opacity:1;fill-rule:nonzero;stroke:none"
             id="path496" /></g><g
           id="g498"
           transform="translate(244.8696,41.5996)"><path
             d="m 0,0 h 30.18 c 0,0 0.19,1.587 0.394,3.551 H -0.18 C -0.138,1.666 0,0 0,0 Z"
             style="fill:none;stroke:#1a2e35;stroke-width:1;stroke-linecap:butt;stroke-linejoin:round;stroke-miterlimit:10;stroke-dasharray:none;stroke-opacity:1"
             id="path500" /></g><g
           id="g502"
           transform="translate(270.9072,78.2891)"><path
             d="m 0,0 c 0,0 -3.551,3.55 -8.58,3.55 -5.03,0 -7.102,-2.958 -7.102,-2.958 l 2.959,-14.794 h 7.989 z"
             style="fill:#ffffff;fill-opacity:1;fill-rule:nonzero;stroke:none"
             id="path504" /></g><g
           id="g506"
           transform="translate(270.9072,78.2891)"><path
             d="m 0,0 c 0,0 -3.551,3.55 -8.58,3.55 -5.03,0 -7.102,-2.958 -7.102,-2.958 l 2.959,-14.794 h 7.989 z"
             style="fill:none;stroke:#1a2e35;stroke-width:1;stroke-linecap:butt;stroke-linejoin:round;stroke-miterlimit:10;stroke-dasharray:none;stroke-opacity:1"
             id="path508" /></g><g
           id="g510"
           transform="translate(267.3457,62.7188)"><path
             d="m 0,0 h -10.199 c -0.461,0 -0.834,0.374 -0.834,0.835 0,0.461 0.373,0.834 0.834,0.834 H 0 C 0.461,1.669 0.835,1.296 0.835,0.835 0.835,0.374 0.461,0 0,0"
             style="fill:#ffffff;fill-opacity:1;fill-rule:nonzero;stroke:none"
             id="path512" /></g><g
           id="g514"
           transform="translate(267.3457,62.7188)"><path
             d="m 0,0 h -10.199 c -0.461,0 -0.834,0.374 -0.834,0.835 0,0.461 0.373,0.834 0.834,0.834 H 0 C 0.461,1.669 0.835,1.296 0.835,0.835 0.835,0.374 0.461,0 0,0 Z"
             style="fill:none;stroke:#1a2e35;stroke-width:1;stroke-linecap:butt;stroke-linejoin:round;stroke-miterlimit:10;stroke-dasharray:none;stroke-opacity:1"
             id="path516" /></g><g
           id="g518"
           transform="translate(267.3457,60.6787)"><path
             d="m 0,0 h -10.199 c -0.461,0 -0.834,0.374 -0.834,0.835 0,0.461 0.373,0.834 0.834,0.834 H 0 C 0.461,1.669 0.835,1.296 0.835,0.835 0.835,0.374 0.461,0 0,0"
             style="fill:#ffffff;fill-opacity:1;fill-rule:nonzero;stroke:none"
             id="path520" /></g><g
           id="g522"
           transform="translate(267.3457,60.6787)"><path
             d="m 0,0 h -10.199 c -0.461,0 -0.834,0.374 -0.834,0.835 0,0.461 0.373,0.834 0.834,0.834 H 0 C 0.461,1.669 0.835,1.296 0.835,0.835 0.835,0.374 0.461,0 0,0 Z"
             style="fill:none;stroke:#1a2e35;stroke-width:1;stroke-linecap:butt;stroke-linejoin:round;stroke-miterlimit:10;stroke-dasharray:none;stroke-opacity:1"
             id="path524" /></g><g
           id="g526"
           transform="translate(267.3457,58.6396)"><path
             d="m 0,0 h -10.199 c -0.461,0 -0.834,0.373 -0.834,0.834 0,0.461 0.373,0.835 0.834,0.835 H 0 C 0.461,1.669 0.835,1.295 0.835,0.834 0.835,0.373 0.461,0 0,0"
             style="fill:#ffffff;fill-opacity:1;fill-rule:nonzero;stroke:none"
             id="path528" /></g><g
           id="g530"
           transform="translate(267.3457,58.6396)"><path
             d="m 0,0 h -10.199 c -0.461,0 -0.834,0.373 -0.834,0.834 0,0.461 0.373,0.835 0.834,0.835 H 0 C 0.461,1.669 0.835,1.295 0.835,0.834 0.835,0.373 0.461,0 0,0 Z"
             style="fill:none;stroke:#1a2e35;stroke-width:1;stroke-linecap:butt;stroke-linejoin:round;stroke-miterlimit:10;stroke-dasharray:none;stroke-opacity:1"
             id="path532" /></g><g
           id="g534"
           transform="translate(267.3457,56.5996)"><path
             d="m 0,0 h -10.199 c -0.461,0 -0.834,0.373 -0.834,0.834 0,0.461 0.373,0.835 0.834,0.835 H 0 C 0.461,1.669 0.835,1.295 0.835,0.834 0.835,0.373 0.461,0 0,0"
             style="fill:#ffffff;fill-opacity:1;fill-rule:nonzero;stroke:none"
             id="path536" /></g><g
           id="g538"
           transform="translate(267.3457,56.5996)"><path
             d="m 0,0 h -10.199 c -0.461,0 -0.834,0.373 -0.834,0.834 0,0.461 0.373,0.835 0.834,0.835 H 0 C 0.461,1.669 0.835,1.295 0.835,0.834 0.835,0.373 0.461,0 0,0 Z"
             style="fill:none;stroke:#1a2e35;stroke-width:1;stroke-linecap:butt;stroke-linejoin:round;stroke-miterlimit:10;stroke-dasharray:none;stroke-opacity:1"
             id="path540" /></g><g
           id="g542"
           transform="translate(316.5752,77.1055)"><path
             d="m 0,0 c 0,0 4.438,-1.479 4.438,-3.255 0,-1.775 -2.071,-16.569 -2.071,-16.569 0,0 10.06,-5.622 10.947,-7.102 0.888,-1.479 0.296,-8.58 0.296,-8.58 h -30.179 c 0,0 -0.888,7.397 -0.888,10.06 0,2.663 0.888,7.693 0.888,7.693 l -1.776,15.09 c 0,0 8.581,6.509 18.345,2.663"
             style="fill:#ffffff;fill-opacity:1;fill-rule:nonzero;stroke:none"
             id="path544" /></g><g
           id="g546"
           transform="translate(316.5752,77.1055)"><path
             d="m 0,0 c 0,0 4.438,-1.479 4.438,-3.255 0,-1.775 -2.071,-16.569 -2.071,-16.569 0,0 10.06,-5.622 10.947,-7.102 0.888,-1.479 0.296,-8.58 0.296,-8.58 h -30.179 c 0,0 -0.888,7.397 -0.888,10.06 0,2.663 0.888,7.693 0.888,7.693 l -1.776,15.09 c 0,0 8.581,6.509 18.345,2.663 z"
             style="fill:none;stroke:#1a2e35;stroke-width:1;stroke-linecap:butt;stroke-linejoin:round;stroke-miterlimit:10;stroke-dasharray:none;stroke-opacity:1"
             id="path548" /></g><g
           id="g550"
           transform="translate(330.1855,41.5996)"><path
             d="m 0,0 h -30.18 c 0,0 -0.189,1.587 -0.393,3.551 H 0.181 C 0.138,1.666 0,0 0,0"
             style="fill:#ffffff;fill-opacity:1;fill-rule:nonzero;stroke:none"
             id="path552" /></g><g
           id="g554"
           transform="translate(330.1855,41.5996)"><path
             d="m 0,0 h -30.18 c 0,0 -0.189,1.587 -0.393,3.551 H 0.181 C 0.138,1.666 0,0 0,0 Z"
             style="fill:none;stroke:#1a2e35;stroke-width:1;stroke-linecap:butt;stroke-linejoin:round;stroke-miterlimit:10;stroke-dasharray:none;stroke-opacity:1"
             id="path556" /></g><g
           id="g558"
           transform="translate(304.1484,78.2891)"><path
             d="m 0,0 c 0,0 3.551,3.55 8.58,3.55 5.03,0 7.102,-2.958 7.102,-2.958 L 12.723,-14.202 H 4.734 Z"
             style="fill:#ffffff;fill-opacity:1;fill-rule:nonzero;stroke:none"
             id="path560" /></g><g
           id="g562"
           transform="translate(304.1484,78.2891)"><path
             d="m 0,0 c 0,0 3.551,3.55 8.58,3.55 5.03,0 7.102,-2.958 7.102,-2.958 L 12.723,-14.202 H 4.734 Z"
             style="fill:none;stroke:#1a2e35;stroke-width:1;stroke-linecap:butt;stroke-linejoin:round;stroke-miterlimit:10;stroke-dasharray:none;stroke-opacity:1"
             id="path564" /></g><g
           id="g566"
           transform="translate(317.7861,62.7188)"><path
             d="m 0,0 h -10.199 c -0.461,0 -0.834,0.374 -0.834,0.835 0,0.461 0.373,0.834 0.834,0.834 H 0 C 0.461,1.669 0.835,1.296 0.835,0.835 0.835,0.374 0.461,0 0,0"
             style="fill:#ffffff;fill-opacity:1;fill-rule:nonzero;stroke:none"
             id="path568" /></g><g
           id="g570"
           transform="translate(317.7861,62.7188)"><path
             d="m 0,0 h -10.199 c -0.461,0 -0.834,0.374 -0.834,0.835 0,0.461 0.373,0.834 0.834,0.834 H 0 C 0.461,1.669 0.835,1.296 0.835,0.835 0.835,0.374 0.461,0 0,0 Z"
             style="fill:none;stroke:#1a2e35;stroke-width:1;stroke-linecap:butt;stroke-linejoin:round;stroke-miterlimit:10;stroke-dasharray:none;stroke-opacity:1"
             id="path572" /></g><g
           id="g574"
           transform="translate(317.7861,60.6787)"><path
             d="m 0,0 h -10.199 c -0.461,0 -0.834,0.374 -0.834,0.835 0,0.461 0.373,0.834 0.834,0.834 H 0 C 0.461,1.669 0.835,1.296 0.835,0.835 0.835,0.374 0.461,0 0,0"
             style="fill:#ffffff;fill-opacity:1;fill-rule:nonzero;stroke:none"
             id="path576" /></g><g
           id="g578"
           transform="translate(317.7861,60.6787)"><path
             d="m 0,0 h -10.199 c -0.461,0 -0.834,0.374 -0.834,0.835 0,0.461 0.373,0.834 0.834,0.834 H 0 C 0.461,1.669 0.835,1.296 0.835,0.835 0.835,0.374 0.461,0 0,0 Z"
             style="fill:none;stroke:#1a2e35;stroke-width:1;stroke-linecap:butt;stroke-linejoin:round;stroke-miterlimit:10;stroke-dasharray:none;stroke-opacity:1"
             id="path580" /></g><g
           id="g582"
           transform="translate(317.7861,58.6396)"><path
             d="m 0,0 h -10.199 c -0.461,0 -0.834,0.373 -0.834,0.834 0,0.461 0.373,0.835 0.834,0.835 H 0 C 0.461,1.669 0.835,1.295 0.835,0.834 0.835,0.373 0.461,0 0,0"
             style="fill:#ffffff;fill-opacity:1;fill-rule:nonzero;stroke:none"
             id="path584" /></g><g
           id="g586"
           transform="translate(317.7861,58.6396)"><path
             d="m 0,0 h -10.199 c -0.461,0 -0.834,0.373 -0.834,0.834 0,0.461 0.373,0.835 0.834,0.835 H 0 C 0.461,1.669 0.835,1.295 0.835,0.834 0.835,0.373 0.461,0 0,0 Z"
             style="fill:none;stroke:#1a2e35;stroke-width:1;stroke-linecap:butt;stroke-linejoin:round;stroke-miterlimit:10;stroke-dasharray:none;stroke-opacity:1"
             id="path588" /></g><g
           id="g590"
           transform="translate(317.7861,56.5996)"><path
             d="m 0,0 h -10.199 c -0.461,0 -0.834,0.373 -0.834,0.834 0,0.461 0.373,0.835 0.834,0.835 H 0 C 0.461,1.669 0.835,1.295 0.835,0.834 0.835,0.373 0.461,0 0,0"
             style="fill:#ffffff;fill-opacity:1;fill-rule:nonzero;stroke:none"
             id="path592" /></g><g
           id="g594"
           transform="translate(317.7861,56.5996)"><path
             d="m 0,0 h -10.199 c -0.461,0 -0.834,0.373 -0.834,0.834 0,0.461 0.373,0.835 0.834,0.835 H 0 C 0.461,1.669 0.835,1.295 0.835,0.834 0.835,0.373 0.461,0 0,0 Z"
             style="fill:none;stroke:#1a2e35;stroke-width:1;stroke-linecap:butt;stroke-linejoin:round;stroke-miterlimit:10;stroke-dasharray:none;stroke-opacity:1"
             id="path596" /></g><g
           id="g598"
           transform="translate(273.9111,321.4687)"><path
             d="m 0,0 c 0,0 -0.776,-13.572 -1.035,-15.643 -0.259,-2.07 -7.765,-5.953 -14.236,-9.059 -6.471,-3.106 -11.907,-4.401 -11.648,-7.248 0.259,-2.847 4.142,-108.971 4.142,-108.971 0,0 8.8,0.259 21.742,5.177 12.942,4.918 20.707,11.13 27.179,16.565 6.47,5.436 12.941,8.025 12.941,8.025 0,0 1.036,50.214 1.036,59.015 0,8.8 1.812,17.86 1.294,21.483 -0.518,3.624 -16.048,8.025 -19.931,9.836 l -3.882,1.812 c 0,0 0,5.03 1.552,8.137 l 1.554,3.106 -19.931,8.8 z"
             style="fill:#5ae4a7;fill-opacity:1;fill-rule:nonzero;stroke:none"
             id="path600" /></g><g
           id="g602"
           transform="translate(273.9111,321.4687)"><path
             d="m 0,0 c 0,0 -0.776,-13.572 -1.035,-15.643 -0.259,-2.07 -7.765,-5.953 -14.236,-9.059 -6.471,-3.106 -11.907,-4.401 -11.648,-7.248 0.259,-2.847 4.142,-108.971 4.142,-108.971 0,0 8.8,0.259 21.742,5.177 12.942,4.918 20.707,11.13 27.179,16.565 6.47,5.436 12.941,8.025 12.941,8.025 0,0 1.036,50.214 1.036,59.015 0,8.8 1.812,17.86 1.294,21.483 -0.518,3.624 -16.048,8.025 -19.931,9.836 l -3.882,1.812 c 0,0 0,5.03 1.552,8.137 l 1.554,3.106 -19.931,8.8 z"
             style="fill:none;stroke:#1a2e35;stroke-width:1;stroke-linecap:butt;stroke-linejoin:round;stroke-miterlimit:10;stroke-dasharray:none;stroke-opacity:1"
             id="path604" /></g><g
           id="g606"
           transform="translate(300.0547,202.29)"><path
             d="m 0,0 c 6.471,5.436 12.941,8.024 12.941,8.024 0,0 0.006,0.29 0.018,0.825 C 9.011,8.661 5.235,6.639 -11.344,1.037 -28.026,-4.599 -44.706,-6.612 -49.458,-7.1 c 0.326,-8.876 0.537,-14.642 0.537,-14.642 0,0 8.801,0.259 21.742,5.177 C -14.236,-11.647 -6.472,-5.436 0,0"
             style="fill:#ffffff;fill-opacity:1;fill-rule:nonzero;stroke:none"
             id="path608" /></g><g
           id="g610"
           transform="translate(300.0547,202.29)"><path
             d="m 0,0 c 6.471,5.436 12.941,8.024 12.941,8.024 0,0 0.006,0.29 0.018,0.825 C 9.011,8.661 5.235,6.639 -11.344,1.037 -28.026,-4.599 -44.706,-6.612 -49.458,-7.1 c 0.326,-8.876 0.537,-14.642 0.537,-14.642 0,0 8.801,0.259 21.742,5.177 C -14.236,-11.647 -6.472,-5.436 0,0 Z"
             style="fill:none;stroke:#1a2e35;stroke-width:1;stroke-linecap:butt;stroke-linejoin:round;stroke-miterlimit:10;stroke-dasharray:none;stroke-opacity:1"
             id="path612" /></g><g
           id="g614"
           transform="translate(250.3223,202.5273)"><path
             d="M 0,0 C 0,0 46.12,6.398 62.648,11.73"
             style="fill:none;stroke:#1a2e35;stroke-width:1;stroke-linecap:butt;stroke-linejoin:round;stroke-miterlimit:10;stroke-dasharray:none;stroke-opacity:1"
             id="path616" /></g><g
           id="g618"
           transform="translate(295.3955,300.6489)"><path
             d="m 0,0 -3.883,1.812 c 0,0 0,5.03 1.553,8.137 l 1.554,3.106 -19.931,8.8 -0.777,-1.035 c 0,0 -0.777,-13.572 -1.036,-15.643 -0.168,-1.351 -3.427,-3.473 -7.465,-5.648 2.502,-2.765 9.088,-9.298 16.784,-10.918 6.198,-1.304 11.571,5.405 14.764,10.743 C 0.938,-0.406 0.403,-0.188 0,0"
             style="fill:#ffffff;fill-opacity:1;fill-rule:nonzero;stroke:none"
             id="path620" /></g><g
           id="g622"
           transform="translate(295.3955,300.6489)"><path
             d="m 0,0 -3.883,1.812 c 0,0 0,5.03 1.553,8.137 l 1.554,3.106 -19.931,8.8 -0.777,-1.035 c 0,0 -0.777,-13.572 -1.036,-15.643 -0.168,-1.351 -3.427,-3.473 -7.465,-5.648 2.502,-2.765 9.088,-9.298 16.784,-10.918 6.198,-1.304 11.571,5.405 14.764,10.743 C 0.938,-0.406 0.403,-0.188 0,0 Z"
             style="fill:none;stroke:#1a2e35;stroke-width:1;stroke-linecap:butt;stroke-linejoin:round;stroke-miterlimit:10;stroke-dasharray:none;stroke-opacity:1"
             id="path624" /></g><g
           id="g626"
           transform="translate(285.084,277.292)"><path
             d="m 0,0 0.215,2.105 c 0.274,2.687 0.274,5.395 0,8.082 L 0,12.292 c 0,0 -4.892,0.25 -6.396,-2.007 C -7.902,8.027 -7.156,3.81 -6.773,2.508 -6.146,0.376 0,0 0,0"
             style="fill:#1a2e35;fill-opacity:1;fill-rule:nonzero;stroke:none"
             id="path628" /></g><g
           id="g630"
           transform="translate(285.084,277.292)"><path
             d="m 0,0 0.215,2.105 c 0.274,2.687 0.274,5.395 0,8.082 L 0,12.292 c 0,0 -4.892,0.25 -6.396,-2.007 C -7.902,8.027 -7.156,3.81 -6.773,2.508 -6.146,0.376 0,0 0,0 Z"
             style="fill:none;stroke:#1a2e35;stroke-width:1;stroke-linecap:butt;stroke-linejoin:round;stroke-miterlimit:10;stroke-dasharray:none;stroke-opacity:1"
             id="path632" /></g><g
           id="g634"
           transform="translate(285.084,262.3657)"><path
             d="m 0,0 0.215,2.105 c 0.274,2.687 0.274,5.395 0,8.082 L 0,12.292 c 0,0 -4.892,0.251 -6.396,-2.007 C -7.902,8.028 -7.156,3.811 -6.773,2.509 -6.146,0.376 0,0 0,0"
             style="fill:#1a2e35;fill-opacity:1;fill-rule:nonzero;stroke:none"
             id="path636" /></g><g
           id="g638"
           transform="translate(285.084,262.3657)"><path
             d="m 0,0 0.215,2.105 c 0.274,2.687 0.274,5.395 0,8.082 L 0,12.292 c 0,0 -4.892,0.251 -6.396,-2.007 C -7.902,8.028 -7.156,3.811 -6.773,2.509 -6.146,0.376 0,0 0,0 Z"
             style="fill:none;stroke:#1a2e35;stroke-width:1;stroke-linecap:butt;stroke-linejoin:round;stroke-miterlimit:10;stroke-dasharray:none;stroke-opacity:1"
             id="path640" /></g><g
           id="g642"
           transform="translate(285.084,277.292)"><path
             d="M 0,0 V -2.634"
             style="fill:none;stroke:#1a2e35;stroke-width:1;stroke-linecap:butt;stroke-linejoin:round;stroke-miterlimit:10;stroke-dasharray:none;stroke-opacity:1"
             id="path644" /></g><g
           id="g646"
           transform="translate(283.5791,277.292)"><path
             d="M 0,0 V -2.383"
             style="fill:none;stroke:#1a2e35;stroke-width:1;stroke-linecap:butt;stroke-linejoin:round;stroke-miterlimit:10;stroke-dasharray:none;stroke-opacity:1"
             id="path648" /></g><g
           id="g650"
           transform="translate(293.0654,310.5977)"><path
             d="m 0,0 1.554,3.106 -19.931,8.8 -0.777,-1.035 c 0,0 0,-0.017 -0.002,-0.043 l 1.701,-2.944 c 0,0 5.217,-9.674 16.33,-12.486 C -0.896,-2.819 -0.545,-1.09 0,0"
             style="fill:#1a2e35;fill-opacity:1;fill-rule:nonzero;stroke:none"
             id="path652" /></g><g
           id="g654"
           transform="translate(293.0654,310.5977)"><path
             d="m 0,0 1.554,3.106 -19.931,8.8 -0.777,-1.035 c 0,0 0,-0.017 -0.002,-0.043 l 1.701,-2.944 c 0,0 5.217,-9.674 16.33,-12.486 C -0.896,-2.819 -0.545,-1.09 0,0 Z"
             style="fill:none;stroke:#1a2e35;stroke-width:1;stroke-linecap:butt;stroke-linejoin:round;stroke-miterlimit:10;stroke-dasharray:none;stroke-opacity:1"
             id="path656" /></g><g
           id="g658"
           transform="translate(296.4307,343.4702)"><path
             d="m 0,0 c 0,0 3.106,-7.248 3.106,-8.283 0,-1.035 -0.777,-2.071 -0.777,-2.071 0,0 4.659,-4.4 4.4,-5.436 -0.258,-1.035 -2.587,-2.329 -2.587,-2.329 0,0 1.811,-9.577 1.811,-10.871 0,-1.294 -3.624,-4.401 -10.871,-3.624 -7.247,0.777 -11.906,5.436 -11.906,5.436 0,0 -6.731,7.247 -6.989,11.648 -0.259,4.4 4.917,17.083 11.388,18.895 C -5.953,5.177 0,0 0,0"
             style="fill:#ffffff;fill-opacity:1;fill-rule:nonzero;stroke:none"
             id="path660" /></g><g
           id="g662"
           transform="translate(296.4307,343.4702)"><path
             d="m 0,0 c 0,0 3.106,-7.248 3.106,-8.283 0,-1.035 -0.777,-2.071 -0.777,-2.071 0,0 4.659,-4.4 4.4,-5.436 -0.258,-1.035 -2.587,-2.329 -2.587,-2.329 0,0 1.811,-9.577 1.811,-10.871 0,-1.294 -3.624,-4.401 -10.871,-3.624 -7.247,0.777 -11.906,5.436 -11.906,5.436 0,0 -6.731,7.247 -6.989,11.648 -0.259,4.4 4.917,17.083 11.388,18.895 C -5.953,5.177 0,0 0,0 Z"
             style="fill:none;stroke:#1a2e35;stroke-width:1;stroke-linecap:butt;stroke-linejoin:round;stroke-miterlimit:10;stroke-dasharray:none;stroke-opacity:1"
             id="path664" /></g><g
           id="g666"
           transform="translate(295.3955,332.2104)"><path
             d="m 0,0 c 0,-0.929 -0.406,-1.682 -0.906,-1.682 -0.5,0 -0.906,0.753 -0.906,1.682 0,0.929 0.406,1.683 0.906,1.683 C -0.406,1.683 0,0.929 0,0"
             style="fill:#1a2e35;fill-opacity:1;fill-rule:nonzero;stroke:none"
             id="path668" /></g><g
           id="g670"
           transform="translate(291.5127,334.4106)"><path
             d="M 0,0 C 0,0 2.589,3.365 5.694,1.553"
             style="fill:none;stroke:#1a2e35;stroke-width:1;stroke-linecap:butt;stroke-linejoin:round;stroke-miterlimit:10;stroke-dasharray:none;stroke-opacity:1"
             id="path672" /></g><g
           id="g674"
           transform="translate(290.9951,324.3159)"><path
             d="M 0,0 C 0,0 1.553,-2.588 6.988,-1.553"
             style="fill:none;stroke:#1a2e35;stroke-width:1;stroke-linecap:butt;stroke-linejoin:round;stroke-miterlimit:10;stroke-dasharray:none;stroke-opacity:1"
             id="path676" /></g><g
           id="g678"
           transform="translate(272.3584,344.2466)"><path
             d="m 0,0 c 0,0 -8.283,-3.106 -9.06,-8.024 -0.776,-4.918 6.213,-11.648 7.248,-12.683 1.036,-1.036 6.989,-1.036 8.541,1.035 1.554,2.071 -0.776,5.436 0.778,6.73 1.553,1.294 3.623,0.776 4.14,4.659 0.519,3.883 -1.293,5.436 1.295,6.73 2.588,1.294 5.954,-1.553 11.13,0.777 5.177,2.329 3.624,11.388 -2.07,14.754 C 16.307,17.342 7.248,12.683 6.989,10.872 6.729,9.06 8.542,6.73 6.989,6.471 5.436,6.212 2.071,7.248 1.553,4.659 1.035,2.071 0,0 0,0"
             style="fill:#1a2e35;fill-opacity:1;fill-rule:nonzero;stroke:none"
             id="path680" /></g><g
           id="g682"
           transform="translate(272.3584,344.2466)"><path
             d="m 0,0 c 0,0 -8.283,-3.106 -9.06,-8.024 -0.776,-4.918 6.213,-11.648 7.248,-12.683 1.036,-1.036 6.989,-1.036 8.541,1.035 1.554,2.071 -0.776,5.436 0.778,6.73 1.553,1.294 3.623,0.776 4.14,4.659 0.519,3.883 -1.293,5.436 1.295,6.73 2.588,1.294 5.954,-1.553 11.13,0.777 5.177,2.329 3.624,11.388 -2.07,14.754 C 16.307,17.342 7.248,12.683 6.989,10.872 6.729,9.06 8.542,6.73 6.989,6.471 5.436,6.212 2.071,7.248 1.553,4.659 1.035,2.071 0,0 0,0 Z"
             style="fill:none;stroke:#1a2e35;stroke-width:1;stroke-linecap:butt;stroke-linejoin:round;stroke-miterlimit:10;stroke-dasharray:none;stroke-opacity:1"
             id="path684" /></g><g
           id="g686"
           transform="translate(279.3477,322.7627)"><path
             d="m 0,0 c 0,0 -2.848,5.695 -6.73,5.177 -3.883,-0.518 -2.847,-9.059 0,-10.871 C -3.883,-7.506 0,-3.882 0,-3.882"
             style="fill:#ffffff;fill-opacity:1;fill-rule:nonzero;stroke:#1a2e35;stroke-width:1;stroke-linecap:butt;stroke-linejoin:round;stroke-miterlimit:10;stroke-dasharray:none;stroke-opacity:1"
             id="path688" /></g><g
           id="g690"
           transform="translate(250.2163,292.8838)"><path
             d="m 0,0 c 0,0 -7.506,-3.106 -8.8,-7.248 -1.295,-4.141 -17.343,-41.932 -18.896,-45.037 -1.553,-3.107 0.259,-8.542 3.106,-9.577 2.847,-1.036 4.401,0 7.248,2.07 C -14.495,-57.721 0,-33.39 0,-33.39"
             style="fill:#5ae4a7;fill-opacity:1;fill-rule:nonzero;stroke:#1a2e35;stroke-width:1;stroke-linecap:butt;stroke-linejoin:round;stroke-miterlimit:10;stroke-dasharray:none;stroke-opacity:1"
             id="path692" /></g><g
           id="g694"
           transform="translate(241.1904,263.7993)"><path
             d="m 0,0 -9.12,-0.16 c -1.035,-0.018 -1.889,0.807 -1.907,1.842 l -0.436,24.873 c -0.018,1.035 0.806,1.889 1.842,1.907 l 9.119,0.16 C 0.534,28.64 1.388,27.816 1.406,26.78 L 1.842,1.908 C 1.86,0.873 1.035,0.019 0,0"
             style="fill:#1a2e35;fill-opacity:1;fill-rule:nonzero;stroke:none"
             id="path696" /></g><g
           id="g698"
           transform="translate(241.1904,263.7993)"><path
             d="m 0,0 -9.12,-0.16 c -1.035,-0.018 -1.889,0.807 -1.907,1.842 l -0.436,24.873 c -0.018,1.035 0.806,1.889 1.842,1.907 l 9.119,0.16 C 0.534,28.64 1.388,27.816 1.406,26.78 L 1.842,1.908 C 1.86,0.873 1.035,0.019 0,0 Z"
             style="fill:none;stroke:#1a2e35;stroke-width:1;stroke-linecap:butt;stroke-linejoin:round;stroke-miterlimit:10;stroke-dasharray:none;stroke-opacity:1"
             id="path700" /></g><g
           id="g702"
           transform="translate(227.5918,257.8696)"><path
             d="m 0,0 c 0,0 -0.075,14.947 -0.183,17.061 -0.108,2.114 2.445,4.278 3.995,5.331 1.55,1.053 8.183,4.112 8.974,3.752 0.792,-0.361 0.543,-1.662 -0.535,-2.433 -1.077,-0.772 -5.84,-3.42 -6.748,-4.154 -0.907,-0.734 -0.82,-3.565 -0.82,-3.565 0,0 5.48,2.629 7.105,3.341 1.625,0.713 3.419,1.464 4.078,0.896 0.659,-0.568 0.336,-1.529 0.336,-1.529 0,0 0.734,-0.908 0.581,-1.832 -0.154,-0.925 -3.975,-4.614 -5.185,-5.593 -1.211,-0.978 -2.516,-2.334 -2.516,-2.334 0,0 7.27,1.775 7.78,1.887 0.51,0.112 1.111,-1.003 -0.307,-1.849 C 15.138,8.134 9.811,6.43 9.811,6.43 c 0,0 -0.269,-2.019 -1.541,-5.149 -1.273,-3.129 -3.2,-4.087 -3.2,-4.087 0,0 3.073,-16.427 0.834,-20.837 -2.237,-4.411 -9.21,-7.545 -12.008,-2.103 -2.798,5.443 -1.045,12.063 1.719,15.698 C -1.62,-6.413 0,0 0,0"
             style="fill:#ffffff;fill-opacity:1;fill-rule:nonzero;stroke:none"
             id="path704" /></g><g
           id="g706"
           transform="translate(227.5918,257.8696)"><path
             d="m 0,0 c 0,0 -0.075,14.947 -0.183,17.061 -0.108,2.114 2.445,4.278 3.995,5.331 1.55,1.053 8.183,4.112 8.974,3.752 0.792,-0.361 0.543,-1.662 -0.535,-2.433 -1.077,-0.772 -5.84,-3.42 -6.748,-4.154 -0.907,-0.734 -0.82,-3.565 -0.82,-3.565 0,0 5.48,2.629 7.105,3.341 1.625,0.713 3.419,1.464 4.078,0.896 0.659,-0.568 0.336,-1.529 0.336,-1.529 0,0 0.734,-0.908 0.581,-1.832 -0.154,-0.925 -3.975,-4.614 -5.185,-5.593 -1.211,-0.978 -2.516,-2.334 -2.516,-2.334 0,0 7.27,1.775 7.78,1.887 0.51,0.112 1.111,-1.003 -0.307,-1.849 C 15.138,8.134 9.811,6.43 9.811,6.43 c 0,0 -0.269,-2.019 -1.541,-5.149 -1.273,-3.129 -3.2,-4.087 -3.2,-4.087 0,0 3.073,-16.427 0.834,-20.837 -2.237,-4.411 -9.21,-7.545 -12.008,-2.103 -2.798,5.443 -1.045,12.063 1.719,15.698 C -1.62,-6.413 0,0 0,0 Z"
             style="fill:none;stroke:#1a2e35;stroke-width:1;stroke-linecap:butt;stroke-linejoin:round;stroke-miterlimit:10;stroke-dasharray:none;stroke-opacity:1"
             id="path708" /></g><g
           id="g710"
           transform="translate(234.1548,243.666)"><path
             d="m 0,0 c -6.137,-2.626 -10.182,-0.09 -12.269,2.02 -1.91,-3.758 -2.712,-9.06 -0.398,-13.562 2.798,-5.442 9.77,-2.309 12.008,2.103 C 0.252,-7.645 0.283,-3.858 0,0"
             style="fill:#5ae4a7;fill-opacity:1;fill-rule:nonzero;stroke:none"
             id="path712" /></g><g
           id="g714"
           transform="translate(234.1548,243.666)"><path
             d="m 0,0 c -6.137,-2.626 -10.182,-0.09 -12.269,2.02 -1.91,-3.758 -2.712,-9.06 -0.398,-13.562 2.798,-5.442 9.77,-2.309 12.008,2.103 C 0.252,-7.645 0.283,-3.858 0,0 Z"
             style="fill:none;stroke:#1a2e35;stroke-width:1;stroke-linecap:butt;stroke-linejoin:round;stroke-miterlimit:10;stroke-dasharray:none;stroke-opacity:1"
             id="path716" /></g><g
           id="g718"
           transform="translate(243.7939,276.5693)"><path
             d="M 0,0 -10.018,-6.297"
             style="fill:none;stroke:#1a2e35;stroke-width:1;stroke-linecap:butt;stroke-linejoin:round;stroke-miterlimit:10;stroke-dasharray:none;stroke-opacity:1"
             id="path720" /></g><g
           id="g722"
           transform="translate(243.7939,276.5693)"><path
             d="M 0,0 -10.018,-6.297"
             style="fill:none;stroke:#1a2e35;stroke-width:1;stroke-linecap:butt;stroke-linejoin:round;stroke-miterlimit:10;stroke-dasharray:none;stroke-opacity:1"
             id="path724" /></g><g
           id="g726"
           transform="translate(317.4355,215.1143)"><path
             d="m 0,0 c 0,0 -7.452,-1.597 -8.34,-1.774 -0.887,-0.177 -6.92,-5.855 -7.629,-6.92 -0.71,-1.065 1.241,-1.774 2.129,-1.774 0.887,0 5.678,3.548 5.678,3.548 l -1.322,-3.192 9.581,-8.34 c 0,0 2.564,4.612 3.806,7.629 1.243,3.016 1.775,7.63 1.775,7.63"
             style="fill:#ffffff;fill-opacity:1;fill-rule:nonzero;stroke:#1a2e35;stroke-width:1;stroke-linecap:butt;stroke-linejoin:round;stroke-miterlimit:10;stroke-dasharray:none;stroke-opacity:1"
             id="path728" /></g></g></g><g
       id="g730"
       transform="translate(9.4307,41.5996)"><path
         d="M 0,0 H 483.569"
         style="fill:none;stroke:#1a2e35;stroke-width:1;stroke-linecap:butt;stroke-linejoin:round;stroke-miterlimit:10;stroke-dasharray:none;stroke-opacity:1"
         id="path732" /></g></g></svg>
